%TF.GenerationSoftware,KiCad,Pcbnew,(6.0.6)*%
%TF.CreationDate,2023-03-05T15:32:32+02:00*%
%TF.ProjectId,UniversalTKL,556e6976-6572-4736-916c-544b4c2e6b69,rev?*%
%TF.SameCoordinates,Original*%
%TF.FileFunction,Paste,Bot*%
%TF.FilePolarity,Positive*%
%FSLAX46Y46*%
G04 Gerber Fmt 4.6, Leading zero omitted, Abs format (unit mm)*
G04 Created by KiCad (PCBNEW (6.0.6)) date 2023-03-05 15:32:32*
%MOMM*%
%LPD*%
G01*
G04 APERTURE LIST*
G04 Aperture macros list*
%AMRoundRect*
0 Rectangle with rounded corners*
0 $1 Rounding radius*
0 $2 $3 $4 $5 $6 $7 $8 $9 X,Y pos of 4 corners*
0 Add a 4 corners polygon primitive as box body*
4,1,4,$2,$3,$4,$5,$6,$7,$8,$9,$2,$3,0*
0 Add four circle primitives for the rounded corners*
1,1,$1+$1,$2,$3*
1,1,$1+$1,$4,$5*
1,1,$1+$1,$6,$7*
1,1,$1+$1,$8,$9*
0 Add four rect primitives between the rounded corners*
20,1,$1+$1,$2,$3,$4,$5,0*
20,1,$1+$1,$4,$5,$6,$7,0*
20,1,$1+$1,$6,$7,$8,$9,0*
20,1,$1+$1,$8,$9,$2,$3,0*%
%AMRotRect*
0 Rectangle, with rotation*
0 The origin of the aperture is its center*
0 $1 length*
0 $2 width*
0 $3 Rotation angle, in degrees counterclockwise*
0 Add horizontal line*
21,1,$1,$2,0,0,$3*%
G04 Aperture macros list end*
%ADD10RoundRect,0.250000X-0.450000X0.350000X-0.450000X-0.350000X0.450000X-0.350000X0.450000X0.350000X0*%
%ADD11RoundRect,0.150000X-0.150000X0.587500X-0.150000X-0.587500X0.150000X-0.587500X0.150000X0.587500X0*%
%ADD12RoundRect,0.250000X0.350000X0.450000X-0.350000X0.450000X-0.350000X-0.450000X0.350000X-0.450000X0*%
%ADD13RoundRect,0.140000X0.219203X0.021213X0.021213X0.219203X-0.219203X-0.021213X-0.021213X-0.219203X0*%
%ADD14R,1.200000X0.900000*%
%ADD15RoundRect,0.155000X0.212500X0.155000X-0.212500X0.155000X-0.212500X-0.155000X0.212500X-0.155000X0*%
%ADD16RoundRect,0.150000X-0.150000X-0.625000X0.150000X-0.625000X0.150000X0.625000X-0.150000X0.625000X0*%
%ADD17RoundRect,0.250000X-0.350000X-0.650000X0.350000X-0.650000X0.350000X0.650000X-0.350000X0.650000X0*%
%ADD18RoundRect,0.050000X-0.300000X-0.725000X0.300000X-0.725000X0.300000X0.725000X-0.300000X0.725000X0*%
%ADD19RoundRect,0.050000X-0.150000X-0.725000X0.150000X-0.725000X0.150000X0.725000X-0.150000X0.725000X0*%
%ADD20RoundRect,0.155000X0.040659X0.259862X-0.259862X-0.040659X-0.040659X-0.259862X0.259862X0.040659X0*%
%ADD21R,1.400000X1.200000*%
%ADD22R,1.400000X1.000000*%
%ADD23RoundRect,0.155000X0.155000X-0.212500X0.155000X0.212500X-0.155000X0.212500X-0.155000X-0.212500X0*%
%ADD24RoundRect,0.243750X-0.456250X0.243750X-0.456250X-0.243750X0.456250X-0.243750X0.456250X0.243750X0*%
%ADD25RoundRect,0.250000X-0.475000X0.337500X-0.475000X-0.337500X0.475000X-0.337500X0.475000X0.337500X0*%
%ADD26RotRect,0.400000X1.900000X135.000000*%
%ADD27RoundRect,0.250000X-0.388909X0.000000X0.000000X-0.388909X0.388909X0.000000X0.000000X0.388909X0*%
%ADD28RoundRect,0.062500X-0.380070X0.291682X0.291682X-0.380070X0.380070X-0.291682X-0.291682X0.380070X0*%
%ADD29RoundRect,0.062500X-0.380070X-0.291682X-0.291682X-0.380070X0.380070X0.291682X0.291682X0.380070X0*%
G04 APERTURE END LIST*
D10*
%TO.C,R_DATA1*%
X317840000Y-102950000D03*
X317840000Y-104950000D03*
%TD*%
D11*
%TO.C,D29*%
X241937500Y-144318750D03*
X243837500Y-144318750D03*
X242887500Y-146193750D03*
%TD*%
D12*
%TO.C,R_INDICATOR3*%
X39130000Y-50760000D03*
X37130000Y-50760000D03*
%TD*%
%TO.C,R_INDICATOR2*%
X348662500Y-50006250D03*
X346662500Y-50006250D03*
%TD*%
D11*
%TO.C,D17*%
X137956250Y-105425000D03*
X139856250Y-105425000D03*
X138906250Y-107300000D03*
%TD*%
%TO.C,D36*%
X276068750Y-67325000D03*
X277968750Y-67325000D03*
X277018750Y-69200000D03*
%TD*%
%TO.C,D30*%
X223681250Y-124475000D03*
X225581250Y-124475000D03*
X224631250Y-126350000D03*
%TD*%
D13*
%TO.C,C_UCAP1*%
X323219411Y-106669411D03*
X322540589Y-105990589D03*
%TD*%
D11*
%TO.C,D1*%
X53818750Y-144318750D03*
X55718750Y-144318750D03*
X54768750Y-146193750D03*
%TD*%
%TO.C,D35*%
X252256250Y-43512500D03*
X254156250Y-43512500D03*
X253206250Y-45387500D03*
%TD*%
D14*
%TO.C,D48*%
X370860000Y-72560000D03*
X370860000Y-69260000D03*
%TD*%
D11*
%TO.C,D3*%
X47468750Y-67325000D03*
X49368750Y-67325000D03*
X48418750Y-69200000D03*
%TD*%
D14*
%TO.C,D46*%
X351910000Y-72910000D03*
X351910000Y-69610000D03*
%TD*%
D15*
%TO.C,R_HWB1*%
X327477500Y-117740000D03*
X326342500Y-117740000D03*
%TD*%
D11*
%TO.C,D2*%
X49850000Y-44306250D03*
X51750000Y-44306250D03*
X50800000Y-46181250D03*
%TD*%
D16*
%TO.C,J3*%
X316000000Y-65500000D03*
X317000000Y-65500000D03*
X318000000Y-65500000D03*
X319000000Y-65500000D03*
D17*
X320300000Y-61625000D03*
X314700000Y-61625000D03*
%TD*%
D18*
%TO.C,USB1*%
X314315000Y-32032500D03*
X315090000Y-32032500D03*
D19*
X315790000Y-32032500D03*
X316290000Y-32032500D03*
X316790000Y-32032500D03*
X317290000Y-32032500D03*
X317790000Y-32032500D03*
X318290000Y-32032500D03*
X318790000Y-32032500D03*
X319290000Y-32032500D03*
D18*
X319990000Y-32032500D03*
X320765000Y-32032500D03*
%TD*%
D14*
%TO.C,D49*%
X370640000Y-90460000D03*
X370640000Y-87160000D03*
%TD*%
D11*
%TO.C,D4*%
X53818750Y-86375000D03*
X55718750Y-86375000D03*
X54768750Y-88250000D03*
%TD*%
%TO.C,D43*%
X337981250Y-44306250D03*
X339881250Y-44306250D03*
X338931250Y-46181250D03*
%TD*%
D14*
%TO.C,D47*%
X370770000Y-47670000D03*
X370770000Y-44370000D03*
%TD*%
D13*
%TO.C,C_DECOUP4*%
X322829411Y-104879411D03*
X322150589Y-104200589D03*
%TD*%
D11*
%TO.C,D26*%
X209393750Y-86375000D03*
X211293750Y-86375000D03*
X210343750Y-88250000D03*
%TD*%
%TO.C,D6*%
X53818750Y-126856250D03*
X55718750Y-126856250D03*
X54768750Y-128731250D03*
%TD*%
%TO.C,D33*%
X252256250Y-105425000D03*
X254156250Y-105425000D03*
X253206250Y-107300000D03*
%TD*%
%TO.C,D42*%
X323693750Y-68912500D03*
X325593750Y-68912500D03*
X324643750Y-70787500D03*
%TD*%
D20*
%TO.C,R_RST1*%
X329161283Y-102538717D03*
X328358717Y-103341283D03*
%TD*%
D11*
%TO.C,D24*%
X185581250Y-124475000D03*
X187481250Y-124475000D03*
X186531250Y-126350000D03*
%TD*%
D15*
%TO.C,C_DECOUP1*%
X326910000Y-116180000D03*
X325775000Y-116180000D03*
%TD*%
D11*
%TO.C,D39*%
X287975000Y-86375000D03*
X289875000Y-86375000D03*
X288925000Y-88250000D03*
%TD*%
%TO.C,D12*%
X109381250Y-124475000D03*
X111281250Y-124475000D03*
X110331250Y-126350000D03*
%TD*%
%TO.C,D22*%
X171293750Y-86375000D03*
X173193750Y-86375000D03*
X172243750Y-88250000D03*
%TD*%
%TO.C,D11*%
X99856250Y-105425000D03*
X101756250Y-105425000D03*
X100806250Y-107300000D03*
%TD*%
%TO.C,D8*%
X90331250Y-43512500D03*
X92231250Y-43512500D03*
X91281250Y-45387500D03*
%TD*%
%TO.C,D34*%
X264956250Y-124475000D03*
X266856250Y-124475000D03*
X265906250Y-126350000D03*
%TD*%
D21*
%TO.C,D18*%
X316400000Y-42045000D03*
D22*
X316400000Y-40325000D03*
X318600000Y-40325000D03*
X318600000Y-42225000D03*
%TD*%
D11*
%TO.C,D32*%
X247493750Y-86375000D03*
X249393750Y-86375000D03*
X248443750Y-88250000D03*
%TD*%
%TO.C,D5*%
X56993750Y-105425000D03*
X58893750Y-105425000D03*
X57943750Y-107300000D03*
%TD*%
D12*
%TO.C,R_INDICATOR1*%
X46243750Y-112712500D03*
X44243750Y-112712500D03*
%TD*%
D14*
%TO.C,D50*%
X370680000Y-147580000D03*
X370680000Y-144280000D03*
%TD*%
D11*
%TO.C,D15*%
X123668750Y-67325000D03*
X125568750Y-67325000D03*
X124618750Y-69200000D03*
%TD*%
D10*
%TO.C,R_DATA2*%
X314570000Y-102970000D03*
X314570000Y-104970000D03*
%TD*%
D23*
%TO.C,C_DECOUP3*%
X333250000Y-110857500D03*
X333250000Y-109722500D03*
%TD*%
D11*
%TO.C,D41*%
X325281250Y-124475000D03*
X327181250Y-124475000D03*
X326231250Y-126350000D03*
%TD*%
%TO.C,D13*%
X126050000Y-144318750D03*
X127950000Y-144318750D03*
X127000000Y-146193750D03*
%TD*%
%TO.C,D31*%
X237968750Y-67325000D03*
X239868750Y-67325000D03*
X238918750Y-69200000D03*
%TD*%
%TO.C,D27*%
X214156250Y-105425000D03*
X216056250Y-105425000D03*
X215106250Y-107300000D03*
%TD*%
D24*
%TO.C,F1*%
X321300000Y-42312500D03*
X321300000Y-44187500D03*
%TD*%
D14*
%TO.C,D7*%
X89693750Y-126268750D03*
X89693750Y-122968750D03*
%TD*%
D11*
%TO.C,D16*%
X133193750Y-86375000D03*
X135093750Y-86375000D03*
X134143750Y-88250000D03*
%TD*%
D25*
%TO.C,C_DECOUP2*%
X319100000Y-109450000D03*
X319100000Y-111525000D03*
%TD*%
D11*
%TO.C,D45*%
X337950000Y-143052500D03*
X339850000Y-143052500D03*
X338900000Y-144927500D03*
%TD*%
%TO.C,D38*%
X289562500Y-144318750D03*
X291462500Y-144318750D03*
X290512500Y-146193750D03*
%TD*%
D26*
%TO.C,Y1*%
X332420000Y-105700000D03*
X331571472Y-104851472D03*
X330722944Y-104002944D03*
%TD*%
D27*
%TO.C,U1*%
X327819239Y-112138478D03*
X325980761Y-112138478D03*
X325061522Y-111219239D03*
X326900000Y-113057716D03*
X328738478Y-109380761D03*
X326900000Y-107542284D03*
X325061522Y-109380761D03*
X324142284Y-110300000D03*
X329657716Y-110300000D03*
X326900000Y-111219239D03*
X325980761Y-110300000D03*
X327819239Y-108461522D03*
X325980761Y-108461522D03*
X328738478Y-111219239D03*
X326900000Y-109380761D03*
X327819239Y-110300000D03*
D28*
X322772264Y-109707798D03*
X323125818Y-109354245D03*
X323479371Y-109000691D03*
X323832924Y-108647138D03*
X324186478Y-108293585D03*
X324540031Y-107940031D03*
X324893585Y-107586478D03*
X325247138Y-107232924D03*
X325600691Y-106879371D03*
X325954245Y-106525818D03*
X326307798Y-106172264D03*
D29*
X327492202Y-106172264D03*
X327845755Y-106525818D03*
X328199309Y-106879371D03*
X328552862Y-107232924D03*
X328906415Y-107586478D03*
X329259969Y-107940031D03*
X329613522Y-108293585D03*
X329967076Y-108647138D03*
X330320629Y-109000691D03*
X330674182Y-109354245D03*
X331027736Y-109707798D03*
D28*
X331027736Y-110892202D03*
X330674182Y-111245755D03*
X330320629Y-111599309D03*
X329967076Y-111952862D03*
X329613522Y-112306415D03*
X329259969Y-112659969D03*
X328906415Y-113013522D03*
X328552862Y-113367076D03*
X328199309Y-113720629D03*
X327845755Y-114074182D03*
X327492202Y-114427736D03*
D29*
X326307798Y-114427736D03*
X325954245Y-114074182D03*
X325600691Y-113720629D03*
X325247138Y-113367076D03*
X324893585Y-113013522D03*
X324540031Y-112659969D03*
X324186478Y-112306415D03*
X323832924Y-111952862D03*
X323479371Y-111599309D03*
X323125818Y-111245755D03*
X322772264Y-110892202D03*
%TD*%
D11*
%TO.C,D9*%
X85568750Y-67325000D03*
X87468750Y-67325000D03*
X86518750Y-69200000D03*
%TD*%
%TO.C,D37*%
X286387500Y-107012500D03*
X288287500Y-107012500D03*
X287337500Y-108887500D03*
%TD*%
%TO.C,D28*%
X211775000Y-44306250D03*
X213675000Y-44306250D03*
X212725000Y-46181250D03*
%TD*%
%TO.C,D19*%
X147481250Y-124475000D03*
X149381250Y-124475000D03*
X148431250Y-126350000D03*
%TD*%
%TO.C,D21*%
X161768750Y-67325000D03*
X163668750Y-67325000D03*
X162718750Y-69200000D03*
%TD*%
%TO.C,D20*%
X171293750Y-43512500D03*
X173193750Y-43512500D03*
X172243750Y-45387500D03*
%TD*%
%TO.C,D44*%
X337981250Y-86375000D03*
X339881250Y-86375000D03*
X338931250Y-88250000D03*
%TD*%
%TO.C,D23*%
X176056250Y-105425000D03*
X177956250Y-105425000D03*
X177006250Y-107300000D03*
%TD*%
%TO.C,D40*%
X292737500Y-44306250D03*
X294637500Y-44306250D03*
X293687500Y-46181250D03*
%TD*%
%TO.C,D14*%
X130812500Y-44306250D03*
X132712500Y-44306250D03*
X131762500Y-46181250D03*
%TD*%
%TO.C,D10*%
X95093750Y-86375000D03*
X96993750Y-86375000D03*
X96043750Y-88250000D03*
%TD*%
%TO.C,D25*%
X199868750Y-67325000D03*
X201768750Y-67325000D03*
X200818750Y-69200000D03*
%TD*%
M02*
