M48
; DRILL file {KiCad (6.0.6)} date Sun Mar  5 15:32:39 2023
; FORMAT={-:-/ absolute / metric / decimal}
; #@! TF.CreationDate,2023-03-05T15:32:39+02:00
; #@! TF.GenerationSoftware,Kicad,Pcbnew,(6.0.6)
; #@! TF.FileFunction,Plated,1,2,PTH
FMAT,2
METRIC
; #@! TA.AperFunction,Plated,PTH,ViaDrill
T1C0.300
; #@! TA.AperFunction,Plated,PTH,ViaDrill
T2C0.400
; #@! TA.AperFunction,Plated,PTH,ComponentDrill
T3C0.600
; #@! TA.AperFunction,Plated,PTH,ComponentDrill
T4C1.000
; #@! TA.AperFunction,Plated,PTH,ComponentDrill
T5C1.040
; #@! TA.AperFunction,Plated,PTH,ComponentDrill
T6C1.400
; #@! TA.AperFunction,Plated,PTH,ComponentDrill
T7C1.500
; #@! TA.AperFunction,Plated,PTH,ComponentDrill
T8C1.600
; #@! TA.AperFunction,Plated,PTH,ComponentDrill
T9C1.700
; #@! TA.AperFunction,Plated,PTH,ComponentDrill
T10C4.000
%
G90
G05
T1
X342.5Y-100.77
T2
X37.98Y-56.83
X60.37Y-56.1
X71.71Y-42.59
X77.22Y-58.31
X87.52Y-148.78
X88.72Y-69.58
X91.01Y-71.48
X92.75Y-46.945
X94.15Y-48.395
X97.3Y-147.31
X98.37Y-89.395
X98.62Y-55.41
X99.73Y-90.844
X103.5Y-109.125
X104.97Y-110.575
X105.51Y-129.87
X107.21Y-128.15
X109.93Y-142.07
X110.81Y-40.41
X114.08Y-128.465
X115.52Y-129.915
X117.95Y-55.13
X118.81Y-149.08
X129.98Y-149.61
X137.77Y-54.63
X153.01Y-42.12
X157.91Y-71.489
X159.15Y-55.65
X160.42Y-69.56
X165.21Y-69.49
X167.04Y-71.489
X168.08Y-90.934
X168.87Y-48.404
X169.6Y-89.486
X170.5Y-46.9
X172.74Y-149.45
X172.75Y-110.605
X173.82Y-46.956
X174.16Y-109.155
X174.65Y-89.486
X175.19Y-48.404
X176.21Y-90.934
X179.14Y-54.92
X180.14Y-109.155
X181.3Y-130.005
X181.58Y-110.605
X182.71Y-128.555
X188.08Y-150.54
X190.69Y-128.555
X191.86Y-43.2
X192.19Y-130.005
X196.75Y-54.195
X200.82Y-147.09
X212.73Y-53.466
X215.56Y-147.54
X219.81Y-135.75
X221.97Y-133.61
X223.219Y-54.191
X225.83Y-150.02
X228.42Y-45.54
X234.61Y-71.549
X234.74Y-149.1
X236.63Y-69.47
X239.05Y-145.16
X241.22Y-69.49
X241.73Y-123.6
X241.794Y-53.466
X243.14Y-71.549
X243.96Y-126.0
X244.26Y-122.73
X244.86Y-90.934
X245.14Y-145.21
X246.15Y-89.486
X246.21Y-140.92
X248.68Y-149.14
X249.45Y-146.73
X249.62Y-110.674
X249.98Y-113.11
X250.52Y-48.404
X250.81Y-89.486
X250.98Y-109.225
X251.85Y-46.956
X252.26Y-90.934
X254.77Y-46.956
X256.15Y-48.404
X260.66Y-52.742
X261.435Y-130.034
X263.15Y-128.38
X270.43Y-112.15
X271.36Y-44.81
X277.03Y-113.12
X287.04Y-140.45
X288.39Y-113.05
X291.22Y-69.33
X291.27Y-113.906
X291.55Y-149.35
X293.16Y-126.7
X293.86Y-140.96
X294.713Y-114.193
X295.407Y-113.468
X297.43Y-116.53
X298.15Y-44.49
X298.7Y-125.75
X302.5Y-126.98
X303.588Y-52.742
X304.45Y-130.18
X305.16Y-35.64
X307.42Y-102.51
X312.33Y-50.7
X312.88Y-33.94
X313.24Y-62.64
X313.28Y-65.46
X314.27Y-90.06
X314.85Y-71.76
X315.239Y-56.396
X315.273Y-54.915
X315.29Y-48.43
X315.321Y-53.466
X315.61Y-89.274
X315.79Y-57.23
X315.81Y-71.06
X315.95Y-55.65
X316.01Y-54.191
X316.039Y-52.742
X316.06Y-36.93
X316.12Y-47.67
X316.12Y-96.29
X316.3Y-67.39
X316.3Y-88.55
X316.42Y-43.89
X318.13Y-116.56
X318.4Y-148.64
X318.47Y-113.13
X318.47Y-114.2
X318.56Y-35.31
X318.7Y-62.59
X318.859Y-117.244
X319.16Y-146.99
X319.35Y-106.62
X319.48Y-96.29
X320.274Y-116.854
X320.9Y-67.18
X321.17Y-117.59
X321.17Y-130.96
X321.216Y-104.511
X321.65Y-110.11
X321.7Y-71.06
X321.7Y-88.5
X321.79Y-99.71
X321.92Y-105.63
X322.2Y-63.89
X322.22Y-47.67
X322.46Y-34.01
X322.53Y-128.07
X322.58Y-55.671
X322.6Y-57.25
X322.627Y-54.191
X322.67Y-52.742
X322.724Y-71.095
X323.01Y-98.53
X323.01Y-101.26
X323.16Y-103.45
X323.17Y-48.395
X323.19Y-94.63
X323.289Y-56.526
X323.367Y-55.054
X323.37Y-53.466
X323.734Y-100.57
X323.89Y-116.66
X324.046Y-98.518
X324.459Y-101.3
X324.87Y-129.7
X324.96Y-117.12
X325.045Y-98.546
X325.208Y-100.638
X325.21Y-149.04
X325.36Y-92.69
X326.11Y-98.71
X326.14Y-120.11
X326.21Y-90.09
X326.66Y-101.5
X326.81Y-103.12
X327.61Y-100.79
X328.0Y-129.69
X328.45Y-116.65
X328.67Y-100.1
X329.34Y-126.38
X330.1Y-102.3
X330.16Y-94.02
X330.798Y-117.349
X331.447Y-55.055
X331.5Y-56.526
X331.516Y-53.466
X331.74Y-117.0
X331.96Y-103.91
X332.01Y-91.84
X332.17Y-55.783
X332.178Y-54.331
X332.191Y-52.729
X332.24Y-57.25
X333.1Y-45.8
X333.2Y-99.4
X333.33Y-102.93
X334.34Y-110.51
X334.79Y-89.27
X335.219Y-109.68
X335.65Y-146.2
X336.04Y-94.62
X336.86Y-48.395
X337.035Y-94.71
X337.91Y-46.945
X338.034Y-94.75
X338.24Y-91.96
X339.033Y-94.791
X340.032Y-94.778
X341.032Y-94.78
X341.25Y-146.17
X342.031Y-94.78
X343.58Y-92.99
X343.72Y-75.33
X344.38Y-97.61
X344.85Y-94.41
X345.25Y-108.144
X348.33Y-75.43
X353.23Y-148.22
X353.95Y-91.35
X354.18Y-70.85
X354.26Y-50.93
X354.64Y-99.44
X355.5Y-59.79
X355.538Y-99.879
X356.499Y-59.756
X356.52Y-99.45
X357.48Y-99.87
X357.5Y-73.37
X358.25Y-89.31
X358.271Y-99.259
X358.974Y-91.1
X359.111Y-99.8
X360.061Y-91.298
X363.2Y-91.8
X364.31Y-108.144
T4
X347.65Y-93.18
X347.65Y-95.72
X350.19Y-93.18
X350.19Y-95.72
X352.73Y-93.18
X352.73Y-95.72
X373.6Y-102.265
X373.6Y-104.805
X373.6Y-107.345
T5
X37.624Y-47.942
X40.005Y-109.855
X40.164Y-47.942
X42.545Y-109.855
X44.767Y-109.855
X47.307Y-109.855
X347.186Y-47.942
X349.726Y-47.942
T10
X96.0Y-94.6
X191.3Y-94.6
X267.5Y-94.6
X364.4Y-96.4
T3
G00X313.22Y-26.637
M15
G01X313.22Y-27.237
M16
G05
G00X313.22Y-30.567
M15
G01X313.22Y-31.667
M16
G05
G00X321.86Y-26.637
M15
G01X321.86Y-27.237
M16
G05
G00X321.86Y-30.567
M15
G01X321.86Y-31.667
M16
G05
T6
G00X35.096Y-40.307
M15
G01X36.392Y-38.918
M16
G05
G00X39.858Y-83.17
M15
G01X41.154Y-81.78
M16
G05
G00X39.858Y-140.32
M15
G01X41.154Y-138.93
M16
G05
G00X42.24Y-102.22
M15
G01X43.535Y-100.83
M16
G05
G00X87.483Y-140.32
M15
G01X88.779Y-138.93
M16
G05
G00X249.408Y-140.32
M15
G01X250.704Y-138.93
M16
G05
G00X275.602Y-121.27
M15
G01X276.898Y-119.88
M16
G05
G00X297.033Y-83.17
M15
G01X298.329Y-81.78
M16
G05
G00X297.033Y-140.32
M15
G01X298.329Y-138.93
M16
G05
G00X344.658Y-40.307
M15
G01X345.954Y-38.918
M16
G05
T7
G00X35.012Y-64.156
M15
G01X36.376Y-62.694
M16
G05
G00X37.511Y-121.233
M15
G01X38.739Y-119.917
M16
G05
G00X37.511Y-140.283
M15
G01X38.739Y-138.967
M16
G05
G00X54.062Y-64.156
M15
G01X55.426Y-62.694
M16
G05
G00X58.798Y-121.306
M15
G01X60.162Y-119.844
M16
G05
G00X58.824Y-40.344
M15
G01X60.188Y-38.881
M16
G05
G00X61.324Y-140.283
M15
G01X62.551Y-138.967
M16
G05
G00X63.587Y-83.206
M15
G01X64.951Y-81.744
M16
G05
G00X63.587Y-140.356
M15
G01X64.951Y-138.894
M16
G05
G00X68.349Y-102.256
M15
G01X69.713Y-100.794
M16
G05
G00X73.112Y-64.156
M15
G01X74.476Y-62.694
M16
G05
G00X77.874Y-40.344
M15
G01X79.238Y-38.881
M16
G05
G00X77.874Y-121.306
M15
G01X79.238Y-119.844
M16
G05
G00X82.637Y-83.206
M15
G01X84.001Y-81.744
M16
G05
G00X85.136Y-140.283
M15
G01X86.364Y-138.967
M16
G05
G00X87.399Y-102.256
M15
G01X88.763Y-100.794
M16
G05
G00X92.162Y-64.156
M15
G01X93.526Y-62.694
M16
G05
G00X96.924Y-40.344
M15
G01X98.288Y-38.881
M16
G05
G00X96.924Y-121.306
M15
G01X98.288Y-119.844
M16
G05
G00X101.687Y-83.206
M15
G01X103.051Y-81.744
M16
G05
G00X106.449Y-102.256
M15
G01X107.813Y-100.794
M16
G05
G00X111.212Y-64.156
M15
G01X112.576Y-62.694
M16
G05
G00X115.974Y-40.344
M15
G01X117.338Y-38.881
M16
G05
G00X115.974Y-121.306
M15
G01X117.338Y-119.844
M16
G05
G00X120.737Y-83.206
M15
G01X122.101Y-81.744
M16
G05
G00X125.499Y-102.256
M15
G01X126.863Y-100.794
M16
G05
G00X130.262Y-64.156
M15
G01X131.626Y-62.694
M16
G05
G00X135.024Y-121.306
M15
G01X136.388Y-119.844
M16
G05
G00X139.787Y-40.344
M15
G01X141.151Y-38.881
M16
G05
G00X139.787Y-83.206
M15
G01X141.151Y-81.744
M16
G05
G00X144.549Y-102.256
M15
G01X145.913Y-100.794
M16
G05
G00X149.312Y-64.156
M15
G01X150.676Y-62.694
M16
G05
G00X154.074Y-121.306
M15
G01X155.438Y-119.844
M16
G05
G00X158.837Y-40.344
M15
G01X160.201Y-38.881
M16
G05
G00X158.837Y-83.206
M15
G01X160.201Y-81.744
M16
G05
G00X163.599Y-102.256
M15
G01X164.963Y-100.794
M16
G05
G00X168.362Y-64.156
M15
G01X169.726Y-62.694
M16
G05
G00X173.124Y-121.306
M15
G01X174.488Y-119.844
M16
G05
G00X177.887Y-40.344
M15
G01X179.251Y-38.881
M16
G05
G00X177.887Y-83.206
M15
G01X179.251Y-81.744
M16
G05
G00X182.649Y-102.256
M15
G01X184.013Y-100.794
M16
G05
G00X187.412Y-64.156
M15
G01X188.776Y-62.694
M16
G05
G00X192.174Y-121.306
M15
G01X193.538Y-119.844
M16
G05
G00X196.937Y-40.344
M15
G01X198.301Y-38.881
M16
G05
G00X196.937Y-83.206
M15
G01X198.301Y-81.744
M16
G05
G00X201.699Y-102.256
M15
G01X203.063Y-100.794
M16
G05
G00X206.462Y-64.156
M15
G01X207.826Y-62.694
M16
G05
G00X211.224Y-121.306
M15
G01X212.588Y-119.844
M16
G05
G00X215.987Y-83.206
M15
G01X217.351Y-81.744
M16
G05
G00X220.749Y-40.344
M15
G01X222.113Y-38.881
M16
G05
G00X220.749Y-102.256
M15
G01X222.113Y-100.794
M16
G05
G00X225.512Y-64.156
M15
G01X226.876Y-62.694
M16
G05
G00X228.011Y-140.283
M15
G01X229.239Y-138.967
M16
G05
G00X230.274Y-121.306
M15
G01X231.638Y-119.844
M16
G05
G00X235.037Y-83.206
M15
G01X236.401Y-81.744
M16
G05
G00X239.799Y-40.344
M15
G01X241.163Y-38.881
M16
G05
G00X239.799Y-102.256
M15
G01X241.163Y-100.794
M16
G05
G00X244.562Y-64.156
M15
G01X245.926Y-62.694
M16
G05
G00X249.324Y-121.306
M15
G01X250.688Y-119.844
M16
G05
G00X251.824Y-140.283
M15
G01X253.051Y-138.967
M16
G05
G00X254.087Y-83.206
M15
G01X255.451Y-81.744
M16
G05
G00X258.849Y-40.344
M15
G01X260.213Y-38.881
M16
G05
G00X258.849Y-102.256
M15
G01X260.213Y-100.794
M16
G05
G00X263.612Y-64.156
M15
G01X264.976Y-62.694
M16
G05
G00X273.137Y-83.206
M15
G01X274.501Y-81.744
M16
G05
G00X273.137Y-140.356
M15
G01X274.501Y-138.894
M16
G05
G00X275.636Y-140.283
M15
G01X276.864Y-138.967
M16
G05
G00X277.899Y-40.344
M15
G01X279.263Y-38.881
M16
G05
G00X277.899Y-102.256
M15
G01X279.263Y-100.794
M16
G05
G00X282.662Y-64.156
M15
G01X284.026Y-62.694
M16
G05
G00X299.449Y-140.283
M15
G01X300.676Y-138.967
M16
G05
G00X301.712Y-40.344
M15
G01X303.076Y-38.881
M16
G05
G00X301.712Y-64.156
M15
G01X303.076Y-62.694
M16
G05
G00X301.712Y-121.306
M15
G01X303.076Y-119.844
M16
G05
G00X325.524Y-40.344
M15
G01X326.888Y-38.881
M16
G05
G00X325.524Y-64.156
M15
G01X326.888Y-62.694
M16
G05
G00X325.524Y-83.206
M15
G01X326.888Y-81.744
M16
G05
G00X325.524Y-140.356
M15
G01X326.888Y-138.894
M16
G05
G00X344.574Y-64.156
M15
G01X345.938Y-62.694
M16
G05
G00X344.574Y-83.206
M15
G01X345.938Y-81.744
M16
G05
G00X344.574Y-121.306
M15
G01X345.938Y-119.844
M16
G05
G00X344.574Y-140.356
M15
G01X345.938Y-138.894
M16
G05
G00X363.624Y-40.344
M15
G01X364.988Y-38.881
M16
G05
G00X363.624Y-64.156
M15
G01X364.988Y-62.694
M16
G05
G00X363.624Y-83.206
M15
G01X364.988Y-81.744
M16
G05
G00X363.624Y-140.356
M15
G01X364.988Y-138.894
M16
G05
T8
G00X37.545Y-102.122
M15
G01X38.705Y-100.878
M16
G05
G00X41.435Y-62.125
M15
G01X41.452Y-61.625
M16
G05
G00X43.79Y-100.2
M15
G01X43.81Y-99.8
M16
G05
G00X43.815Y-119.175
M15
G01X43.835Y-118.775
M16
G05
G00X43.815Y-138.225
M15
G01X43.835Y-137.825
M16
G05
G00X47.07Y-121.197
M15
G01X48.23Y-119.953
M16
G05
G00X48.527Y-100.175
M15
G01X48.548Y-99.775
M16
G05
G00X53.29Y-119.225
M15
G01X53.31Y-118.825
M16
G05
G00X60.485Y-62.125
M15
G01X60.502Y-61.625
M16
G05
G00X65.221Y-119.275
M15
G01X65.239Y-118.775
M16
G05
G00X65.248Y-38.312
M15
G01X65.265Y-37.813
M16
G05
G00X67.627Y-138.225
M15
G01X67.648Y-137.825
M16
G05
G00X70.01Y-81.175
M15
G01X70.027Y-80.675
M16
G05
G00X70.01Y-138.325
M15
G01X70.027Y-137.825
M16
G05
G00X74.773Y-100.225
M15
G01X74.79Y-99.725
M16
G05
G00X79.535Y-62.125
M15
G01X79.552Y-61.625
M16
G05
G00X84.298Y-38.312
M15
G01X84.315Y-37.813
M16
G05
G00X84.298Y-119.275
M15
G01X84.315Y-118.775
M16
G05
G00X89.06Y-81.175
M15
G01X89.077Y-80.675
M16
G05
G00X91.44Y-138.225
M15
G01X91.46Y-137.825
M16
G05
G00X93.823Y-100.225
M15
G01X93.84Y-99.725
M16
G05
G00X98.585Y-62.125
M15
G01X98.602Y-61.625
M16
G05
G00X103.348Y-38.312
M15
G01X103.365Y-37.813
M16
G05
G00X103.348Y-119.275
M15
G01X103.365Y-118.775
M16
G05
G00X108.11Y-81.175
M15
G01X108.127Y-80.675
M16
G05
G00X112.873Y-100.225
M15
G01X112.89Y-99.725
M16
G05
G00X117.635Y-62.125
M15
G01X117.652Y-61.625
M16
G05
G00X122.398Y-38.312
M15
G01X122.415Y-37.813
M16
G05
G00X122.398Y-119.275
M15
G01X122.415Y-118.775
M16
G05
G00X127.16Y-81.175
M15
G01X127.177Y-80.675
M16
G05
G00X131.923Y-100.225
M15
G01X131.94Y-99.725
M16
G05
G00X136.685Y-62.125
M15
G01X136.702Y-61.625
M16
G05
G00X141.448Y-119.275
M15
G01X141.465Y-118.775
M16
G05
G00X146.21Y-38.312
M15
G01X146.227Y-37.813
M16
G05
G00X146.21Y-81.175
M15
G01X146.227Y-80.675
M16
G05
G00X150.973Y-100.225
M15
G01X150.99Y-99.725
M16
G05
G00X155.735Y-62.125
M15
G01X155.752Y-61.625
M16
G05
G00X156.608Y-140.247
M15
G01X157.767Y-139.003
M16
G05
G00X160.498Y-119.275
M15
G01X160.515Y-118.775
M16
G05
G00X162.877Y-138.275
M15
G01X162.898Y-137.875
M16
G05
G00X165.26Y-38.312
M15
G01X165.277Y-37.813
M16
G05
G00X165.26Y-81.175
M15
G01X165.277Y-80.675
M16
G05
G00X168.514Y-140.247
M15
G01X169.673Y-139.003
M16
G05
G00X170.023Y-100.225
M15
G01X170.04Y-99.725
M16
G05
G00X174.733Y-138.275
M15
G01X174.754Y-137.875
M16
G05
G00X174.785Y-62.125
M15
G01X174.802Y-61.625
M16
G05
G00X179.548Y-119.275
M15
G01X179.565Y-118.775
M16
G05
G00X184.31Y-38.312
M15
G01X184.327Y-37.813
M16
G05
G00X184.31Y-81.175
M15
G01X184.327Y-80.675
M16
G05
G00X189.073Y-100.225
M15
G01X189.09Y-99.725
M16
G05
G00X193.835Y-62.125
M15
G01X193.852Y-61.625
M16
G05
G00X198.598Y-119.275
M15
G01X198.615Y-118.775
M16
G05
G00X203.36Y-38.312
M15
G01X203.377Y-37.813
M16
G05
G00X203.36Y-81.175
M15
G01X203.377Y-80.675
M16
G05
G00X208.123Y-100.225
M15
G01X208.14Y-99.725
M16
G05
G00X212.885Y-62.125
M15
G01X212.902Y-61.625
M16
G05
G00X217.648Y-119.275
M15
G01X217.665Y-118.775
M16
G05
G00X222.41Y-81.175
M15
G01X222.427Y-80.675
M16
G05
G00X227.173Y-38.312
M15
G01X227.19Y-37.813
M16
G05
G00X227.173Y-100.225
M15
G01X227.19Y-99.725
M16
G05
G00X231.935Y-62.125
M15
G01X231.952Y-61.625
M16
G05
G00X234.315Y-138.225
M15
G01X234.335Y-137.825
M16
G05
G00X236.698Y-119.275
M15
G01X236.715Y-118.775
M16
G05
G00X241.46Y-81.175
M15
G01X241.477Y-80.675
M16
G05
G00X246.223Y-38.312
M15
G01X246.24Y-37.813
M16
G05
G00X246.223Y-100.225
M15
G01X246.24Y-99.725
M16
G05
G00X250.985Y-62.125
M15
G01X251.002Y-61.625
M16
G05
G00X255.748Y-119.275
M15
G01X255.765Y-118.775
M16
G05
G00X258.127Y-138.225
M15
G01X258.148Y-137.825
M16
G05
G00X260.51Y-81.175
M15
G01X260.527Y-80.675
M16
G05
G00X265.273Y-38.312
M15
G01X265.29Y-37.813
M16
G05
G00X265.273Y-100.225
M15
G01X265.29Y-99.725
M16
G05
G00X270.035Y-62.125
M15
G01X270.052Y-61.625
M16
G05
G00X279.56Y-81.175
M15
G01X279.577Y-80.675
M16
G05
G00X279.56Y-138.325
M15
G01X279.577Y-137.825
M16
G05
G00X281.89Y-119.225
M15
G01X281.91Y-118.825
M16
G05
G00X281.94Y-138.225
M15
G01X281.96Y-137.825
M16
G05
G00X284.323Y-38.312
M15
G01X284.34Y-37.813
M16
G05
G00X284.323Y-100.225
M15
G01X284.34Y-99.725
M16
G05
G00X285.195Y-121.147
M15
G01X286.355Y-119.903
M16
G05
G00X289.085Y-62.125
M15
G01X289.102Y-61.625
M16
G05
G00X289.958Y-102.147
M15
G01X291.117Y-100.903
M16
G05
G00X291.415Y-119.225
M15
G01X291.435Y-118.825
M16
G05
G00X292.339Y-64.047
M15
G01X293.498Y-62.803
M16
G05
G00X296.227Y-100.175
M15
G01X296.248Y-99.775
M16
G05
G00X298.558Y-62.075
M15
G01X298.579Y-61.675
M16
G05
G00X305.752Y-138.225
M15
G01X305.773Y-137.825
M16
G05
G00X305.831Y-91.531
M15
G01X307.094Y-92.669
M16
G05
G00X307.813Y-97.74
M15
G01X308.212Y-97.76
M16
G05
G00X308.135Y-38.312
M15
G01X308.152Y-37.813
M16
G05
G00X308.135Y-62.125
M15
G01X308.152Y-61.625
M16
G05
G00X308.135Y-119.275
M15
G01X308.152Y-118.775
M16
G05
G00X331.948Y-38.312
M15
G01X331.965Y-37.813
M16
G05
G00X331.948Y-62.125
M15
G01X331.965Y-61.625
M16
G05
G00X331.948Y-81.175
M15
G01X331.965Y-80.675
M16
G05
G00X331.948Y-138.325
M15
G01X331.965Y-137.825
M16
G05
G00X350.998Y-62.125
M15
G01X351.015Y-61.625
M16
G05
G00X350.998Y-81.175
M15
G01X351.015Y-80.675
M16
G05
G00X350.998Y-119.275
M15
G01X351.015Y-118.775
M16
G05
G00X350.998Y-138.325
M15
G01X351.015Y-137.825
M16
G05
G00X370.048Y-38.312
M15
G01X370.065Y-37.813
M16
G05
G00X370.048Y-62.125
M15
G01X370.065Y-61.625
M16
G05
G00X370.048Y-81.175
M15
G01X370.065Y-80.675
M16
G05
G00X370.048Y-138.325
M15
G01X370.065Y-137.825
M16
G05
T9
G00X41.381Y-38.312
M15
G01X41.407Y-37.813
M16
G05
G00X46.193Y-81.175
M15
G01X46.219Y-80.675
M16
G05
G00X46.193Y-138.325
M15
G01X46.219Y-137.825
M16
G05
G00X93.818Y-138.325
M15
G01X93.844Y-137.825
M16
G05
G00X255.743Y-138.325
M15
G01X255.769Y-137.825
M16
G05
G00X303.368Y-81.175
M15
G01X303.394Y-80.675
M16
G05
G00X303.368Y-138.325
M15
G01X303.394Y-137.825
M16
G05
G00X350.943Y-38.312
M15
G01X350.969Y-37.813
M16
G05
T0
M30
