%TF.GenerationSoftware,KiCad,Pcbnew,(6.0.6)*%
%TF.CreationDate,2023-03-05T15:32:32+02:00*%
%TF.ProjectId,UniversalTKL,556e6976-6572-4736-916c-544b4c2e6b69,rev?*%
%TF.SameCoordinates,Original*%
%TF.FileFunction,Soldermask,Top*%
%TF.FilePolarity,Negative*%
%FSLAX46Y46*%
G04 Gerber Fmt 4.6, Leading zero omitted, Abs format (unit mm)*
G04 Created by KiCad (PCBNEW (6.0.6)) date 2023-03-05 15:32:32*
%MOMM*%
%LPD*%
G01*
G04 APERTURE LIST*
G04 Aperture macros list*
%AMRoundRect*
0 Rectangle with rounded corners*
0 $1 Rounding radius*
0 $2 $3 $4 $5 $6 $7 $8 $9 X,Y pos of 4 corners*
0 Add a 4 corners polygon primitive as box body*
4,1,4,$2,$3,$4,$5,$6,$7,$8,$9,$2,$3,0*
0 Add four circle primitives for the rounded corners*
1,1,$1+$1,$2,$3*
1,1,$1+$1,$4,$5*
1,1,$1+$1,$6,$7*
1,1,$1+$1,$8,$9*
0 Add four rect primitives between the rounded corners*
20,1,$1+$1,$2,$3,$4,$5,0*
20,1,$1+$1,$4,$5,$6,$7,0*
20,1,$1+$1,$6,$7,$8,$9,0*
20,1,$1+$1,$8,$9,$2,$3,0*%
%AMHorizOval*
0 Thick line with rounded ends*
0 $1 width*
0 $2 $3 position (X,Y) of the first rounded end (center of the circle)*
0 $4 $5 position (X,Y) of the second rounded end (center of the circle)*
0 Add line between two ends*
20,1,$1,$2,$3,$4,$5,0*
0 Add two circle primitives to create the rounded ends*
1,1,$1,$2,$3*
1,1,$1,$4,$5*%
G04 Aperture macros list end*
%ADD10C,3.987800*%
%ADD11C,1.750000*%
%ADD12HorizOval,2.300000X0.681998X0.731354X-0.681998X-0.731354X0*%
%ADD13HorizOval,2.300000X0.008725X0.249848X-0.008725X-0.249848X0*%
%ADD14RoundRect,0.250000X0.350000X0.450000X-0.350000X0.450000X-0.350000X-0.450000X0.350000X-0.450000X0*%
%ADD15HorizOval,2.300000X0.647898X0.694786X-0.647898X-0.694786X0*%
%ADD16HorizOval,2.300000X0.015701X0.299589X-0.015701X-0.299589X0*%
%ADD17C,6.000000*%
%ADD18C,3.048000*%
%ADD19RoundRect,0.250000X-0.350000X-0.450000X0.350000X-0.450000X0.350000X0.450000X-0.350000X0.450000X0*%
%ADD20HorizOval,2.200000X0.681998X0.731354X-0.681998X-0.731354X0*%
%ADD21R,1.700000X1.000000*%
%ADD22R,1.700000X1.700000*%
%ADD23O,1.700000X1.700000*%
%ADD24C,1.701800*%
%ADD25HorizOval,2.300000X0.299589X-0.015701X-0.299589X0.015701X0*%
%ADD26HorizOval,2.300000X0.705988X-0.635674X-0.705988X0.635674X0*%
%ADD27C,0.750000*%
%ADD28O,1.100000X2.200000*%
%ADD29O,1.100000X1.700000*%
G04 APERTURE END LIST*
D10*
%TO.C,MX14*%
X72231250Y-104775000D03*
D11*
X77311250Y-104775000D03*
X67151250Y-104775000D03*
D12*
X69031250Y-101525000D03*
D13*
X74781250Y-99975000D03*
%TD*%
D14*
%TO.C,R_USB2*%
X323670000Y-36110000D03*
X321670000Y-36110000D03*
%TD*%
D10*
%TO.C,MX62*%
X224631250Y-42862500D03*
D11*
X229711250Y-42862500D03*
X219551250Y-42862500D03*
D12*
X221431250Y-39612500D03*
D13*
X227181250Y-38062500D03*
%TD*%
D11*
%TO.C,MX60*%
X236855000Y-142875000D03*
X226695000Y-142875000D03*
D10*
X231775000Y-142875000D03*
D15*
X228625000Y-139625000D03*
D16*
X234325000Y-138025000D03*
%TD*%
D10*
%TO.C,MX94*%
X329406250Y-142875000D03*
D11*
X334486250Y-142875000D03*
X324326250Y-142875000D03*
D12*
X326206250Y-139625000D03*
D13*
X331956250Y-138075000D03*
%TD*%
D10*
%TO.C,MX75*%
X267493750Y-66675000D03*
D11*
X272573750Y-66675000D03*
X262413750Y-66675000D03*
D12*
X264293750Y-63425000D03*
D13*
X270043750Y-61875000D03*
%TD*%
D10*
%TO.C,MX85*%
X305593750Y-123825000D03*
D11*
X300513750Y-123825000D03*
X310673750Y-123825000D03*
D12*
X302393750Y-120575000D03*
D13*
X308143750Y-119025000D03*
%TD*%
D17*
%TO.C,*%
X364400000Y-96400000D03*
%TD*%
%TO.C,*%
X96000000Y-94600000D03*
%TD*%
D10*
%TO.C,MX49*%
X186531250Y-104775000D03*
D11*
X181451250Y-104775000D03*
X191611250Y-104775000D03*
D12*
X183331250Y-101525000D03*
D13*
X189081250Y-99975000D03*
%TD*%
D11*
%TO.C,MX27*%
X105251250Y-104775000D03*
D10*
X110331250Y-104775000D03*
D11*
X115411250Y-104775000D03*
D12*
X107131250Y-101525000D03*
D13*
X112881250Y-99975000D03*
%TD*%
D10*
%TO.C,MX74*%
X262731250Y-42862500D03*
D11*
X267811250Y-42862500D03*
X257651250Y-42862500D03*
D12*
X259531250Y-39612500D03*
D13*
X265281250Y-38062500D03*
%TD*%
D11*
%TO.C,MX16*%
X72548750Y-142875000D03*
X62388750Y-142875000D03*
D10*
X67468750Y-142875000D03*
D12*
X64268750Y-139625000D03*
D13*
X70018750Y-138075000D03*
%TD*%
D11*
%TO.C,MX2*%
X36195000Y-123825000D03*
D10*
X41275000Y-123825000D03*
D11*
X46355000Y-123825000D03*
D15*
X38125000Y-120575000D03*
D16*
X43825000Y-118975000D03*
%TD*%
D10*
%TO.C,MX104*%
X288925000Y-123825000D03*
X276987000Y-132080000D03*
D18*
X276987000Y-116840000D03*
D10*
X300863000Y-132080000D03*
D11*
X294005000Y-123825000D03*
D18*
X300863000Y-116840000D03*
D11*
X283845000Y-123825000D03*
D15*
X285775000Y-120525000D03*
D16*
X291425000Y-119025000D03*
%TD*%
D17*
%TO.C,*%
X267500000Y-94600000D03*
%TD*%
D11*
%TO.C,MX20*%
X81438750Y-85725000D03*
X91598750Y-85725000D03*
D10*
X86518750Y-85725000D03*
D12*
X83318750Y-82475000D03*
D13*
X89068750Y-80925000D03*
%TD*%
D11*
%TO.C,MX33*%
X114776250Y-123825000D03*
X124936250Y-123825000D03*
D10*
X119856250Y-123825000D03*
D12*
X116656250Y-120575000D03*
D13*
X122406250Y-119025000D03*
%TD*%
D10*
%TO.C,MX48*%
X181768750Y-85725000D03*
D11*
X176688750Y-85725000D03*
X186848750Y-85725000D03*
D12*
X178568750Y-82475000D03*
D13*
X184318750Y-80925000D03*
%TD*%
D11*
%TO.C,MX31*%
X119538750Y-85725000D03*
X129698750Y-85725000D03*
D10*
X124618750Y-85725000D03*
D12*
X121418750Y-82475000D03*
D13*
X127168750Y-80925000D03*
%TD*%
D19*
%TO.C,R_USB1*%
X311490000Y-36450000D03*
X313490000Y-36450000D03*
%TD*%
D18*
%TO.C,MX45*%
X229393750Y-149860000D03*
D10*
X229393750Y-134620000D03*
X115093750Y-134620000D03*
X172243750Y-142875000D03*
D11*
X167163750Y-142875000D03*
D18*
X115093750Y-149860000D03*
D11*
X177323750Y-142875000D03*
D15*
X169093750Y-139625000D03*
D16*
X174743750Y-138075000D03*
%TD*%
D11*
%TO.C,MX73*%
X274320000Y-142875000D03*
X284480000Y-142875000D03*
D10*
X279400000Y-142875000D03*
D15*
X276250000Y-139625000D03*
D16*
X281950000Y-138025000D03*
%TD*%
D11*
%TO.C,MX84*%
X298767500Y-104775000D03*
D18*
X305625500Y-111760000D03*
X281749500Y-111760000D03*
D10*
X293687500Y-104775000D03*
D11*
X288607500Y-104775000D03*
D10*
X281749500Y-96520000D03*
X305625500Y-96520000D03*
D15*
X290537500Y-101525000D03*
D16*
X296237500Y-99975000D03*
%TD*%
D11*
%TO.C,MX91*%
X324326250Y-42862500D03*
X334486250Y-42862500D03*
D10*
X329406250Y-42862500D03*
D12*
X326206250Y-39612500D03*
D13*
X331956250Y-38062500D03*
%TD*%
D10*
%TO.C,MX11*%
X62706250Y-42862500D03*
D11*
X57626250Y-42862500D03*
X67786250Y-42862500D03*
D12*
X59506250Y-39612500D03*
D13*
X65256250Y-38062500D03*
%TD*%
D11*
%TO.C,MX22*%
X86836250Y-123825000D03*
D10*
X81756250Y-123825000D03*
D11*
X76676250Y-123825000D03*
D12*
X78556250Y-120575000D03*
D13*
X84306250Y-119025000D03*
%TD*%
D11*
%TO.C,MX51*%
X205898750Y-42862500D03*
X195738750Y-42862500D03*
D10*
X200818750Y-42862500D03*
D12*
X197618750Y-39612500D03*
D13*
X203368750Y-38062500D03*
%TD*%
D11*
%TO.C,MX3*%
X36195000Y-142875000D03*
X46355000Y-142875000D03*
D10*
X41275000Y-142875000D03*
D15*
X38125000Y-139625000D03*
D16*
X43825000Y-138025000D03*
%TD*%
D11*
%TO.C,MX54*%
X200501250Y-104775000D03*
D10*
X205581250Y-104775000D03*
D11*
X210661250Y-104775000D03*
D12*
X202381250Y-101525000D03*
D13*
X208131250Y-99975000D03*
%TD*%
D10*
%TO.C,MX43*%
X167481250Y-104775000D03*
D11*
X162401250Y-104775000D03*
X172561250Y-104775000D03*
D12*
X164281250Y-101525000D03*
D13*
X170031250Y-99975000D03*
%TD*%
D11*
%TO.C,MX30*%
X120173750Y-66675000D03*
X110013750Y-66675000D03*
D10*
X115093750Y-66675000D03*
D12*
X111893750Y-63425000D03*
D13*
X117643750Y-61875000D03*
%TD*%
D11*
%TO.C,MX65*%
X248761250Y-104775000D03*
X238601250Y-104775000D03*
D10*
X243681250Y-104775000D03*
D12*
X240481250Y-101525000D03*
D13*
X246231250Y-99975000D03*
%TD*%
D11*
%TO.C,MX35*%
X129063750Y-66675000D03*
D10*
X134143750Y-66675000D03*
D11*
X139223750Y-66675000D03*
D12*
X130943750Y-63425000D03*
D13*
X136693750Y-61875000D03*
%TD*%
D10*
%TO.C,MX79*%
X277018750Y-142875000D03*
D11*
X271938750Y-142875000D03*
X282098750Y-142875000D03*
D12*
X273818750Y-139625000D03*
D13*
X279568750Y-138075000D03*
%TD*%
D17*
%TO.C,*%
X191300000Y-94600000D03*
%TD*%
D10*
%TO.C,MX102*%
X367506250Y-85725000D03*
D11*
X372586250Y-85725000D03*
X362426250Y-85725000D03*
D12*
X364306250Y-82475000D03*
D13*
X370056250Y-80925000D03*
%TD*%
D11*
%TO.C,MX6*%
X48736250Y-85725000D03*
D10*
X43656250Y-85725000D03*
D11*
X38576250Y-85725000D03*
D20*
X40506250Y-82475000D03*
D16*
X46206250Y-80925000D03*
%TD*%
D11*
%TO.C,MX10*%
X70167500Y-142875000D03*
X60007500Y-142875000D03*
D10*
X65087500Y-142875000D03*
D15*
X61937500Y-139625000D03*
D16*
X67637500Y-138025000D03*
%TD*%
D11*
%TO.C,MX95*%
X353536250Y-42862500D03*
D10*
X348456250Y-42862500D03*
D11*
X343376250Y-42862500D03*
D20*
X345306250Y-39612500D03*
D16*
X350956250Y-38062500D03*
%TD*%
D10*
%TO.C,MX89*%
X308006750Y-74930000D03*
D18*
X284130750Y-59690000D03*
X308006750Y-59690000D03*
D11*
X301148750Y-66675000D03*
D10*
X296068750Y-66675000D03*
D11*
X290988750Y-66675000D03*
D10*
X284130750Y-74930000D03*
D15*
X292918750Y-63425000D03*
D16*
X298568750Y-61875000D03*
%TD*%
D10*
%TO.C,MX25*%
X96043750Y-66675000D03*
D11*
X101123750Y-66675000D03*
X90963750Y-66675000D03*
D12*
X92843750Y-63425000D03*
D13*
X98593750Y-61875000D03*
%TD*%
D11*
%TO.C,MX82*%
X276701250Y-42862500D03*
X286861250Y-42862500D03*
D10*
X281781250Y-42862500D03*
D12*
X278581250Y-39612500D03*
D13*
X284331250Y-38062500D03*
%TD*%
D10*
%TO.C,MX18*%
X81756250Y-42862500D03*
D11*
X86836250Y-42862500D03*
X76676250Y-42862500D03*
D12*
X78556250Y-39612500D03*
D13*
X84306250Y-38062500D03*
%TD*%
D11*
%TO.C,MX68*%
X248761250Y-42862500D03*
D10*
X243681250Y-42862500D03*
D11*
X238601250Y-42862500D03*
D12*
X240481250Y-39612500D03*
D13*
X246231250Y-38062500D03*
%TD*%
D10*
%TO.C,MX77*%
X281781250Y-104775000D03*
D11*
X276701250Y-104775000D03*
X286861250Y-104775000D03*
D12*
X278581250Y-101525000D03*
D13*
X284331250Y-99975000D03*
%TD*%
D11*
%TO.C,MX46*%
X176688750Y-42862500D03*
D10*
X181768750Y-42862500D03*
D11*
X186848750Y-42862500D03*
D12*
X178568750Y-39612500D03*
D13*
X184318750Y-38062500D03*
%TD*%
D10*
%TO.C,MX26*%
X105568750Y-85725000D03*
D11*
X100488750Y-85725000D03*
X110648750Y-85725000D03*
D12*
X102368750Y-82475000D03*
D13*
X108118750Y-80925000D03*
%TD*%
D10*
%TO.C,MX19*%
X76993750Y-66675000D03*
D11*
X71913750Y-66675000D03*
X82073750Y-66675000D03*
D12*
X73793750Y-63425000D03*
D13*
X79543750Y-61875000D03*
%TD*%
D11*
%TO.C,MX8*%
X55880000Y-123825000D03*
D10*
X50800000Y-123825000D03*
D18*
X38862000Y-116840000D03*
D10*
X38862000Y-132080000D03*
D18*
X62738000Y-116840000D03*
D11*
X45720000Y-123825000D03*
D10*
X62738000Y-132080000D03*
D15*
X47650000Y-120575000D03*
D16*
X53300000Y-119025000D03*
%TD*%
D11*
%TO.C,MX36*%
X148748750Y-85725000D03*
X138588750Y-85725000D03*
D10*
X143668750Y-85725000D03*
D12*
X140468750Y-82475000D03*
D13*
X146218750Y-80925000D03*
%TD*%
D11*
%TO.C,MX42*%
X157638750Y-85725000D03*
X167798750Y-85725000D03*
D10*
X162718750Y-85725000D03*
D12*
X159518750Y-82475000D03*
D13*
X165268750Y-80925000D03*
%TD*%
D11*
%TO.C,MX83*%
X281463750Y-66675000D03*
X291623750Y-66675000D03*
D10*
X286543750Y-66675000D03*
D12*
X283343750Y-63425000D03*
D13*
X289093750Y-61875000D03*
%TD*%
D11*
%TO.C,MX23*%
X96361250Y-142875000D03*
D10*
X91281250Y-142875000D03*
D11*
X86201250Y-142875000D03*
D20*
X88131250Y-139625000D03*
D16*
X93831250Y-138075000D03*
%TD*%
D21*
%TO.C,J1*%
X189790000Y-144130000D03*
X196090000Y-144130000D03*
X196090000Y-140330000D03*
X189790000Y-140330000D03*
%TD*%
D11*
%TO.C,MX38*%
X133826250Y-123825000D03*
X143986250Y-123825000D03*
D10*
X138906250Y-123825000D03*
D12*
X135706250Y-120575000D03*
D13*
X141456250Y-119025000D03*
%TD*%
D11*
%TO.C,MX1*%
X36195000Y-104775000D03*
D10*
X41275000Y-104775000D03*
D11*
X46355000Y-104775000D03*
D15*
X38125000Y-101500000D03*
D16*
X43800000Y-100000000D03*
%TD*%
D22*
%TO.C,J4*%
X347650000Y-95720000D03*
D23*
X347650000Y-93180000D03*
X350190000Y-95720000D03*
X350190000Y-93180000D03*
X352730000Y-95720000D03*
X352730000Y-93180000D03*
%TD*%
D11*
%TO.C,MX29*%
X124936250Y-42862500D03*
X114776250Y-42862500D03*
D10*
X119856250Y-42862500D03*
D12*
X116656250Y-39612500D03*
D13*
X122406250Y-38062500D03*
%TD*%
D10*
%TO.C,MX34*%
X143668750Y-42862500D03*
D11*
X138588750Y-42862500D03*
X148748750Y-42862500D03*
D12*
X140468750Y-39612500D03*
D13*
X146218750Y-38062500D03*
%TD*%
D11*
%TO.C,MX100*%
X372586250Y-42862500D03*
D10*
X367506250Y-42862500D03*
D11*
X362426250Y-42862500D03*
D12*
X364306250Y-39612500D03*
D13*
X370056250Y-38062500D03*
%TD*%
D11*
%TO.C,MX64*%
X243998750Y-85725000D03*
D10*
X238918750Y-85725000D03*
D11*
X233838750Y-85725000D03*
D12*
X235718750Y-82475000D03*
D13*
X241468750Y-80925000D03*
%TD*%
D11*
%TO.C,MX90*%
X305911250Y-85725000D03*
X295751250Y-85725000D03*
D10*
X300831250Y-85725000D03*
D20*
X297681250Y-82475000D03*
D16*
X303381250Y-80925000D03*
%TD*%
D10*
%TO.C,MX28*%
X100806250Y-123825000D03*
D11*
X95726250Y-123825000D03*
X105886250Y-123825000D03*
D12*
X97606250Y-120575000D03*
D13*
X103356250Y-119025000D03*
%TD*%
D11*
%TO.C,MX57*%
X224948750Y-85725000D03*
D10*
X219868750Y-85725000D03*
D11*
X214788750Y-85725000D03*
D12*
X216668750Y-82475000D03*
D13*
X222418750Y-80925000D03*
%TD*%
D11*
%TO.C,MX61*%
X260667500Y-142875000D03*
D10*
X255587500Y-142875000D03*
D11*
X250507500Y-142875000D03*
D15*
X252437500Y-139625000D03*
D16*
X258137500Y-138025000D03*
%TD*%
D10*
%TO.C,MX32*%
X129381250Y-104775000D03*
D11*
X134461250Y-104775000D03*
X124301250Y-104775000D03*
D12*
X126181250Y-101525000D03*
D13*
X131931250Y-99975000D03*
%TD*%
D22*
%TO.C,J2*%
X373600000Y-102265000D03*
D23*
X373600000Y-104805000D03*
X373600000Y-107345000D03*
%TD*%
D10*
%TO.C,MX5*%
X38893750Y-66675000D03*
D11*
X43973750Y-66675000D03*
X33813750Y-66675000D03*
D12*
X35693750Y-63425000D03*
D13*
X41443750Y-61875000D03*
%TD*%
D11*
%TO.C,MX12*%
X52863750Y-66675000D03*
D10*
X57943750Y-66675000D03*
D11*
X63023750Y-66675000D03*
D12*
X54743750Y-63425000D03*
D13*
X60493750Y-61875000D03*
%TD*%
D18*
%TO.C,MX39*%
X210337400Y-149860000D03*
D10*
X160337500Y-142875000D03*
D11*
X155257500Y-142875000D03*
D18*
X110337600Y-149860000D03*
D11*
X165417500Y-142875000D03*
D10*
X210337400Y-134620000D03*
X110337600Y-134620000D03*
D15*
X157187500Y-139625000D03*
D16*
X162887500Y-138075000D03*
%TD*%
D11*
%TO.C,MX50*%
X182086250Y-123825000D03*
D10*
X177006250Y-123825000D03*
D11*
X171926250Y-123825000D03*
D12*
X173806250Y-120575000D03*
D13*
X179556250Y-119025000D03*
%TD*%
D11*
%TO.C,MX17*%
X83820000Y-142875000D03*
X93980000Y-142875000D03*
D10*
X88900000Y-142875000D03*
D15*
X85750000Y-139625000D03*
D16*
X91450000Y-138025000D03*
%TD*%
D11*
%TO.C,MX81*%
X298132500Y-142875000D03*
X308292500Y-142875000D03*
D10*
X303212500Y-142875000D03*
D15*
X300062500Y-139625000D03*
D16*
X305762500Y-138025000D03*
%TD*%
D11*
%TO.C,MX97*%
X343376250Y-85725000D03*
D10*
X348456250Y-85725000D03*
D11*
X353536250Y-85725000D03*
D12*
X345256250Y-82475000D03*
D13*
X351006250Y-80925000D03*
%TD*%
D11*
%TO.C,MX21*%
X86201250Y-104775000D03*
D10*
X91281250Y-104775000D03*
D11*
X96361250Y-104775000D03*
D12*
X88081250Y-101525000D03*
D13*
X93831250Y-99975000D03*
%TD*%
D10*
%TO.C,MX53*%
X200818750Y-85725000D03*
D11*
X205898750Y-85725000D03*
X195738750Y-85725000D03*
D12*
X197618750Y-82475000D03*
D13*
X203368750Y-80925000D03*
%TD*%
D11*
%TO.C,MX44*%
X163036250Y-123825000D03*
D10*
X157956250Y-123825000D03*
D11*
X152876250Y-123825000D03*
D12*
X154756250Y-120575000D03*
D13*
X160506250Y-119025000D03*
%TD*%
D11*
%TO.C,MX24*%
X105886250Y-42862500D03*
D10*
X100806250Y-42862500D03*
D11*
X95726250Y-42862500D03*
D12*
X97606250Y-39612500D03*
D13*
X103356250Y-38062500D03*
%TD*%
D10*
%TO.C,MX72*%
X253206250Y-123825000D03*
D11*
X258286250Y-123825000D03*
X248126250Y-123825000D03*
D12*
X250006250Y-120575000D03*
D13*
X255756250Y-119025000D03*
%TD*%
D11*
%TO.C,MX37*%
X143351250Y-104775000D03*
X153511250Y-104775000D03*
D10*
X148431250Y-104775000D03*
D12*
X145231250Y-101525000D03*
D13*
X150981250Y-99975000D03*
%TD*%
D10*
%TO.C,MX52*%
X191293750Y-66675000D03*
D11*
X186213750Y-66675000D03*
X196373750Y-66675000D03*
D12*
X188093750Y-63425000D03*
D13*
X193843750Y-61875000D03*
%TD*%
D10*
%TO.C,MX9*%
X43656250Y-142875000D03*
D11*
X48736250Y-142875000D03*
X38576250Y-142875000D03*
D20*
X40506250Y-139625000D03*
D16*
X46206250Y-138075000D03*
%TD*%
D11*
%TO.C,MX4*%
X33813750Y-42862500D03*
D10*
X38893750Y-42862500D03*
D11*
X43973750Y-42862500D03*
D20*
X35743750Y-39612500D03*
D16*
X41393750Y-38062500D03*
%TD*%
D11*
%TO.C,MX93*%
X324326250Y-85725000D03*
D10*
X329406250Y-85725000D03*
D11*
X334486250Y-85725000D03*
D12*
X326206250Y-82475000D03*
D13*
X331956250Y-80925000D03*
%TD*%
D11*
%TO.C,MX96*%
X343376250Y-66675000D03*
D10*
X348456250Y-66675000D03*
D11*
X353536250Y-66675000D03*
D12*
X345256250Y-63425000D03*
D13*
X351006250Y-61875000D03*
%TD*%
D18*
%TO.C,MX80*%
X310197500Y-83312000D03*
D24*
X303212500Y-100330000D03*
X303212500Y-90170000D03*
D10*
X294957500Y-107188000D03*
X303212500Y-95250000D03*
D18*
X310197500Y-107188000D03*
D10*
X294957500Y-83312000D03*
D25*
X308012500Y-97750000D03*
D26*
X306462500Y-92100000D03*
%TD*%
D11*
%TO.C,MX92*%
X324326250Y-66675000D03*
D10*
X329406250Y-66675000D03*
D11*
X334486250Y-66675000D03*
D12*
X326206250Y-63425000D03*
D13*
X331956250Y-61875000D03*
%TD*%
D10*
%TO.C,MX71*%
X262731250Y-104775000D03*
D11*
X267811250Y-104775000D03*
X257651250Y-104775000D03*
D12*
X259531250Y-101525000D03*
D13*
X265281250Y-99975000D03*
%TD*%
D11*
%TO.C,MX70*%
X263048750Y-85725000D03*
X252888750Y-85725000D03*
D10*
X257968750Y-85725000D03*
D12*
X254768750Y-82475000D03*
D13*
X260518750Y-80925000D03*
%TD*%
D10*
%TO.C,MX103*%
X367506250Y-142875000D03*
D11*
X372586250Y-142875000D03*
X362426250Y-142875000D03*
D12*
X364306250Y-139625000D03*
D13*
X370056250Y-138075000D03*
%TD*%
D11*
%TO.C,MX56*%
X215423750Y-66675000D03*
D10*
X210343750Y-66675000D03*
D11*
X205263750Y-66675000D03*
D12*
X207143750Y-63425000D03*
D13*
X212893750Y-61875000D03*
%TD*%
D11*
%TO.C,MX88*%
X300513750Y-42862500D03*
X310673750Y-42862500D03*
D10*
X305593750Y-42862500D03*
D12*
X302393750Y-39612500D03*
D13*
X308143750Y-38062500D03*
%TD*%
D11*
%TO.C,MX40*%
X167798750Y-42862500D03*
D10*
X162718750Y-42862500D03*
D11*
X157638750Y-42862500D03*
D12*
X159518750Y-39612500D03*
D13*
X165268750Y-38062500D03*
%TD*%
D11*
%TO.C,MX7*%
X51117500Y-104775000D03*
D10*
X46037500Y-104775000D03*
D11*
X40957500Y-104775000D03*
D20*
X42887500Y-101525000D03*
D16*
X48537500Y-99975000D03*
%TD*%
D10*
%TO.C,MX99*%
X348456250Y-142875000D03*
D11*
X343376250Y-142875000D03*
X353536250Y-142875000D03*
D12*
X345256250Y-139625000D03*
D13*
X351006250Y-138075000D03*
%TD*%
D11*
%TO.C,MX86*%
X295751250Y-142875000D03*
D10*
X300831250Y-142875000D03*
D11*
X305911250Y-142875000D03*
D20*
X297681250Y-139625000D03*
D16*
X303381250Y-138075000D03*
%TD*%
D11*
%TO.C,MX67*%
X248126250Y-142875000D03*
X258286250Y-142875000D03*
D10*
X253206250Y-142875000D03*
D20*
X250056250Y-139625000D03*
D16*
X255756250Y-138075000D03*
%TD*%
D11*
%TO.C,MX87*%
X310673750Y-66675000D03*
D10*
X305593750Y-66675000D03*
D11*
X300513750Y-66675000D03*
D12*
X302393750Y-63425000D03*
D13*
X308143750Y-61875000D03*
%TD*%
D11*
%TO.C,MX59*%
X210026250Y-123825000D03*
D10*
X215106250Y-123825000D03*
D11*
X220186250Y-123825000D03*
D12*
X211906250Y-120575000D03*
D13*
X217656250Y-119025000D03*
%TD*%
D10*
%TO.C,MX58*%
X224631250Y-104775000D03*
D11*
X219551250Y-104775000D03*
X229711250Y-104775000D03*
D12*
X221431250Y-101525000D03*
D13*
X227181250Y-99975000D03*
%TD*%
D10*
%TO.C,MX78*%
X279400000Y-123825000D03*
D11*
X284480000Y-123825000D03*
X274320000Y-123825000D03*
D20*
X276250000Y-120575000D03*
D16*
X281900000Y-119025000D03*
%TD*%
D10*
%TO.C,MX13*%
X67468750Y-85725000D03*
D11*
X62388750Y-85725000D03*
X72548750Y-85725000D03*
D12*
X64268750Y-82475000D03*
D13*
X70018750Y-80925000D03*
%TD*%
D11*
%TO.C,MX98*%
X343376250Y-123825000D03*
X353536250Y-123825000D03*
D10*
X348456250Y-123825000D03*
D12*
X345256250Y-120575000D03*
D13*
X351006250Y-119025000D03*
%TD*%
D10*
%TO.C,MX15*%
X62680000Y-123825000D03*
D11*
X57600000Y-123825000D03*
X67760000Y-123825000D03*
D12*
X59480000Y-120575000D03*
D13*
X65230000Y-119025000D03*
%TD*%
D11*
%TO.C,MX63*%
X234473750Y-66675000D03*
X224313750Y-66675000D03*
D10*
X229393750Y-66675000D03*
D12*
X226193750Y-63425000D03*
D13*
X231943750Y-61875000D03*
%TD*%
D11*
%TO.C,MX66*%
X229076250Y-123825000D03*
X239236250Y-123825000D03*
D10*
X234156250Y-123825000D03*
D12*
X230956250Y-120575000D03*
D13*
X236706250Y-119025000D03*
%TD*%
D10*
%TO.C,MX76*%
X277018750Y-85725000D03*
D11*
X282098750Y-85725000D03*
X271938750Y-85725000D03*
D12*
X273818750Y-82475000D03*
D13*
X279568750Y-80925000D03*
%TD*%
D11*
%TO.C,MX47*%
X167163750Y-66675000D03*
D10*
X172243750Y-66675000D03*
D11*
X177323750Y-66675000D03*
D12*
X169043750Y-63425000D03*
D13*
X174793750Y-61875000D03*
%TD*%
D10*
%TO.C,MX101*%
X367506250Y-66675000D03*
D11*
X362426250Y-66675000D03*
X372586250Y-66675000D03*
D12*
X364306250Y-63425000D03*
D13*
X370056250Y-61875000D03*
%TD*%
D11*
%TO.C,MX55*%
X201136250Y-123825000D03*
X190976250Y-123825000D03*
D10*
X196056250Y-123825000D03*
D12*
X192856250Y-120575000D03*
D13*
X198606250Y-119025000D03*
%TD*%
D11*
%TO.C,MX41*%
X158273750Y-66675000D03*
X148113750Y-66675000D03*
D10*
X153193750Y-66675000D03*
D12*
X149993750Y-63425000D03*
D13*
X155743750Y-61875000D03*
%TD*%
D11*
%TO.C,MX69*%
X243363750Y-66675000D03*
D10*
X248443750Y-66675000D03*
D11*
X253523750Y-66675000D03*
D12*
X245243750Y-63425000D03*
D13*
X250993750Y-61875000D03*
%TD*%
D27*
%TO.C,USB1*%
X314650000Y-30587500D03*
X320430000Y-30587500D03*
D28*
X313220000Y-31117500D03*
D29*
X313220000Y-26937500D03*
X321860000Y-26937500D03*
D28*
X321860000Y-31117500D03*
%TD*%
M02*
