M48
; DRILL file {KiCad (6.0.6)} date Sun Mar  5 15:32:39 2023
; FORMAT={-:-/ absolute / metric / decimal}
; #@! TF.CreationDate,2023-03-05T15:32:39+02:00
; #@! TF.GenerationSoftware,Kicad,Pcbnew,(6.0.6)
; #@! TF.FileFunction,NonPlated,1,2,NPTH
FMAT,2
METRIC
; #@! TA.AperFunction,NonPlated,NPTH,ComponentDrill
T1C0.650
; #@! TA.AperFunction,NonPlated,NPTH,ComponentDrill
T2C1.702
; #@! TA.AperFunction,NonPlated,NPTH,ComponentDrill
T3C1.750
; #@! TA.AperFunction,NonPlated,NPTH,ComponentDrill
T4C3.048
; #@! TA.AperFunction,NonPlated,NPTH,ComponentDrill
T5C3.988
%
G90
G05
T1
X314.65Y-30.587
X320.43Y-30.587
T2
X303.212Y-90.17
X303.212Y-100.33
T3
X33.814Y-42.862
X33.814Y-66.675
X36.195Y-104.775
X36.195Y-123.825
X36.195Y-142.875
X38.576Y-85.725
X38.576Y-142.875
X40.957Y-104.775
X43.974Y-42.862
X43.974Y-66.675
X45.72Y-123.825
X46.355Y-104.775
X46.355Y-123.825
X46.355Y-142.875
X48.736Y-85.725
X48.736Y-142.875
X51.117Y-104.775
X52.864Y-66.675
X55.88Y-123.825
X57.6Y-123.825
X57.626Y-42.862
X60.008Y-142.875
X62.389Y-85.725
X62.389Y-142.875
X63.024Y-66.675
X67.151Y-104.775
X67.76Y-123.825
X67.786Y-42.862
X70.167Y-142.875
X71.914Y-66.675
X72.549Y-85.725
X72.549Y-142.875
X76.676Y-42.862
X76.676Y-123.825
X77.311Y-104.775
X81.439Y-85.725
X82.074Y-66.675
X83.82Y-142.875
X86.201Y-104.775
X86.201Y-142.875
X86.836Y-42.862
X86.836Y-123.825
X90.964Y-66.675
X91.599Y-85.725
X93.98Y-142.875
X95.726Y-42.862
X95.726Y-123.825
X96.361Y-104.775
X96.361Y-142.875
X100.489Y-85.725
X101.124Y-66.675
X105.251Y-104.775
X105.886Y-42.862
X105.886Y-123.825
X110.014Y-66.675
X110.649Y-85.725
X114.776Y-42.862
X114.776Y-123.825
X115.411Y-104.775
X119.539Y-85.725
X120.174Y-66.675
X124.301Y-104.775
X124.936Y-42.862
X124.936Y-123.825
X129.064Y-66.675
X129.699Y-85.725
X133.826Y-123.825
X134.461Y-104.775
X138.589Y-42.862
X138.589Y-85.725
X139.224Y-66.675
X143.351Y-104.775
X143.986Y-123.825
X148.114Y-66.675
X148.749Y-42.862
X148.749Y-85.725
X152.876Y-123.825
X153.511Y-104.775
X155.257Y-142.875
X157.639Y-42.862
X157.639Y-85.725
X158.274Y-66.675
X162.401Y-104.775
X163.036Y-123.825
X165.417Y-142.875
X167.164Y-66.675
X167.164Y-142.875
X167.799Y-42.862
X167.799Y-85.725
X171.926Y-123.825
X172.561Y-104.775
X176.689Y-42.862
X176.689Y-85.725
X177.324Y-66.675
X177.324Y-142.875
X181.451Y-104.775
X182.086Y-123.825
X186.214Y-66.675
X186.849Y-42.862
X186.849Y-85.725
X190.976Y-123.825
X191.611Y-104.775
X195.739Y-42.862
X195.739Y-85.725
X196.374Y-66.675
X200.501Y-104.775
X201.136Y-123.825
X205.264Y-66.675
X205.899Y-42.862
X205.899Y-85.725
X210.026Y-123.825
X210.661Y-104.775
X214.789Y-85.725
X215.424Y-66.675
X219.551Y-42.862
X219.551Y-104.775
X220.186Y-123.825
X224.314Y-66.675
X224.949Y-85.725
X226.695Y-142.875
X229.076Y-123.825
X229.711Y-42.862
X229.711Y-104.775
X233.839Y-85.725
X234.474Y-66.675
X236.855Y-142.875
X238.601Y-42.862
X238.601Y-104.775
X239.236Y-123.825
X243.364Y-66.675
X243.999Y-85.725
X248.126Y-123.825
X248.126Y-142.875
X248.761Y-42.862
X248.761Y-104.775
X250.507Y-142.875
X252.889Y-85.725
X253.524Y-66.675
X257.651Y-42.862
X257.651Y-104.775
X258.286Y-123.825
X258.286Y-142.875
X260.667Y-142.875
X262.414Y-66.675
X263.049Y-85.725
X267.811Y-42.862
X267.811Y-104.775
X271.939Y-85.725
X271.939Y-142.875
X272.574Y-66.675
X274.32Y-123.825
X274.32Y-142.875
X276.701Y-42.862
X276.701Y-104.775
X281.464Y-66.675
X282.099Y-85.725
X282.099Y-142.875
X283.845Y-123.825
X284.48Y-123.825
X284.48Y-142.875
X286.861Y-42.862
X286.861Y-104.775
X288.607Y-104.775
X290.989Y-66.675
X291.624Y-66.675
X294.005Y-123.825
X295.751Y-85.725
X295.751Y-142.875
X298.132Y-142.875
X298.767Y-104.775
X300.514Y-42.862
X300.514Y-66.675
X300.514Y-123.825
X301.149Y-66.675
X305.911Y-85.725
X305.911Y-142.875
X308.292Y-142.875
X310.674Y-42.862
X310.674Y-66.675
X310.674Y-123.825
X324.326Y-42.862
X324.326Y-66.675
X324.326Y-85.725
X324.326Y-142.875
X334.486Y-42.862
X334.486Y-66.675
X334.486Y-85.725
X334.486Y-142.875
X343.376Y-42.862
X343.376Y-66.675
X343.376Y-85.725
X343.376Y-123.825
X343.376Y-142.875
X353.536Y-42.862
X353.536Y-66.675
X353.536Y-85.725
X353.536Y-123.825
X353.536Y-142.875
X362.426Y-42.862
X362.426Y-66.675
X362.426Y-85.725
X362.426Y-142.875
X372.586Y-42.862
X372.586Y-66.675
X372.586Y-85.725
X372.586Y-142.875
T4
X38.862Y-116.84
X62.738Y-116.84
X110.338Y-149.86
X115.094Y-149.86
X210.337Y-149.86
X229.394Y-149.86
X276.987Y-116.84
X281.75Y-111.76
X284.131Y-59.69
X300.863Y-116.84
X305.625Y-111.76
X308.007Y-59.69
X310.197Y-83.312
X310.197Y-107.188
T5
X38.862Y-132.08
X38.894Y-42.862
X38.894Y-66.675
X41.275Y-104.775
X41.275Y-123.825
X41.275Y-142.875
X43.656Y-85.725
X43.656Y-142.875
X46.038Y-104.775
X50.8Y-123.825
X57.944Y-66.675
X62.68Y-123.825
X62.706Y-42.862
X62.738Y-132.08
X65.087Y-142.875
X67.469Y-85.725
X67.469Y-142.875
X72.231Y-104.775
X76.994Y-66.675
X81.756Y-42.862
X81.756Y-123.825
X86.519Y-85.725
X88.9Y-142.875
X91.281Y-104.775
X91.281Y-142.875
X96.044Y-66.675
X100.806Y-42.862
X100.806Y-123.825
X105.569Y-85.725
X110.331Y-104.775
X110.338Y-134.62
X115.094Y-66.675
X115.094Y-134.62
X119.856Y-42.862
X119.856Y-123.825
X124.619Y-85.725
X129.381Y-104.775
X134.144Y-66.675
X138.906Y-123.825
X143.669Y-42.862
X143.669Y-85.725
X148.431Y-104.775
X153.194Y-66.675
X157.956Y-123.825
X160.338Y-142.875
X162.719Y-42.862
X162.719Y-85.725
X167.481Y-104.775
X172.244Y-66.675
X172.244Y-142.875
X177.006Y-123.825
X181.769Y-42.862
X181.769Y-85.725
X186.531Y-104.775
X191.294Y-66.675
X196.056Y-123.825
X200.819Y-42.862
X200.819Y-85.725
X205.581Y-104.775
X210.337Y-134.62
X210.344Y-66.675
X215.106Y-123.825
X219.869Y-85.725
X224.631Y-42.862
X224.631Y-104.775
X229.394Y-66.675
X229.394Y-134.62
X231.775Y-142.875
X234.156Y-123.825
X238.919Y-85.725
X243.681Y-42.862
X243.681Y-104.775
X248.444Y-66.675
X253.206Y-123.825
X253.206Y-142.875
X255.587Y-142.875
X257.969Y-85.725
X262.731Y-42.862
X262.731Y-104.775
X267.494Y-66.675
X276.987Y-132.08
X277.019Y-85.725
X277.019Y-142.875
X279.4Y-123.825
X279.4Y-142.875
X281.75Y-96.52
X281.781Y-42.862
X281.781Y-104.775
X284.131Y-74.93
X286.544Y-66.675
X288.925Y-123.825
X293.688Y-104.775
X294.957Y-83.312
X294.957Y-107.188
X296.069Y-66.675
X300.831Y-85.725
X300.831Y-142.875
X300.863Y-132.08
X303.212Y-95.25
X303.212Y-142.875
X305.594Y-42.862
X305.594Y-66.675
X305.594Y-123.825
X305.625Y-96.52
X308.007Y-74.93
X329.406Y-42.862
X329.406Y-66.675
X329.406Y-85.725
X329.406Y-142.875
X348.456Y-42.862
X348.456Y-66.675
X348.456Y-85.725
X348.456Y-123.825
X348.456Y-142.875
X367.506Y-42.862
X367.506Y-66.675
X367.506Y-85.725
X367.506Y-142.875
T0
M30
