%TF.GenerationSoftware,KiCad,Pcbnew,(6.0.6)*%
%TF.CreationDate,2023-03-05T15:32:32+02:00*%
%TF.ProjectId,UniversalTKL,556e6976-6572-4736-916c-544b4c2e6b69,rev?*%
%TF.SameCoordinates,Original*%
%TF.FileFunction,Legend,Bot*%
%TF.FilePolarity,Positive*%
%FSLAX46Y46*%
G04 Gerber Fmt 4.6, Leading zero omitted, Abs format (unit mm)*
G04 Created by KiCad (PCBNEW (6.0.6)) date 2023-03-05 15:32:32*
%MOMM*%
%LPD*%
G01*
G04 APERTURE LIST*
G04 Aperture macros list*
%AMRoundRect*
0 Rectangle with rounded corners*
0 $1 Rounding radius*
0 $2 $3 $4 $5 $6 $7 $8 $9 X,Y pos of 4 corners*
0 Add a 4 corners polygon primitive as box body*
4,1,4,$2,$3,$4,$5,$6,$7,$8,$9,$2,$3,0*
0 Add four circle primitives for the rounded corners*
1,1,$1+$1,$2,$3*
1,1,$1+$1,$4,$5*
1,1,$1+$1,$6,$7*
1,1,$1+$1,$8,$9*
0 Add four rect primitives between the rounded corners*
20,1,$1+$1,$2,$3,$4,$5,0*
20,1,$1+$1,$4,$5,$6,$7,0*
20,1,$1+$1,$6,$7,$8,$9,0*
20,1,$1+$1,$8,$9,$2,$3,0*%
%AMHorizOval*
0 Thick line with rounded ends*
0 $1 width*
0 $2 $3 position (X,Y) of the first rounded end (center of the circle)*
0 $4 $5 position (X,Y) of the second rounded end (center of the circle)*
0 Add line between two ends*
20,1,$1,$2,$3,$4,$5,0*
0 Add two circle primitives to create the rounded ends*
1,1,$1,$2,$3*
1,1,$1,$4,$5*%
%AMRotRect*
0 Rectangle, with rotation*
0 The origin of the aperture is its center*
0 $1 length*
0 $2 width*
0 $3 Rotation angle, in degrees counterclockwise*
0 Add horizontal line*
21,1,$1,$2,0,0,$3*%
G04 Aperture macros list end*
%ADD10C,0.300000*%
%ADD11C,0.100000*%
%ADD12C,0.150000*%
%ADD13C,0.080000*%
%ADD14C,0.070000*%
%ADD15C,0.120000*%
%ADD16C,3.987800*%
%ADD17C,1.750000*%
%ADD18HorizOval,2.300000X0.681998X0.731354X-0.681998X-0.731354X0*%
%ADD19HorizOval,2.300000X0.008725X0.249848X-0.008725X-0.249848X0*%
%ADD20HorizOval,2.300000X0.647898X0.694786X-0.647898X-0.694786X0*%
%ADD21HorizOval,2.300000X0.015701X0.299589X-0.015701X-0.299589X0*%
%ADD22C,6.000000*%
%ADD23C,3.048000*%
%ADD24HorizOval,2.200000X0.681998X0.731354X-0.681998X-0.731354X0*%
%ADD25C,1.905000*%
%ADD26R,1.905000X1.905000*%
%ADD27R,1.700000X1.700000*%
%ADD28O,1.700000X1.700000*%
%ADD29C,1.701800*%
%ADD30HorizOval,2.300000X0.299589X-0.015701X-0.299589X0.015701X0*%
%ADD31HorizOval,2.300000X0.705988X-0.635674X-0.705988X0.635674X0*%
%ADD32RoundRect,0.250000X-0.450000X0.350000X-0.450000X-0.350000X0.450000X-0.350000X0.450000X0.350000X0*%
%ADD33RoundRect,0.150000X-0.150000X0.587500X-0.150000X-0.587500X0.150000X-0.587500X0.150000X0.587500X0*%
%ADD34RoundRect,0.250000X0.350000X0.450000X-0.350000X0.450000X-0.350000X-0.450000X0.350000X-0.450000X0*%
%ADD35RoundRect,0.140000X0.219203X0.021213X0.021213X0.219203X-0.219203X-0.021213X-0.021213X-0.219203X0*%
%ADD36R,1.200000X0.900000*%
%ADD37RoundRect,0.155000X0.212500X0.155000X-0.212500X0.155000X-0.212500X-0.155000X0.212500X-0.155000X0*%
%ADD38RoundRect,0.150000X-0.150000X-0.625000X0.150000X-0.625000X0.150000X0.625000X-0.150000X0.625000X0*%
%ADD39RoundRect,0.250000X-0.350000X-0.650000X0.350000X-0.650000X0.350000X0.650000X-0.350000X0.650000X0*%
%ADD40C,0.750000*%
%ADD41RoundRect,0.050000X-0.300000X-0.725000X0.300000X-0.725000X0.300000X0.725000X-0.300000X0.725000X0*%
%ADD42RoundRect,0.050000X-0.150000X-0.725000X0.150000X-0.725000X0.150000X0.725000X-0.150000X0.725000X0*%
%ADD43O,1.100000X2.200000*%
%ADD44O,1.100000X1.700000*%
%ADD45RoundRect,0.155000X0.040659X0.259862X-0.259862X-0.040659X-0.040659X-0.259862X0.259862X0.040659X0*%
%ADD46R,1.400000X1.200000*%
%ADD47R,1.400000X1.000000*%
%ADD48RoundRect,0.155000X0.155000X-0.212500X0.155000X0.212500X-0.155000X0.212500X-0.155000X-0.212500X0*%
%ADD49RoundRect,0.243750X-0.456250X0.243750X-0.456250X-0.243750X0.456250X-0.243750X0.456250X0.243750X0*%
%ADD50RoundRect,0.250000X-0.475000X0.337500X-0.475000X-0.337500X0.475000X-0.337500X0.475000X0.337500X0*%
%ADD51RotRect,0.400000X1.900000X135.000000*%
%ADD52RoundRect,0.062500X-0.380070X0.291682X0.291682X-0.380070X0.380070X-0.291682X-0.291682X0.380070X0*%
%ADD53RoundRect,0.062500X-0.380070X-0.291682X-0.291682X-0.380070X0.380070X0.291682X0.291682X0.380070X0*%
%ADD54RotRect,5.200000X5.200000X315.000000*%
G04 APERTURE END LIST*
D10*
X321771655Y-109100000D02*
G75*
G03*
X321771655Y-109100000I-121655J0D01*
G01*
D11*
X353110000Y-91173333D02*
X353143333Y-91240000D01*
X353143333Y-91340000D01*
X353110000Y-91440000D01*
X353043333Y-91506666D01*
X352976666Y-91540000D01*
X352843333Y-91573333D01*
X352743333Y-91573333D01*
X352610000Y-91540000D01*
X352543333Y-91506666D01*
X352476666Y-91440000D01*
X352443333Y-91340000D01*
X352443333Y-91273333D01*
X352476666Y-91173333D01*
X352510000Y-91140000D01*
X352743333Y-91140000D01*
X352743333Y-91273333D01*
X352443333Y-90840000D02*
X353143333Y-90840000D01*
X352443333Y-90440000D01*
X353143333Y-90440000D01*
X352443333Y-90106666D02*
X353143333Y-90106666D01*
X353143333Y-89940000D01*
X353110000Y-89840000D01*
X353043333Y-89773333D01*
X352976666Y-89740000D01*
X352843333Y-89706666D01*
X352743333Y-89706666D01*
X352610000Y-89740000D01*
X352543333Y-89773333D01*
X352476666Y-89840000D01*
X352443333Y-89940000D01*
X352443333Y-90106666D01*
%TO.C,R_DATA1*%
X316611428Y-102538571D02*
X316325714Y-102338571D01*
X316611428Y-102195714D02*
X316011428Y-102195714D01*
X316011428Y-102424285D01*
X316040000Y-102481428D01*
X316068571Y-102510000D01*
X316125714Y-102538571D01*
X316211428Y-102538571D01*
X316268571Y-102510000D01*
X316297142Y-102481428D01*
X316325714Y-102424285D01*
X316325714Y-102195714D01*
X316668571Y-102652857D02*
X316668571Y-103110000D01*
X316611428Y-103252857D02*
X316011428Y-103252857D01*
X316011428Y-103395714D01*
X316040000Y-103481428D01*
X316097142Y-103538571D01*
X316154285Y-103567142D01*
X316268571Y-103595714D01*
X316354285Y-103595714D01*
X316468571Y-103567142D01*
X316525714Y-103538571D01*
X316582857Y-103481428D01*
X316611428Y-103395714D01*
X316611428Y-103252857D01*
X316440000Y-103824285D02*
X316440000Y-104110000D01*
X316611428Y-103767142D02*
X316011428Y-103967142D01*
X316611428Y-104167142D01*
X316011428Y-104281428D02*
X316011428Y-104624285D01*
X316611428Y-104452857D02*
X316011428Y-104452857D01*
X316440000Y-104795714D02*
X316440000Y-105081428D01*
X316611428Y-104738571D02*
X316011428Y-104938571D01*
X316611428Y-105138571D01*
X316611428Y-105652857D02*
X316611428Y-105310000D01*
X316611428Y-105481428D02*
X316011428Y-105481428D01*
X316097142Y-105424285D01*
X316154285Y-105367142D01*
X316182857Y-105310000D01*
D12*
%TO.C,D29*%
X240939880Y-144041964D02*
X239939880Y-144041964D01*
X239939880Y-144280059D01*
X239987500Y-144422916D01*
X240082738Y-144518154D01*
X240177976Y-144565773D01*
X240368452Y-144613392D01*
X240511309Y-144613392D01*
X240701785Y-144565773D01*
X240797023Y-144518154D01*
X240892261Y-144422916D01*
X240939880Y-144280059D01*
X240939880Y-144041964D01*
X240035119Y-144994345D02*
X239987500Y-145041964D01*
X239939880Y-145137202D01*
X239939880Y-145375297D01*
X239987500Y-145470535D01*
X240035119Y-145518154D01*
X240130357Y-145565773D01*
X240225595Y-145565773D01*
X240368452Y-145518154D01*
X240939880Y-144946726D01*
X240939880Y-145565773D01*
X240939880Y-146041964D02*
X240939880Y-146232440D01*
X240892261Y-146327678D01*
X240844642Y-146375297D01*
X240701785Y-146470535D01*
X240511309Y-146518154D01*
X240130357Y-146518154D01*
X240035119Y-146470535D01*
X239987500Y-146422916D01*
X239939880Y-146327678D01*
X239939880Y-146137202D01*
X239987500Y-146041964D01*
X240035119Y-145994345D01*
X240130357Y-145946726D01*
X240368452Y-145946726D01*
X240463690Y-145994345D01*
X240511309Y-146041964D01*
X240558928Y-146137202D01*
X240558928Y-146327678D01*
X240511309Y-146422916D01*
X240463690Y-146470535D01*
X240368452Y-146518154D01*
%TO.C,R_INDICATOR3*%
X42520952Y-53356130D02*
X42854285Y-52879940D01*
X43092380Y-53356130D02*
X43092380Y-52356130D01*
X42711428Y-52356130D01*
X42616190Y-52403750D01*
X42568571Y-52451369D01*
X42520952Y-52546607D01*
X42520952Y-52689464D01*
X42568571Y-52784702D01*
X42616190Y-52832321D01*
X42711428Y-52879940D01*
X43092380Y-52879940D01*
X42330476Y-53451369D02*
X41568571Y-53451369D01*
X41330476Y-53356130D02*
X41330476Y-52356130D01*
X40854285Y-53356130D02*
X40854285Y-52356130D01*
X40282857Y-53356130D01*
X40282857Y-52356130D01*
X39806666Y-53356130D02*
X39806666Y-52356130D01*
X39568571Y-52356130D01*
X39425714Y-52403750D01*
X39330476Y-52498988D01*
X39282857Y-52594226D01*
X39235238Y-52784702D01*
X39235238Y-52927559D01*
X39282857Y-53118035D01*
X39330476Y-53213273D01*
X39425714Y-53308511D01*
X39568571Y-53356130D01*
X39806666Y-53356130D01*
X38806666Y-53356130D02*
X38806666Y-52356130D01*
X37759047Y-53260892D02*
X37806666Y-53308511D01*
X37949523Y-53356130D01*
X38044761Y-53356130D01*
X38187619Y-53308511D01*
X38282857Y-53213273D01*
X38330476Y-53118035D01*
X38378095Y-52927559D01*
X38378095Y-52784702D01*
X38330476Y-52594226D01*
X38282857Y-52498988D01*
X38187619Y-52403750D01*
X38044761Y-52356130D01*
X37949523Y-52356130D01*
X37806666Y-52403750D01*
X37759047Y-52451369D01*
X37378095Y-53070416D02*
X36901904Y-53070416D01*
X37473333Y-53356130D02*
X37140000Y-52356130D01*
X36806666Y-53356130D01*
X36616190Y-52356130D02*
X36044761Y-52356130D01*
X36330476Y-53356130D02*
X36330476Y-52356130D01*
X35520952Y-52356130D02*
X35330476Y-52356130D01*
X35235238Y-52403750D01*
X35140000Y-52498988D01*
X35092380Y-52689464D01*
X35092380Y-53022797D01*
X35140000Y-53213273D01*
X35235238Y-53308511D01*
X35330476Y-53356130D01*
X35520952Y-53356130D01*
X35616190Y-53308511D01*
X35711428Y-53213273D01*
X35759047Y-53022797D01*
X35759047Y-52689464D01*
X35711428Y-52498988D01*
X35616190Y-52403750D01*
X35520952Y-52356130D01*
X34092380Y-53356130D02*
X34425714Y-52879940D01*
X34663809Y-53356130D02*
X34663809Y-52356130D01*
X34282857Y-52356130D01*
X34187619Y-52403750D01*
X34140000Y-52451369D01*
X34092380Y-52546607D01*
X34092380Y-52689464D01*
X34140000Y-52784702D01*
X34187619Y-52832321D01*
X34282857Y-52879940D01*
X34663809Y-52879940D01*
X33759047Y-52356130D02*
X33140000Y-52356130D01*
X33473333Y-52737083D01*
X33330476Y-52737083D01*
X33235238Y-52784702D01*
X33187619Y-52832321D01*
X33140000Y-52927559D01*
X33140000Y-53165654D01*
X33187619Y-53260892D01*
X33235238Y-53308511D01*
X33330476Y-53356130D01*
X33616190Y-53356130D01*
X33711428Y-53308511D01*
X33759047Y-53260892D01*
%TO.C,R_INDICATOR2*%
X352043452Y-52302380D02*
X352376785Y-51826190D01*
X352614880Y-52302380D02*
X352614880Y-51302380D01*
X352233928Y-51302380D01*
X352138690Y-51350000D01*
X352091071Y-51397619D01*
X352043452Y-51492857D01*
X352043452Y-51635714D01*
X352091071Y-51730952D01*
X352138690Y-51778571D01*
X352233928Y-51826190D01*
X352614880Y-51826190D01*
X351852976Y-52397619D02*
X351091071Y-52397619D01*
X350852976Y-52302380D02*
X350852976Y-51302380D01*
X350376785Y-52302380D02*
X350376785Y-51302380D01*
X349805357Y-52302380D01*
X349805357Y-51302380D01*
X349329166Y-52302380D02*
X349329166Y-51302380D01*
X349091071Y-51302380D01*
X348948214Y-51350000D01*
X348852976Y-51445238D01*
X348805357Y-51540476D01*
X348757738Y-51730952D01*
X348757738Y-51873809D01*
X348805357Y-52064285D01*
X348852976Y-52159523D01*
X348948214Y-52254761D01*
X349091071Y-52302380D01*
X349329166Y-52302380D01*
X348329166Y-52302380D02*
X348329166Y-51302380D01*
X347281547Y-52207142D02*
X347329166Y-52254761D01*
X347472023Y-52302380D01*
X347567261Y-52302380D01*
X347710119Y-52254761D01*
X347805357Y-52159523D01*
X347852976Y-52064285D01*
X347900595Y-51873809D01*
X347900595Y-51730952D01*
X347852976Y-51540476D01*
X347805357Y-51445238D01*
X347710119Y-51350000D01*
X347567261Y-51302380D01*
X347472023Y-51302380D01*
X347329166Y-51350000D01*
X347281547Y-51397619D01*
X346900595Y-52016666D02*
X346424404Y-52016666D01*
X346995833Y-52302380D02*
X346662500Y-51302380D01*
X346329166Y-52302380D01*
X346138690Y-51302380D02*
X345567261Y-51302380D01*
X345852976Y-52302380D02*
X345852976Y-51302380D01*
X345043452Y-51302380D02*
X344852976Y-51302380D01*
X344757738Y-51350000D01*
X344662500Y-51445238D01*
X344614880Y-51635714D01*
X344614880Y-51969047D01*
X344662500Y-52159523D01*
X344757738Y-52254761D01*
X344852976Y-52302380D01*
X345043452Y-52302380D01*
X345138690Y-52254761D01*
X345233928Y-52159523D01*
X345281547Y-51969047D01*
X345281547Y-51635714D01*
X345233928Y-51445238D01*
X345138690Y-51350000D01*
X345043452Y-51302380D01*
X343614880Y-52302380D02*
X343948214Y-51826190D01*
X344186309Y-52302380D02*
X344186309Y-51302380D01*
X343805357Y-51302380D01*
X343710119Y-51350000D01*
X343662500Y-51397619D01*
X343614880Y-51492857D01*
X343614880Y-51635714D01*
X343662500Y-51730952D01*
X343710119Y-51778571D01*
X343805357Y-51826190D01*
X344186309Y-51826190D01*
X343233928Y-51397619D02*
X343186309Y-51350000D01*
X343091071Y-51302380D01*
X342852976Y-51302380D01*
X342757738Y-51350000D01*
X342710119Y-51397619D01*
X342662500Y-51492857D01*
X342662500Y-51588095D01*
X342710119Y-51730952D01*
X343281547Y-52302380D01*
X342662500Y-52302380D01*
%TO.C,D17*%
X136958630Y-105148214D02*
X135958630Y-105148214D01*
X135958630Y-105386309D01*
X136006250Y-105529166D01*
X136101488Y-105624404D01*
X136196726Y-105672023D01*
X136387202Y-105719642D01*
X136530059Y-105719642D01*
X136720535Y-105672023D01*
X136815773Y-105624404D01*
X136911011Y-105529166D01*
X136958630Y-105386309D01*
X136958630Y-105148214D01*
X136958630Y-106672023D02*
X136958630Y-106100595D01*
X136958630Y-106386309D02*
X135958630Y-106386309D01*
X136101488Y-106291071D01*
X136196726Y-106195833D01*
X136244345Y-106100595D01*
X135958630Y-107005357D02*
X135958630Y-107672023D01*
X136958630Y-107243452D01*
%TO.C,D36*%
X275071130Y-67048214D02*
X274071130Y-67048214D01*
X274071130Y-67286309D01*
X274118750Y-67429166D01*
X274213988Y-67524404D01*
X274309226Y-67572023D01*
X274499702Y-67619642D01*
X274642559Y-67619642D01*
X274833035Y-67572023D01*
X274928273Y-67524404D01*
X275023511Y-67429166D01*
X275071130Y-67286309D01*
X275071130Y-67048214D01*
X274071130Y-67952976D02*
X274071130Y-68572023D01*
X274452083Y-68238690D01*
X274452083Y-68381547D01*
X274499702Y-68476785D01*
X274547321Y-68524404D01*
X274642559Y-68572023D01*
X274880654Y-68572023D01*
X274975892Y-68524404D01*
X275023511Y-68476785D01*
X275071130Y-68381547D01*
X275071130Y-68095833D01*
X275023511Y-68000595D01*
X274975892Y-67952976D01*
X274071130Y-69429166D02*
X274071130Y-69238690D01*
X274118750Y-69143452D01*
X274166369Y-69095833D01*
X274309226Y-69000595D01*
X274499702Y-68952976D01*
X274880654Y-68952976D01*
X274975892Y-69000595D01*
X275023511Y-69048214D01*
X275071130Y-69143452D01*
X275071130Y-69333928D01*
X275023511Y-69429166D01*
X274975892Y-69476785D01*
X274880654Y-69524404D01*
X274642559Y-69524404D01*
X274547321Y-69476785D01*
X274499702Y-69429166D01*
X274452083Y-69333928D01*
X274452083Y-69143452D01*
X274499702Y-69048214D01*
X274547321Y-69000595D01*
X274642559Y-68952976D01*
%TO.C,D30*%
X222683630Y-124198214D02*
X221683630Y-124198214D01*
X221683630Y-124436309D01*
X221731250Y-124579166D01*
X221826488Y-124674404D01*
X221921726Y-124722023D01*
X222112202Y-124769642D01*
X222255059Y-124769642D01*
X222445535Y-124722023D01*
X222540773Y-124674404D01*
X222636011Y-124579166D01*
X222683630Y-124436309D01*
X222683630Y-124198214D01*
X221683630Y-125102976D02*
X221683630Y-125722023D01*
X222064583Y-125388690D01*
X222064583Y-125531547D01*
X222112202Y-125626785D01*
X222159821Y-125674404D01*
X222255059Y-125722023D01*
X222493154Y-125722023D01*
X222588392Y-125674404D01*
X222636011Y-125626785D01*
X222683630Y-125531547D01*
X222683630Y-125245833D01*
X222636011Y-125150595D01*
X222588392Y-125102976D01*
X221683630Y-126341071D02*
X221683630Y-126436309D01*
X221731250Y-126531547D01*
X221778869Y-126579166D01*
X221874107Y-126626785D01*
X222064583Y-126674404D01*
X222302678Y-126674404D01*
X222493154Y-126626785D01*
X222588392Y-126579166D01*
X222636011Y-126531547D01*
X222683630Y-126436309D01*
X222683630Y-126341071D01*
X222636011Y-126245833D01*
X222588392Y-126198214D01*
X222493154Y-126150595D01*
X222302678Y-126102976D01*
X222064583Y-126102976D01*
X221874107Y-126150595D01*
X221778869Y-126198214D01*
X221731250Y-126245833D01*
X221683630Y-126341071D01*
D11*
%TO.C,C_UCAP1*%
X320950862Y-105467815D02*
X320950862Y-105427409D01*
X320910456Y-105346597D01*
X320870050Y-105306191D01*
X320789238Y-105265785D01*
X320708426Y-105265785D01*
X320647816Y-105285988D01*
X320546801Y-105346597D01*
X320486192Y-105407206D01*
X320425583Y-105508222D01*
X320405380Y-105568831D01*
X320405380Y-105649643D01*
X320445786Y-105730455D01*
X320486192Y-105770861D01*
X320567004Y-105811267D01*
X320607410Y-105811267D01*
X321112487Y-105467815D02*
X321435735Y-105791064D01*
X321072081Y-106356750D02*
X321415532Y-106013298D01*
X321476142Y-105993095D01*
X321516548Y-105993095D01*
X321577157Y-106013298D01*
X321657969Y-106094110D01*
X321678172Y-106154719D01*
X321678172Y-106195125D01*
X321657969Y-106255734D01*
X321314517Y-106599186D01*
X322142842Y-106659795D02*
X322142842Y-106619389D01*
X322102436Y-106538577D01*
X322062030Y-106498171D01*
X321981218Y-106457765D01*
X321900406Y-106457765D01*
X321839796Y-106477968D01*
X321738781Y-106538577D01*
X321678172Y-106599186D01*
X321617563Y-106700202D01*
X321597360Y-106760811D01*
X321597360Y-106841623D01*
X321637766Y-106922435D01*
X321678172Y-106962841D01*
X321758984Y-107003247D01*
X321799390Y-107003247D01*
X322223654Y-106902232D02*
X322425685Y-107104263D01*
X322304467Y-106740608D02*
X322021624Y-107306293D01*
X322587309Y-107023450D01*
X322728731Y-107164872D02*
X322304467Y-107589136D01*
X322466091Y-107750760D01*
X322526700Y-107770963D01*
X322567106Y-107770963D01*
X322627715Y-107750760D01*
X322688325Y-107690151D01*
X322708528Y-107629542D01*
X322708528Y-107589136D01*
X322688325Y-107528527D01*
X322526700Y-107366902D01*
X323375228Y-107811369D02*
X323132792Y-107568933D01*
X323254010Y-107690151D02*
X322829746Y-108114415D01*
X322849949Y-108013400D01*
X322849949Y-107932588D01*
X322829746Y-107871979D01*
D12*
%TO.C,D1*%
X52821130Y-144518154D02*
X51821130Y-144518154D01*
X51821130Y-144756250D01*
X51868750Y-144899107D01*
X51963988Y-144994345D01*
X52059226Y-145041964D01*
X52249702Y-145089583D01*
X52392559Y-145089583D01*
X52583035Y-145041964D01*
X52678273Y-144994345D01*
X52773511Y-144899107D01*
X52821130Y-144756250D01*
X52821130Y-144518154D01*
X52821130Y-146041964D02*
X52821130Y-145470535D01*
X52821130Y-145756250D02*
X51821130Y-145756250D01*
X51963988Y-145661011D01*
X52059226Y-145565773D01*
X52106845Y-145470535D01*
%TO.C,D35*%
X251258630Y-43235714D02*
X250258630Y-43235714D01*
X250258630Y-43473809D01*
X250306250Y-43616666D01*
X250401488Y-43711904D01*
X250496726Y-43759523D01*
X250687202Y-43807142D01*
X250830059Y-43807142D01*
X251020535Y-43759523D01*
X251115773Y-43711904D01*
X251211011Y-43616666D01*
X251258630Y-43473809D01*
X251258630Y-43235714D01*
X250258630Y-44140476D02*
X250258630Y-44759523D01*
X250639583Y-44426190D01*
X250639583Y-44569047D01*
X250687202Y-44664285D01*
X250734821Y-44711904D01*
X250830059Y-44759523D01*
X251068154Y-44759523D01*
X251163392Y-44711904D01*
X251211011Y-44664285D01*
X251258630Y-44569047D01*
X251258630Y-44283333D01*
X251211011Y-44188095D01*
X251163392Y-44140476D01*
X250258630Y-45664285D02*
X250258630Y-45188095D01*
X250734821Y-45140476D01*
X250687202Y-45188095D01*
X250639583Y-45283333D01*
X250639583Y-45521428D01*
X250687202Y-45616666D01*
X250734821Y-45664285D01*
X250830059Y-45711904D01*
X251068154Y-45711904D01*
X251163392Y-45664285D01*
X251211011Y-45616666D01*
X251258630Y-45521428D01*
X251258630Y-45283333D01*
X251211011Y-45188095D01*
X251163392Y-45140476D01*
%TO.C,D48*%
X373312380Y-69695714D02*
X372312380Y-69695714D01*
X372312380Y-69933809D01*
X372360000Y-70076666D01*
X372455238Y-70171904D01*
X372550476Y-70219523D01*
X372740952Y-70267142D01*
X372883809Y-70267142D01*
X373074285Y-70219523D01*
X373169523Y-70171904D01*
X373264761Y-70076666D01*
X373312380Y-69933809D01*
X373312380Y-69695714D01*
X372645714Y-71124285D02*
X373312380Y-71124285D01*
X372264761Y-70886190D02*
X372979047Y-70648095D01*
X372979047Y-71267142D01*
X372740952Y-71790952D02*
X372693333Y-71695714D01*
X372645714Y-71648095D01*
X372550476Y-71600476D01*
X372502857Y-71600476D01*
X372407619Y-71648095D01*
X372360000Y-71695714D01*
X372312380Y-71790952D01*
X372312380Y-71981428D01*
X372360000Y-72076666D01*
X372407619Y-72124285D01*
X372502857Y-72171904D01*
X372550476Y-72171904D01*
X372645714Y-72124285D01*
X372693333Y-72076666D01*
X372740952Y-71981428D01*
X372740952Y-71790952D01*
X372788571Y-71695714D01*
X372836190Y-71648095D01*
X372931428Y-71600476D01*
X373121904Y-71600476D01*
X373217142Y-71648095D01*
X373264761Y-71695714D01*
X373312380Y-71790952D01*
X373312380Y-71981428D01*
X373264761Y-72076666D01*
X373217142Y-72124285D01*
X373121904Y-72171904D01*
X372931428Y-72171904D01*
X372836190Y-72124285D01*
X372788571Y-72076666D01*
X372740952Y-71981428D01*
%TO.C,D3*%
X46471130Y-67524404D02*
X45471130Y-67524404D01*
X45471130Y-67762500D01*
X45518750Y-67905357D01*
X45613988Y-68000595D01*
X45709226Y-68048214D01*
X45899702Y-68095833D01*
X46042559Y-68095833D01*
X46233035Y-68048214D01*
X46328273Y-68000595D01*
X46423511Y-67905357D01*
X46471130Y-67762500D01*
X46471130Y-67524404D01*
X45471130Y-68429166D02*
X45471130Y-69048214D01*
X45852083Y-68714880D01*
X45852083Y-68857738D01*
X45899702Y-68952976D01*
X45947321Y-69000595D01*
X46042559Y-69048214D01*
X46280654Y-69048214D01*
X46375892Y-69000595D01*
X46423511Y-68952976D01*
X46471130Y-68857738D01*
X46471130Y-68572023D01*
X46423511Y-68476785D01*
X46375892Y-68429166D01*
%TO.C,D46*%
X354362380Y-70045714D02*
X353362380Y-70045714D01*
X353362380Y-70283809D01*
X353410000Y-70426666D01*
X353505238Y-70521904D01*
X353600476Y-70569523D01*
X353790952Y-70617142D01*
X353933809Y-70617142D01*
X354124285Y-70569523D01*
X354219523Y-70521904D01*
X354314761Y-70426666D01*
X354362380Y-70283809D01*
X354362380Y-70045714D01*
X353695714Y-71474285D02*
X354362380Y-71474285D01*
X353314761Y-71236190D02*
X354029047Y-70998095D01*
X354029047Y-71617142D01*
X353362380Y-72426666D02*
X353362380Y-72236190D01*
X353410000Y-72140952D01*
X353457619Y-72093333D01*
X353600476Y-71998095D01*
X353790952Y-71950476D01*
X354171904Y-71950476D01*
X354267142Y-71998095D01*
X354314761Y-72045714D01*
X354362380Y-72140952D01*
X354362380Y-72331428D01*
X354314761Y-72426666D01*
X354267142Y-72474285D01*
X354171904Y-72521904D01*
X353933809Y-72521904D01*
X353838571Y-72474285D01*
X353790952Y-72426666D01*
X353743333Y-72331428D01*
X353743333Y-72140952D01*
X353790952Y-72045714D01*
X353838571Y-71998095D01*
X353933809Y-71950476D01*
D13*
%TO.C,R_HWB1*%
X327827142Y-118790952D02*
X327960476Y-118600476D01*
X328055714Y-118790952D02*
X328055714Y-118390952D01*
X327903333Y-118390952D01*
X327865238Y-118410000D01*
X327846190Y-118429047D01*
X327827142Y-118467142D01*
X327827142Y-118524285D01*
X327846190Y-118562380D01*
X327865238Y-118581428D01*
X327903333Y-118600476D01*
X328055714Y-118600476D01*
X327750952Y-118829047D02*
X327446190Y-118829047D01*
X327350952Y-118790952D02*
X327350952Y-118390952D01*
X327350952Y-118581428D02*
X327122380Y-118581428D01*
X327122380Y-118790952D02*
X327122380Y-118390952D01*
X326970000Y-118390952D02*
X326874761Y-118790952D01*
X326798571Y-118505238D01*
X326722380Y-118790952D01*
X326627142Y-118390952D01*
X326341428Y-118581428D02*
X326284285Y-118600476D01*
X326265238Y-118619523D01*
X326246190Y-118657619D01*
X326246190Y-118714761D01*
X326265238Y-118752857D01*
X326284285Y-118771904D01*
X326322380Y-118790952D01*
X326474761Y-118790952D01*
X326474761Y-118390952D01*
X326341428Y-118390952D01*
X326303333Y-118410000D01*
X326284285Y-118429047D01*
X326265238Y-118467142D01*
X326265238Y-118505238D01*
X326284285Y-118543333D01*
X326303333Y-118562380D01*
X326341428Y-118581428D01*
X326474761Y-118581428D01*
X325865238Y-118790952D02*
X326093809Y-118790952D01*
X325979523Y-118790952D02*
X325979523Y-118390952D01*
X326017619Y-118448095D01*
X326055714Y-118486190D01*
X326093809Y-118505238D01*
D12*
%TO.C,D2*%
X48852380Y-44505654D02*
X47852380Y-44505654D01*
X47852380Y-44743750D01*
X47900000Y-44886607D01*
X47995238Y-44981845D01*
X48090476Y-45029464D01*
X48280952Y-45077083D01*
X48423809Y-45077083D01*
X48614285Y-45029464D01*
X48709523Y-44981845D01*
X48804761Y-44886607D01*
X48852380Y-44743750D01*
X48852380Y-44505654D01*
X47947619Y-45458035D02*
X47900000Y-45505654D01*
X47852380Y-45600892D01*
X47852380Y-45838988D01*
X47900000Y-45934226D01*
X47947619Y-45981845D01*
X48042857Y-46029464D01*
X48138095Y-46029464D01*
X48280952Y-45981845D01*
X48852380Y-45410416D01*
X48852380Y-46029464D01*
%TO.C,J3*%
X317833333Y-66932380D02*
X317833333Y-67646666D01*
X317880952Y-67789523D01*
X317976190Y-67884761D01*
X318119047Y-67932380D01*
X318214285Y-67932380D01*
X317452380Y-66932380D02*
X316833333Y-66932380D01*
X317166666Y-67313333D01*
X317023809Y-67313333D01*
X316928571Y-67360952D01*
X316880952Y-67408571D01*
X316833333Y-67503809D01*
X316833333Y-67741904D01*
X316880952Y-67837142D01*
X316928571Y-67884761D01*
X317023809Y-67932380D01*
X317309523Y-67932380D01*
X317404761Y-67884761D01*
X317452380Y-67837142D01*
%TO.C,USB1*%
X318930476Y-33149404D02*
X318930476Y-33797023D01*
X318892380Y-33873214D01*
X318854285Y-33911309D01*
X318778095Y-33949404D01*
X318625714Y-33949404D01*
X318549523Y-33911309D01*
X318511428Y-33873214D01*
X318473333Y-33797023D01*
X318473333Y-33149404D01*
X318130476Y-33911309D02*
X318016190Y-33949404D01*
X317825714Y-33949404D01*
X317749523Y-33911309D01*
X317711428Y-33873214D01*
X317673333Y-33797023D01*
X317673333Y-33720833D01*
X317711428Y-33644642D01*
X317749523Y-33606547D01*
X317825714Y-33568452D01*
X317978095Y-33530357D01*
X318054285Y-33492261D01*
X318092380Y-33454166D01*
X318130476Y-33377976D01*
X318130476Y-33301785D01*
X318092380Y-33225595D01*
X318054285Y-33187500D01*
X317978095Y-33149404D01*
X317787619Y-33149404D01*
X317673333Y-33187500D01*
X317063809Y-33530357D02*
X316949523Y-33568452D01*
X316911428Y-33606547D01*
X316873333Y-33682738D01*
X316873333Y-33797023D01*
X316911428Y-33873214D01*
X316949523Y-33911309D01*
X317025714Y-33949404D01*
X317330476Y-33949404D01*
X317330476Y-33149404D01*
X317063809Y-33149404D01*
X316987619Y-33187500D01*
X316949523Y-33225595D01*
X316911428Y-33301785D01*
X316911428Y-33377976D01*
X316949523Y-33454166D01*
X316987619Y-33492261D01*
X317063809Y-33530357D01*
X317330476Y-33530357D01*
X316111428Y-33949404D02*
X316568571Y-33949404D01*
X316340000Y-33949404D02*
X316340000Y-33149404D01*
X316416190Y-33263690D01*
X316492380Y-33339880D01*
X316568571Y-33377976D01*
%TO.C,D49*%
X373092380Y-87595714D02*
X372092380Y-87595714D01*
X372092380Y-87833809D01*
X372140000Y-87976666D01*
X372235238Y-88071904D01*
X372330476Y-88119523D01*
X372520952Y-88167142D01*
X372663809Y-88167142D01*
X372854285Y-88119523D01*
X372949523Y-88071904D01*
X373044761Y-87976666D01*
X373092380Y-87833809D01*
X373092380Y-87595714D01*
X372425714Y-89024285D02*
X373092380Y-89024285D01*
X372044761Y-88786190D02*
X372759047Y-88548095D01*
X372759047Y-89167142D01*
X373092380Y-89595714D02*
X373092380Y-89786190D01*
X373044761Y-89881428D01*
X372997142Y-89929047D01*
X372854285Y-90024285D01*
X372663809Y-90071904D01*
X372282857Y-90071904D01*
X372187619Y-90024285D01*
X372140000Y-89976666D01*
X372092380Y-89881428D01*
X372092380Y-89690952D01*
X372140000Y-89595714D01*
X372187619Y-89548095D01*
X372282857Y-89500476D01*
X372520952Y-89500476D01*
X372616190Y-89548095D01*
X372663809Y-89595714D01*
X372711428Y-89690952D01*
X372711428Y-89881428D01*
X372663809Y-89976666D01*
X372616190Y-90024285D01*
X372520952Y-90071904D01*
%TO.C,D4*%
X52821130Y-86574404D02*
X51821130Y-86574404D01*
X51821130Y-86812500D01*
X51868750Y-86955357D01*
X51963988Y-87050595D01*
X52059226Y-87098214D01*
X52249702Y-87145833D01*
X52392559Y-87145833D01*
X52583035Y-87098214D01*
X52678273Y-87050595D01*
X52773511Y-86955357D01*
X52821130Y-86812500D01*
X52821130Y-86574404D01*
X52154464Y-88002976D02*
X52821130Y-88002976D01*
X51773511Y-87764880D02*
X52487797Y-87526785D01*
X52487797Y-88145833D01*
%TO.C,D43*%
X336983630Y-44029464D02*
X335983630Y-44029464D01*
X335983630Y-44267559D01*
X336031250Y-44410416D01*
X336126488Y-44505654D01*
X336221726Y-44553273D01*
X336412202Y-44600892D01*
X336555059Y-44600892D01*
X336745535Y-44553273D01*
X336840773Y-44505654D01*
X336936011Y-44410416D01*
X336983630Y-44267559D01*
X336983630Y-44029464D01*
X336316964Y-45458035D02*
X336983630Y-45458035D01*
X335936011Y-45219940D02*
X336650297Y-44981845D01*
X336650297Y-45600892D01*
X335983630Y-45886607D02*
X335983630Y-46505654D01*
X336364583Y-46172321D01*
X336364583Y-46315178D01*
X336412202Y-46410416D01*
X336459821Y-46458035D01*
X336555059Y-46505654D01*
X336793154Y-46505654D01*
X336888392Y-46458035D01*
X336936011Y-46410416D01*
X336983630Y-46315178D01*
X336983630Y-46029464D01*
X336936011Y-45934226D01*
X336888392Y-45886607D01*
%TO.C,D47*%
X373222380Y-44805714D02*
X372222380Y-44805714D01*
X372222380Y-45043809D01*
X372270000Y-45186666D01*
X372365238Y-45281904D01*
X372460476Y-45329523D01*
X372650952Y-45377142D01*
X372793809Y-45377142D01*
X372984285Y-45329523D01*
X373079523Y-45281904D01*
X373174761Y-45186666D01*
X373222380Y-45043809D01*
X373222380Y-44805714D01*
X372555714Y-46234285D02*
X373222380Y-46234285D01*
X372174761Y-45996190D02*
X372889047Y-45758095D01*
X372889047Y-46377142D01*
X372222380Y-46662857D02*
X372222380Y-47329523D01*
X373222380Y-46900952D01*
D11*
%TO.C,C_DECOUP4*%
X321956639Y-102063105D02*
X321956639Y-102022699D01*
X321916233Y-101941887D01*
X321875827Y-101901481D01*
X321795015Y-101861075D01*
X321714202Y-101861075D01*
X321653593Y-101881278D01*
X321552578Y-101941887D01*
X321491969Y-102002496D01*
X321431360Y-102103511D01*
X321411157Y-102164121D01*
X321411157Y-102244933D01*
X321451563Y-102325745D01*
X321491969Y-102366151D01*
X321572781Y-102406557D01*
X321613187Y-102406557D01*
X322118263Y-102063105D02*
X322441512Y-102386354D01*
X322502121Y-102527775D02*
X322077857Y-102952040D01*
X322178873Y-103053055D01*
X322259685Y-103093461D01*
X322340497Y-103093461D01*
X322401106Y-103073258D01*
X322502121Y-103012649D01*
X322562731Y-102952040D01*
X322623340Y-102851024D01*
X322643543Y-102790415D01*
X322643543Y-102709603D01*
X322603137Y-102628791D01*
X322502121Y-102527775D01*
X322704152Y-103174273D02*
X322845573Y-103315694D01*
X323128416Y-103154070D02*
X322926386Y-102952040D01*
X322502121Y-103376304D01*
X322704152Y-103578334D01*
X323512274Y-103618740D02*
X323512274Y-103578334D01*
X323471868Y-103497522D01*
X323431462Y-103457116D01*
X323350650Y-103416710D01*
X323269837Y-103416710D01*
X323209228Y-103436913D01*
X323108213Y-103497522D01*
X323047604Y-103558131D01*
X322986995Y-103659146D01*
X322966792Y-103719756D01*
X322966792Y-103800568D01*
X323007198Y-103881380D01*
X323047604Y-103921786D01*
X323128416Y-103962192D01*
X323168822Y-103962192D01*
X323391056Y-104265238D02*
X323471868Y-104346050D01*
X323532477Y-104366253D01*
X323613289Y-104366253D01*
X323714305Y-104305644D01*
X323855726Y-104164223D01*
X323916335Y-104063207D01*
X323916335Y-103982395D01*
X323896132Y-103921786D01*
X323815320Y-103840974D01*
X323754711Y-103820771D01*
X323673898Y-103820771D01*
X323572883Y-103881380D01*
X323431462Y-104022801D01*
X323370853Y-104123817D01*
X323370853Y-104204629D01*
X323391056Y-104265238D01*
X323754711Y-104628893D02*
X324098162Y-104285441D01*
X324158772Y-104265238D01*
X324199178Y-104265238D01*
X324259787Y-104285441D01*
X324340599Y-104366253D01*
X324360802Y-104426862D01*
X324360802Y-104467268D01*
X324340599Y-104527878D01*
X323997147Y-104871329D01*
X324623442Y-104649096D02*
X324199178Y-105073360D01*
X324360802Y-105234984D01*
X324421411Y-105255187D01*
X324461817Y-105255187D01*
X324522427Y-105234984D01*
X324583036Y-105174375D01*
X324603239Y-105113766D01*
X324603239Y-105073360D01*
X324583036Y-105012751D01*
X324421411Y-104851126D01*
X324946691Y-105538030D02*
X325229533Y-105255187D01*
X324684051Y-105598639D02*
X324886081Y-105194578D01*
X325148721Y-105457218D01*
D12*
%TO.C,D26*%
X208396130Y-86098214D02*
X207396130Y-86098214D01*
X207396130Y-86336309D01*
X207443750Y-86479166D01*
X207538988Y-86574404D01*
X207634226Y-86622023D01*
X207824702Y-86669642D01*
X207967559Y-86669642D01*
X208158035Y-86622023D01*
X208253273Y-86574404D01*
X208348511Y-86479166D01*
X208396130Y-86336309D01*
X208396130Y-86098214D01*
X207491369Y-87050595D02*
X207443750Y-87098214D01*
X207396130Y-87193452D01*
X207396130Y-87431547D01*
X207443750Y-87526785D01*
X207491369Y-87574404D01*
X207586607Y-87622023D01*
X207681845Y-87622023D01*
X207824702Y-87574404D01*
X208396130Y-87002976D01*
X208396130Y-87622023D01*
X207396130Y-88479166D02*
X207396130Y-88288690D01*
X207443750Y-88193452D01*
X207491369Y-88145833D01*
X207634226Y-88050595D01*
X207824702Y-88002976D01*
X208205654Y-88002976D01*
X208300892Y-88050595D01*
X208348511Y-88098214D01*
X208396130Y-88193452D01*
X208396130Y-88383928D01*
X208348511Y-88479166D01*
X208300892Y-88526785D01*
X208205654Y-88574404D01*
X207967559Y-88574404D01*
X207872321Y-88526785D01*
X207824702Y-88479166D01*
X207777083Y-88383928D01*
X207777083Y-88193452D01*
X207824702Y-88098214D01*
X207872321Y-88050595D01*
X207967559Y-88002976D01*
%TO.C,D6*%
X52821130Y-127055654D02*
X51821130Y-127055654D01*
X51821130Y-127293750D01*
X51868750Y-127436607D01*
X51963988Y-127531845D01*
X52059226Y-127579464D01*
X52249702Y-127627083D01*
X52392559Y-127627083D01*
X52583035Y-127579464D01*
X52678273Y-127531845D01*
X52773511Y-127436607D01*
X52821130Y-127293750D01*
X52821130Y-127055654D01*
X51821130Y-128484226D02*
X51821130Y-128293750D01*
X51868750Y-128198511D01*
X51916369Y-128150892D01*
X52059226Y-128055654D01*
X52249702Y-128008035D01*
X52630654Y-128008035D01*
X52725892Y-128055654D01*
X52773511Y-128103273D01*
X52821130Y-128198511D01*
X52821130Y-128388988D01*
X52773511Y-128484226D01*
X52725892Y-128531845D01*
X52630654Y-128579464D01*
X52392559Y-128579464D01*
X52297321Y-128531845D01*
X52249702Y-128484226D01*
X52202083Y-128388988D01*
X52202083Y-128198511D01*
X52249702Y-128103273D01*
X52297321Y-128055654D01*
X52392559Y-128008035D01*
%TO.C,D33*%
X251258630Y-105148214D02*
X250258630Y-105148214D01*
X250258630Y-105386309D01*
X250306250Y-105529166D01*
X250401488Y-105624404D01*
X250496726Y-105672023D01*
X250687202Y-105719642D01*
X250830059Y-105719642D01*
X251020535Y-105672023D01*
X251115773Y-105624404D01*
X251211011Y-105529166D01*
X251258630Y-105386309D01*
X251258630Y-105148214D01*
X250258630Y-106052976D02*
X250258630Y-106672023D01*
X250639583Y-106338690D01*
X250639583Y-106481547D01*
X250687202Y-106576785D01*
X250734821Y-106624404D01*
X250830059Y-106672023D01*
X251068154Y-106672023D01*
X251163392Y-106624404D01*
X251211011Y-106576785D01*
X251258630Y-106481547D01*
X251258630Y-106195833D01*
X251211011Y-106100595D01*
X251163392Y-106052976D01*
X250258630Y-107005357D02*
X250258630Y-107624404D01*
X250639583Y-107291071D01*
X250639583Y-107433928D01*
X250687202Y-107529166D01*
X250734821Y-107576785D01*
X250830059Y-107624404D01*
X251068154Y-107624404D01*
X251163392Y-107576785D01*
X251211011Y-107529166D01*
X251258630Y-107433928D01*
X251258630Y-107148214D01*
X251211011Y-107052976D01*
X251163392Y-107005357D01*
%TO.C,D42*%
X322696130Y-68635714D02*
X321696130Y-68635714D01*
X321696130Y-68873809D01*
X321743750Y-69016666D01*
X321838988Y-69111904D01*
X321934226Y-69159523D01*
X322124702Y-69207142D01*
X322267559Y-69207142D01*
X322458035Y-69159523D01*
X322553273Y-69111904D01*
X322648511Y-69016666D01*
X322696130Y-68873809D01*
X322696130Y-68635714D01*
X322029464Y-70064285D02*
X322696130Y-70064285D01*
X321648511Y-69826190D02*
X322362797Y-69588095D01*
X322362797Y-70207142D01*
X321791369Y-70540476D02*
X321743750Y-70588095D01*
X321696130Y-70683333D01*
X321696130Y-70921428D01*
X321743750Y-71016666D01*
X321791369Y-71064285D01*
X321886607Y-71111904D01*
X321981845Y-71111904D01*
X322124702Y-71064285D01*
X322696130Y-70492857D01*
X322696130Y-71111904D01*
D11*
%TO.C,R_RST1*%
X328939807Y-101503562D02*
X328879197Y-101160111D01*
X329182243Y-101261126D02*
X328757979Y-100836862D01*
X328596355Y-100998486D01*
X328576152Y-101059095D01*
X328576152Y-101099501D01*
X328596355Y-101160111D01*
X328656964Y-101220720D01*
X328717573Y-101240923D01*
X328757979Y-101240923D01*
X328818588Y-101220720D01*
X328980213Y-101059095D01*
X328899400Y-101624781D02*
X328576152Y-101948030D01*
X328192294Y-102251075D02*
X328131684Y-101907623D01*
X328434730Y-102008639D02*
X328010466Y-101584375D01*
X327848842Y-101745999D01*
X327828639Y-101806608D01*
X327828639Y-101847014D01*
X327848842Y-101907623D01*
X327909451Y-101968233D01*
X327970060Y-101988436D01*
X328010466Y-101988436D01*
X328071075Y-101968233D01*
X328232700Y-101806608D01*
X328010466Y-102392497D02*
X327970060Y-102473309D01*
X327869045Y-102574324D01*
X327808436Y-102594527D01*
X327768030Y-102594527D01*
X327707420Y-102574324D01*
X327667014Y-102533918D01*
X327646811Y-102473309D01*
X327646811Y-102432903D01*
X327667014Y-102372294D01*
X327727623Y-102271278D01*
X327747827Y-102210669D01*
X327747827Y-102170263D01*
X327727623Y-102109654D01*
X327687217Y-102069248D01*
X327626608Y-102049045D01*
X327586202Y-102049045D01*
X327525593Y-102069248D01*
X327424578Y-102170263D01*
X327384172Y-102251075D01*
X327242750Y-102352091D02*
X327000314Y-102594527D01*
X327545796Y-102897573D02*
X327121532Y-102473309D01*
X327060923Y-103382446D02*
X327303359Y-103140010D01*
X327182141Y-103261228D02*
X326757877Y-102836964D01*
X326858892Y-102857167D01*
X326939704Y-102857167D01*
X327000314Y-102836964D01*
D12*
%TO.C,D24*%
X184583630Y-124198214D02*
X183583630Y-124198214D01*
X183583630Y-124436309D01*
X183631250Y-124579166D01*
X183726488Y-124674404D01*
X183821726Y-124722023D01*
X184012202Y-124769642D01*
X184155059Y-124769642D01*
X184345535Y-124722023D01*
X184440773Y-124674404D01*
X184536011Y-124579166D01*
X184583630Y-124436309D01*
X184583630Y-124198214D01*
X183678869Y-125150595D02*
X183631250Y-125198214D01*
X183583630Y-125293452D01*
X183583630Y-125531547D01*
X183631250Y-125626785D01*
X183678869Y-125674404D01*
X183774107Y-125722023D01*
X183869345Y-125722023D01*
X184012202Y-125674404D01*
X184583630Y-125102976D01*
X184583630Y-125722023D01*
X183916964Y-126579166D02*
X184583630Y-126579166D01*
X183536011Y-126341071D02*
X184250297Y-126102976D01*
X184250297Y-126722023D01*
D14*
%TO.C,C_DECOUP1*%
X328439047Y-117092857D02*
X328458095Y-117111904D01*
X328515238Y-117130952D01*
X328553333Y-117130952D01*
X328610476Y-117111904D01*
X328648571Y-117073809D01*
X328667619Y-117035714D01*
X328686666Y-116959523D01*
X328686666Y-116902380D01*
X328667619Y-116826190D01*
X328648571Y-116788095D01*
X328610476Y-116750000D01*
X328553333Y-116730952D01*
X328515238Y-116730952D01*
X328458095Y-116750000D01*
X328439047Y-116769047D01*
X328362857Y-117169047D02*
X328058095Y-117169047D01*
X327962857Y-117130952D02*
X327962857Y-116730952D01*
X327867619Y-116730952D01*
X327810476Y-116750000D01*
X327772380Y-116788095D01*
X327753333Y-116826190D01*
X327734285Y-116902380D01*
X327734285Y-116959523D01*
X327753333Y-117035714D01*
X327772380Y-117073809D01*
X327810476Y-117111904D01*
X327867619Y-117130952D01*
X327962857Y-117130952D01*
X327562857Y-116921428D02*
X327429523Y-116921428D01*
X327372380Y-117130952D02*
X327562857Y-117130952D01*
X327562857Y-116730952D01*
X327372380Y-116730952D01*
X326972380Y-117092857D02*
X326991428Y-117111904D01*
X327048571Y-117130952D01*
X327086666Y-117130952D01*
X327143809Y-117111904D01*
X327181904Y-117073809D01*
X327200952Y-117035714D01*
X327220000Y-116959523D01*
X327220000Y-116902380D01*
X327200952Y-116826190D01*
X327181904Y-116788095D01*
X327143809Y-116750000D01*
X327086666Y-116730952D01*
X327048571Y-116730952D01*
X326991428Y-116750000D01*
X326972380Y-116769047D01*
X326724761Y-116730952D02*
X326648571Y-116730952D01*
X326610476Y-116750000D01*
X326572380Y-116788095D01*
X326553333Y-116864285D01*
X326553333Y-116997619D01*
X326572380Y-117073809D01*
X326610476Y-117111904D01*
X326648571Y-117130952D01*
X326724761Y-117130952D01*
X326762857Y-117111904D01*
X326800952Y-117073809D01*
X326820000Y-116997619D01*
X326820000Y-116864285D01*
X326800952Y-116788095D01*
X326762857Y-116750000D01*
X326724761Y-116730952D01*
X326381904Y-116730952D02*
X326381904Y-117054761D01*
X326362857Y-117092857D01*
X326343809Y-117111904D01*
X326305714Y-117130952D01*
X326229523Y-117130952D01*
X326191428Y-117111904D01*
X326172380Y-117092857D01*
X326153333Y-117054761D01*
X326153333Y-116730952D01*
X325962857Y-117130952D02*
X325962857Y-116730952D01*
X325810476Y-116730952D01*
X325772380Y-116750000D01*
X325753333Y-116769047D01*
X325734285Y-116807142D01*
X325734285Y-116864285D01*
X325753333Y-116902380D01*
X325772380Y-116921428D01*
X325810476Y-116940476D01*
X325962857Y-116940476D01*
X325353333Y-117130952D02*
X325581904Y-117130952D01*
X325467619Y-117130952D02*
X325467619Y-116730952D01*
X325505714Y-116788095D01*
X325543809Y-116826190D01*
X325581904Y-116845238D01*
D12*
%TO.C,D39*%
X286977380Y-86098214D02*
X285977380Y-86098214D01*
X285977380Y-86336309D01*
X286025000Y-86479166D01*
X286120238Y-86574404D01*
X286215476Y-86622023D01*
X286405952Y-86669642D01*
X286548809Y-86669642D01*
X286739285Y-86622023D01*
X286834523Y-86574404D01*
X286929761Y-86479166D01*
X286977380Y-86336309D01*
X286977380Y-86098214D01*
X285977380Y-87002976D02*
X285977380Y-87622023D01*
X286358333Y-87288690D01*
X286358333Y-87431547D01*
X286405952Y-87526785D01*
X286453571Y-87574404D01*
X286548809Y-87622023D01*
X286786904Y-87622023D01*
X286882142Y-87574404D01*
X286929761Y-87526785D01*
X286977380Y-87431547D01*
X286977380Y-87145833D01*
X286929761Y-87050595D01*
X286882142Y-87002976D01*
X286977380Y-88098214D02*
X286977380Y-88288690D01*
X286929761Y-88383928D01*
X286882142Y-88431547D01*
X286739285Y-88526785D01*
X286548809Y-88574404D01*
X286167857Y-88574404D01*
X286072619Y-88526785D01*
X286025000Y-88479166D01*
X285977380Y-88383928D01*
X285977380Y-88193452D01*
X286025000Y-88098214D01*
X286072619Y-88050595D01*
X286167857Y-88002976D01*
X286405952Y-88002976D01*
X286501190Y-88050595D01*
X286548809Y-88098214D01*
X286596428Y-88193452D01*
X286596428Y-88383928D01*
X286548809Y-88479166D01*
X286501190Y-88526785D01*
X286405952Y-88574404D01*
%TO.C,D12*%
X108383630Y-124198214D02*
X107383630Y-124198214D01*
X107383630Y-124436309D01*
X107431250Y-124579166D01*
X107526488Y-124674404D01*
X107621726Y-124722023D01*
X107812202Y-124769642D01*
X107955059Y-124769642D01*
X108145535Y-124722023D01*
X108240773Y-124674404D01*
X108336011Y-124579166D01*
X108383630Y-124436309D01*
X108383630Y-124198214D01*
X108383630Y-125722023D02*
X108383630Y-125150595D01*
X108383630Y-125436309D02*
X107383630Y-125436309D01*
X107526488Y-125341071D01*
X107621726Y-125245833D01*
X107669345Y-125150595D01*
X107478869Y-126102976D02*
X107431250Y-126150595D01*
X107383630Y-126245833D01*
X107383630Y-126483928D01*
X107431250Y-126579166D01*
X107478869Y-126626785D01*
X107574107Y-126674404D01*
X107669345Y-126674404D01*
X107812202Y-126626785D01*
X108383630Y-126055357D01*
X108383630Y-126674404D01*
%TO.C,D22*%
X170296130Y-86098214D02*
X169296130Y-86098214D01*
X169296130Y-86336309D01*
X169343750Y-86479166D01*
X169438988Y-86574404D01*
X169534226Y-86622023D01*
X169724702Y-86669642D01*
X169867559Y-86669642D01*
X170058035Y-86622023D01*
X170153273Y-86574404D01*
X170248511Y-86479166D01*
X170296130Y-86336309D01*
X170296130Y-86098214D01*
X169391369Y-87050595D02*
X169343750Y-87098214D01*
X169296130Y-87193452D01*
X169296130Y-87431547D01*
X169343750Y-87526785D01*
X169391369Y-87574404D01*
X169486607Y-87622023D01*
X169581845Y-87622023D01*
X169724702Y-87574404D01*
X170296130Y-87002976D01*
X170296130Y-87622023D01*
X169391369Y-88002976D02*
X169343750Y-88050595D01*
X169296130Y-88145833D01*
X169296130Y-88383928D01*
X169343750Y-88479166D01*
X169391369Y-88526785D01*
X169486607Y-88574404D01*
X169581845Y-88574404D01*
X169724702Y-88526785D01*
X170296130Y-87955357D01*
X170296130Y-88574404D01*
%TO.C,D11*%
X98858630Y-105148214D02*
X97858630Y-105148214D01*
X97858630Y-105386309D01*
X97906250Y-105529166D01*
X98001488Y-105624404D01*
X98096726Y-105672023D01*
X98287202Y-105719642D01*
X98430059Y-105719642D01*
X98620535Y-105672023D01*
X98715773Y-105624404D01*
X98811011Y-105529166D01*
X98858630Y-105386309D01*
X98858630Y-105148214D01*
X98858630Y-106672023D02*
X98858630Y-106100595D01*
X98858630Y-106386309D02*
X97858630Y-106386309D01*
X98001488Y-106291071D01*
X98096726Y-106195833D01*
X98144345Y-106100595D01*
X98858630Y-107624404D02*
X98858630Y-107052976D01*
X98858630Y-107338690D02*
X97858630Y-107338690D01*
X98001488Y-107243452D01*
X98096726Y-107148214D01*
X98144345Y-107052976D01*
%TO.C,D8*%
X89333630Y-43711904D02*
X88333630Y-43711904D01*
X88333630Y-43950000D01*
X88381250Y-44092857D01*
X88476488Y-44188095D01*
X88571726Y-44235714D01*
X88762202Y-44283333D01*
X88905059Y-44283333D01*
X89095535Y-44235714D01*
X89190773Y-44188095D01*
X89286011Y-44092857D01*
X89333630Y-43950000D01*
X89333630Y-43711904D01*
X88762202Y-44854761D02*
X88714583Y-44759523D01*
X88666964Y-44711904D01*
X88571726Y-44664285D01*
X88524107Y-44664285D01*
X88428869Y-44711904D01*
X88381250Y-44759523D01*
X88333630Y-44854761D01*
X88333630Y-45045238D01*
X88381250Y-45140476D01*
X88428869Y-45188095D01*
X88524107Y-45235714D01*
X88571726Y-45235714D01*
X88666964Y-45188095D01*
X88714583Y-45140476D01*
X88762202Y-45045238D01*
X88762202Y-44854761D01*
X88809821Y-44759523D01*
X88857440Y-44711904D01*
X88952678Y-44664285D01*
X89143154Y-44664285D01*
X89238392Y-44711904D01*
X89286011Y-44759523D01*
X89333630Y-44854761D01*
X89333630Y-45045238D01*
X89286011Y-45140476D01*
X89238392Y-45188095D01*
X89143154Y-45235714D01*
X88952678Y-45235714D01*
X88857440Y-45188095D01*
X88809821Y-45140476D01*
X88762202Y-45045238D01*
%TO.C,D34*%
X263958630Y-124198214D02*
X262958630Y-124198214D01*
X262958630Y-124436309D01*
X263006250Y-124579166D01*
X263101488Y-124674404D01*
X263196726Y-124722023D01*
X263387202Y-124769642D01*
X263530059Y-124769642D01*
X263720535Y-124722023D01*
X263815773Y-124674404D01*
X263911011Y-124579166D01*
X263958630Y-124436309D01*
X263958630Y-124198214D01*
X262958630Y-125102976D02*
X262958630Y-125722023D01*
X263339583Y-125388690D01*
X263339583Y-125531547D01*
X263387202Y-125626785D01*
X263434821Y-125674404D01*
X263530059Y-125722023D01*
X263768154Y-125722023D01*
X263863392Y-125674404D01*
X263911011Y-125626785D01*
X263958630Y-125531547D01*
X263958630Y-125245833D01*
X263911011Y-125150595D01*
X263863392Y-125102976D01*
X263291964Y-126579166D02*
X263958630Y-126579166D01*
X262911011Y-126341071D02*
X263625297Y-126102976D01*
X263625297Y-126722023D01*
%TO.C,D18*%
X318734285Y-44107380D02*
X318734285Y-43107380D01*
X318496190Y-43107380D01*
X318353333Y-43155000D01*
X318258095Y-43250238D01*
X318210476Y-43345476D01*
X318162857Y-43535952D01*
X318162857Y-43678809D01*
X318210476Y-43869285D01*
X318258095Y-43964523D01*
X318353333Y-44059761D01*
X318496190Y-44107380D01*
X318734285Y-44107380D01*
X317210476Y-44107380D02*
X317781904Y-44107380D01*
X317496190Y-44107380D02*
X317496190Y-43107380D01*
X317591428Y-43250238D01*
X317686666Y-43345476D01*
X317781904Y-43393095D01*
X316639047Y-43535952D02*
X316734285Y-43488333D01*
X316781904Y-43440714D01*
X316829523Y-43345476D01*
X316829523Y-43297857D01*
X316781904Y-43202619D01*
X316734285Y-43155000D01*
X316639047Y-43107380D01*
X316448571Y-43107380D01*
X316353333Y-43155000D01*
X316305714Y-43202619D01*
X316258095Y-43297857D01*
X316258095Y-43345476D01*
X316305714Y-43440714D01*
X316353333Y-43488333D01*
X316448571Y-43535952D01*
X316639047Y-43535952D01*
X316734285Y-43583571D01*
X316781904Y-43631190D01*
X316829523Y-43726428D01*
X316829523Y-43916904D01*
X316781904Y-44012142D01*
X316734285Y-44059761D01*
X316639047Y-44107380D01*
X316448571Y-44107380D01*
X316353333Y-44059761D01*
X316305714Y-44012142D01*
X316258095Y-43916904D01*
X316258095Y-43726428D01*
X316305714Y-43631190D01*
X316353333Y-43583571D01*
X316448571Y-43535952D01*
%TO.C,D32*%
X246496130Y-86098214D02*
X245496130Y-86098214D01*
X245496130Y-86336309D01*
X245543750Y-86479166D01*
X245638988Y-86574404D01*
X245734226Y-86622023D01*
X245924702Y-86669642D01*
X246067559Y-86669642D01*
X246258035Y-86622023D01*
X246353273Y-86574404D01*
X246448511Y-86479166D01*
X246496130Y-86336309D01*
X246496130Y-86098214D01*
X245496130Y-87002976D02*
X245496130Y-87622023D01*
X245877083Y-87288690D01*
X245877083Y-87431547D01*
X245924702Y-87526785D01*
X245972321Y-87574404D01*
X246067559Y-87622023D01*
X246305654Y-87622023D01*
X246400892Y-87574404D01*
X246448511Y-87526785D01*
X246496130Y-87431547D01*
X246496130Y-87145833D01*
X246448511Y-87050595D01*
X246400892Y-87002976D01*
X245591369Y-88002976D02*
X245543750Y-88050595D01*
X245496130Y-88145833D01*
X245496130Y-88383928D01*
X245543750Y-88479166D01*
X245591369Y-88526785D01*
X245686607Y-88574404D01*
X245781845Y-88574404D01*
X245924702Y-88526785D01*
X246496130Y-87955357D01*
X246496130Y-88574404D01*
%TO.C,D5*%
X55996130Y-105624404D02*
X54996130Y-105624404D01*
X54996130Y-105862500D01*
X55043750Y-106005357D01*
X55138988Y-106100595D01*
X55234226Y-106148214D01*
X55424702Y-106195833D01*
X55567559Y-106195833D01*
X55758035Y-106148214D01*
X55853273Y-106100595D01*
X55948511Y-106005357D01*
X55996130Y-105862500D01*
X55996130Y-105624404D01*
X54996130Y-107100595D02*
X54996130Y-106624404D01*
X55472321Y-106576785D01*
X55424702Y-106624404D01*
X55377083Y-106719642D01*
X55377083Y-106957738D01*
X55424702Y-107052976D01*
X55472321Y-107100595D01*
X55567559Y-107148214D01*
X55805654Y-107148214D01*
X55900892Y-107100595D01*
X55948511Y-107052976D01*
X55996130Y-106957738D01*
X55996130Y-106719642D01*
X55948511Y-106624404D01*
X55900892Y-106576785D01*
%TO.C,R_INDICATOR1*%
X49620952Y-114862380D02*
X49954285Y-114386190D01*
X50192380Y-114862380D02*
X50192380Y-113862380D01*
X49811428Y-113862380D01*
X49716190Y-113910000D01*
X49668571Y-113957619D01*
X49620952Y-114052857D01*
X49620952Y-114195714D01*
X49668571Y-114290952D01*
X49716190Y-114338571D01*
X49811428Y-114386190D01*
X50192380Y-114386190D01*
X49430476Y-114957619D02*
X48668571Y-114957619D01*
X48430476Y-114862380D02*
X48430476Y-113862380D01*
X47954285Y-114862380D02*
X47954285Y-113862380D01*
X47382857Y-114862380D01*
X47382857Y-113862380D01*
X46906666Y-114862380D02*
X46906666Y-113862380D01*
X46668571Y-113862380D01*
X46525714Y-113910000D01*
X46430476Y-114005238D01*
X46382857Y-114100476D01*
X46335238Y-114290952D01*
X46335238Y-114433809D01*
X46382857Y-114624285D01*
X46430476Y-114719523D01*
X46525714Y-114814761D01*
X46668571Y-114862380D01*
X46906666Y-114862380D01*
X45906666Y-114862380D02*
X45906666Y-113862380D01*
X44859047Y-114767142D02*
X44906666Y-114814761D01*
X45049523Y-114862380D01*
X45144761Y-114862380D01*
X45287619Y-114814761D01*
X45382857Y-114719523D01*
X45430476Y-114624285D01*
X45478095Y-114433809D01*
X45478095Y-114290952D01*
X45430476Y-114100476D01*
X45382857Y-114005238D01*
X45287619Y-113910000D01*
X45144761Y-113862380D01*
X45049523Y-113862380D01*
X44906666Y-113910000D01*
X44859047Y-113957619D01*
X44478095Y-114576666D02*
X44001904Y-114576666D01*
X44573333Y-114862380D02*
X44240000Y-113862380D01*
X43906666Y-114862380D01*
X43716190Y-113862380D02*
X43144761Y-113862380D01*
X43430476Y-114862380D02*
X43430476Y-113862380D01*
X42620952Y-113862380D02*
X42430476Y-113862380D01*
X42335238Y-113910000D01*
X42240000Y-114005238D01*
X42192380Y-114195714D01*
X42192380Y-114529047D01*
X42240000Y-114719523D01*
X42335238Y-114814761D01*
X42430476Y-114862380D01*
X42620952Y-114862380D01*
X42716190Y-114814761D01*
X42811428Y-114719523D01*
X42859047Y-114529047D01*
X42859047Y-114195714D01*
X42811428Y-114005238D01*
X42716190Y-113910000D01*
X42620952Y-113862380D01*
X41192380Y-114862380D02*
X41525714Y-114386190D01*
X41763809Y-114862380D02*
X41763809Y-113862380D01*
X41382857Y-113862380D01*
X41287619Y-113910000D01*
X41240000Y-113957619D01*
X41192380Y-114052857D01*
X41192380Y-114195714D01*
X41240000Y-114290952D01*
X41287619Y-114338571D01*
X41382857Y-114386190D01*
X41763809Y-114386190D01*
X40240000Y-114862380D02*
X40811428Y-114862380D01*
X40525714Y-114862380D02*
X40525714Y-113862380D01*
X40620952Y-114005238D01*
X40716190Y-114100476D01*
X40811428Y-114148095D01*
%TO.C,D50*%
X373132380Y-144715714D02*
X372132380Y-144715714D01*
X372132380Y-144953809D01*
X372180000Y-145096666D01*
X372275238Y-145191904D01*
X372370476Y-145239523D01*
X372560952Y-145287142D01*
X372703809Y-145287142D01*
X372894285Y-145239523D01*
X372989523Y-145191904D01*
X373084761Y-145096666D01*
X373132380Y-144953809D01*
X373132380Y-144715714D01*
X372132380Y-146191904D02*
X372132380Y-145715714D01*
X372608571Y-145668095D01*
X372560952Y-145715714D01*
X372513333Y-145810952D01*
X372513333Y-146049047D01*
X372560952Y-146144285D01*
X372608571Y-146191904D01*
X372703809Y-146239523D01*
X372941904Y-146239523D01*
X373037142Y-146191904D01*
X373084761Y-146144285D01*
X373132380Y-146049047D01*
X373132380Y-145810952D01*
X373084761Y-145715714D01*
X373037142Y-145668095D01*
X372132380Y-146858571D02*
X372132380Y-146953809D01*
X372180000Y-147049047D01*
X372227619Y-147096666D01*
X372322857Y-147144285D01*
X372513333Y-147191904D01*
X372751428Y-147191904D01*
X372941904Y-147144285D01*
X373037142Y-147096666D01*
X373084761Y-147049047D01*
X373132380Y-146953809D01*
X373132380Y-146858571D01*
X373084761Y-146763333D01*
X373037142Y-146715714D01*
X372941904Y-146668095D01*
X372751428Y-146620476D01*
X372513333Y-146620476D01*
X372322857Y-146668095D01*
X372227619Y-146715714D01*
X372180000Y-146763333D01*
X372132380Y-146858571D01*
%TO.C,D15*%
X122671130Y-67048214D02*
X121671130Y-67048214D01*
X121671130Y-67286309D01*
X121718750Y-67429166D01*
X121813988Y-67524404D01*
X121909226Y-67572023D01*
X122099702Y-67619642D01*
X122242559Y-67619642D01*
X122433035Y-67572023D01*
X122528273Y-67524404D01*
X122623511Y-67429166D01*
X122671130Y-67286309D01*
X122671130Y-67048214D01*
X122671130Y-68572023D02*
X122671130Y-68000595D01*
X122671130Y-68286309D02*
X121671130Y-68286309D01*
X121813988Y-68191071D01*
X121909226Y-68095833D01*
X121956845Y-68000595D01*
X121671130Y-69476785D02*
X121671130Y-69000595D01*
X122147321Y-68952976D01*
X122099702Y-69000595D01*
X122052083Y-69095833D01*
X122052083Y-69333928D01*
X122099702Y-69429166D01*
X122147321Y-69476785D01*
X122242559Y-69524404D01*
X122480654Y-69524404D01*
X122575892Y-69476785D01*
X122623511Y-69429166D01*
X122671130Y-69333928D01*
X122671130Y-69095833D01*
X122623511Y-69000595D01*
X122575892Y-68952976D01*
D11*
%TO.C,R_DATA2*%
X313191428Y-102598571D02*
X312905714Y-102398571D01*
X313191428Y-102255714D02*
X312591428Y-102255714D01*
X312591428Y-102484285D01*
X312620000Y-102541428D01*
X312648571Y-102570000D01*
X312705714Y-102598571D01*
X312791428Y-102598571D01*
X312848571Y-102570000D01*
X312877142Y-102541428D01*
X312905714Y-102484285D01*
X312905714Y-102255714D01*
X313248571Y-102712857D02*
X313248571Y-103170000D01*
X313191428Y-103312857D02*
X312591428Y-103312857D01*
X312591428Y-103455714D01*
X312620000Y-103541428D01*
X312677142Y-103598571D01*
X312734285Y-103627142D01*
X312848571Y-103655714D01*
X312934285Y-103655714D01*
X313048571Y-103627142D01*
X313105714Y-103598571D01*
X313162857Y-103541428D01*
X313191428Y-103455714D01*
X313191428Y-103312857D01*
X313020000Y-103884285D02*
X313020000Y-104170000D01*
X313191428Y-103827142D02*
X312591428Y-104027142D01*
X313191428Y-104227142D01*
X312591428Y-104341428D02*
X312591428Y-104684285D01*
X313191428Y-104512857D02*
X312591428Y-104512857D01*
X313020000Y-104855714D02*
X313020000Y-105141428D01*
X313191428Y-104798571D02*
X312591428Y-104998571D01*
X313191428Y-105198571D01*
X312648571Y-105370000D02*
X312620000Y-105398571D01*
X312591428Y-105455714D01*
X312591428Y-105598571D01*
X312620000Y-105655714D01*
X312648571Y-105684285D01*
X312705714Y-105712857D01*
X312762857Y-105712857D01*
X312848571Y-105684285D01*
X313191428Y-105341428D01*
X313191428Y-105712857D01*
%TO.C,C_DECOUP3*%
X334624285Y-108161428D02*
X334652857Y-108132857D01*
X334681428Y-108047142D01*
X334681428Y-107990000D01*
X334652857Y-107904285D01*
X334595714Y-107847142D01*
X334538571Y-107818571D01*
X334424285Y-107790000D01*
X334338571Y-107790000D01*
X334224285Y-107818571D01*
X334167142Y-107847142D01*
X334110000Y-107904285D01*
X334081428Y-107990000D01*
X334081428Y-108047142D01*
X334110000Y-108132857D01*
X334138571Y-108161428D01*
X334738571Y-108275714D02*
X334738571Y-108732857D01*
X334681428Y-108875714D02*
X334081428Y-108875714D01*
X334081428Y-109018571D01*
X334110000Y-109104285D01*
X334167142Y-109161428D01*
X334224285Y-109190000D01*
X334338571Y-109218571D01*
X334424285Y-109218571D01*
X334538571Y-109190000D01*
X334595714Y-109161428D01*
X334652857Y-109104285D01*
X334681428Y-109018571D01*
X334681428Y-108875714D01*
X334367142Y-109475714D02*
X334367142Y-109675714D01*
X334681428Y-109761428D02*
X334681428Y-109475714D01*
X334081428Y-109475714D01*
X334081428Y-109761428D01*
X334624285Y-110361428D02*
X334652857Y-110332857D01*
X334681428Y-110247142D01*
X334681428Y-110190000D01*
X334652857Y-110104285D01*
X334595714Y-110047142D01*
X334538571Y-110018571D01*
X334424285Y-109990000D01*
X334338571Y-109990000D01*
X334224285Y-110018571D01*
X334167142Y-110047142D01*
X334110000Y-110104285D01*
X334081428Y-110190000D01*
X334081428Y-110247142D01*
X334110000Y-110332857D01*
X334138571Y-110361428D01*
X334081428Y-110732857D02*
X334081428Y-110847142D01*
X334110000Y-110904285D01*
X334167142Y-110961428D01*
X334281428Y-110990000D01*
X334481428Y-110990000D01*
X334595714Y-110961428D01*
X334652857Y-110904285D01*
X334681428Y-110847142D01*
X334681428Y-110732857D01*
X334652857Y-110675714D01*
X334595714Y-110618571D01*
X334481428Y-110590000D01*
X334281428Y-110590000D01*
X334167142Y-110618571D01*
X334110000Y-110675714D01*
X334081428Y-110732857D01*
X334081428Y-111247142D02*
X334567142Y-111247142D01*
X334624285Y-111275714D01*
X334652857Y-111304285D01*
X334681428Y-111361428D01*
X334681428Y-111475714D01*
X334652857Y-111532857D01*
X334624285Y-111561428D01*
X334567142Y-111590000D01*
X334081428Y-111590000D01*
X334681428Y-111875714D02*
X334081428Y-111875714D01*
X334081428Y-112104285D01*
X334110000Y-112161428D01*
X334138571Y-112190000D01*
X334195714Y-112218571D01*
X334281428Y-112218571D01*
X334338571Y-112190000D01*
X334367142Y-112161428D01*
X334395714Y-112104285D01*
X334395714Y-111875714D01*
X334081428Y-112418571D02*
X334081428Y-112790000D01*
X334310000Y-112590000D01*
X334310000Y-112675714D01*
X334338571Y-112732857D01*
X334367142Y-112761428D01*
X334424285Y-112790000D01*
X334567142Y-112790000D01*
X334624285Y-112761428D01*
X334652857Y-112732857D01*
X334681428Y-112675714D01*
X334681428Y-112504285D01*
X334652857Y-112447142D01*
X334624285Y-112418571D01*
D12*
%TO.C,D41*%
X324283630Y-124198214D02*
X323283630Y-124198214D01*
X323283630Y-124436309D01*
X323331250Y-124579166D01*
X323426488Y-124674404D01*
X323521726Y-124722023D01*
X323712202Y-124769642D01*
X323855059Y-124769642D01*
X324045535Y-124722023D01*
X324140773Y-124674404D01*
X324236011Y-124579166D01*
X324283630Y-124436309D01*
X324283630Y-124198214D01*
X323616964Y-125626785D02*
X324283630Y-125626785D01*
X323236011Y-125388690D02*
X323950297Y-125150595D01*
X323950297Y-125769642D01*
X324283630Y-126674404D02*
X324283630Y-126102976D01*
X324283630Y-126388690D02*
X323283630Y-126388690D01*
X323426488Y-126293452D01*
X323521726Y-126198214D01*
X323569345Y-126102976D01*
%TO.C,D13*%
X125052380Y-144041964D02*
X124052380Y-144041964D01*
X124052380Y-144280059D01*
X124100000Y-144422916D01*
X124195238Y-144518154D01*
X124290476Y-144565773D01*
X124480952Y-144613392D01*
X124623809Y-144613392D01*
X124814285Y-144565773D01*
X124909523Y-144518154D01*
X125004761Y-144422916D01*
X125052380Y-144280059D01*
X125052380Y-144041964D01*
X125052380Y-145565773D02*
X125052380Y-144994345D01*
X125052380Y-145280059D02*
X124052380Y-145280059D01*
X124195238Y-145184821D01*
X124290476Y-145089583D01*
X124338095Y-144994345D01*
X124052380Y-145899107D02*
X124052380Y-146518154D01*
X124433333Y-146184821D01*
X124433333Y-146327678D01*
X124480952Y-146422916D01*
X124528571Y-146470535D01*
X124623809Y-146518154D01*
X124861904Y-146518154D01*
X124957142Y-146470535D01*
X125004761Y-146422916D01*
X125052380Y-146327678D01*
X125052380Y-146041964D01*
X125004761Y-145946726D01*
X124957142Y-145899107D01*
%TO.C,D31*%
X236971130Y-67048214D02*
X235971130Y-67048214D01*
X235971130Y-67286309D01*
X236018750Y-67429166D01*
X236113988Y-67524404D01*
X236209226Y-67572023D01*
X236399702Y-67619642D01*
X236542559Y-67619642D01*
X236733035Y-67572023D01*
X236828273Y-67524404D01*
X236923511Y-67429166D01*
X236971130Y-67286309D01*
X236971130Y-67048214D01*
X235971130Y-67952976D02*
X235971130Y-68572023D01*
X236352083Y-68238690D01*
X236352083Y-68381547D01*
X236399702Y-68476785D01*
X236447321Y-68524404D01*
X236542559Y-68572023D01*
X236780654Y-68572023D01*
X236875892Y-68524404D01*
X236923511Y-68476785D01*
X236971130Y-68381547D01*
X236971130Y-68095833D01*
X236923511Y-68000595D01*
X236875892Y-67952976D01*
X236971130Y-69524404D02*
X236971130Y-68952976D01*
X236971130Y-69238690D02*
X235971130Y-69238690D01*
X236113988Y-69143452D01*
X236209226Y-69048214D01*
X236256845Y-68952976D01*
%TO.C,D27*%
X213158630Y-105148214D02*
X212158630Y-105148214D01*
X212158630Y-105386309D01*
X212206250Y-105529166D01*
X212301488Y-105624404D01*
X212396726Y-105672023D01*
X212587202Y-105719642D01*
X212730059Y-105719642D01*
X212920535Y-105672023D01*
X213015773Y-105624404D01*
X213111011Y-105529166D01*
X213158630Y-105386309D01*
X213158630Y-105148214D01*
X212253869Y-106100595D02*
X212206250Y-106148214D01*
X212158630Y-106243452D01*
X212158630Y-106481547D01*
X212206250Y-106576785D01*
X212253869Y-106624404D01*
X212349107Y-106672023D01*
X212444345Y-106672023D01*
X212587202Y-106624404D01*
X213158630Y-106052976D01*
X213158630Y-106672023D01*
X212158630Y-107005357D02*
X212158630Y-107672023D01*
X213158630Y-107243452D01*
D11*
%TO.C,F1*%
X322720000Y-43006666D02*
X322720000Y-42773333D01*
X323086666Y-42773333D02*
X322386666Y-42773333D01*
X322386666Y-43106666D01*
X323086666Y-43740000D02*
X323086666Y-43340000D01*
X323086666Y-43540000D02*
X322386666Y-43540000D01*
X322486666Y-43473333D01*
X322553333Y-43406666D01*
X322586666Y-43340000D01*
D12*
%TO.C,D7*%
X92146130Y-123880654D02*
X91146130Y-123880654D01*
X91146130Y-124118750D01*
X91193750Y-124261607D01*
X91288988Y-124356845D01*
X91384226Y-124404464D01*
X91574702Y-124452083D01*
X91717559Y-124452083D01*
X91908035Y-124404464D01*
X92003273Y-124356845D01*
X92098511Y-124261607D01*
X92146130Y-124118750D01*
X92146130Y-123880654D01*
X91146130Y-124785416D02*
X91146130Y-125452083D01*
X92146130Y-125023511D01*
%TO.C,D16*%
X132196130Y-86098214D02*
X131196130Y-86098214D01*
X131196130Y-86336309D01*
X131243750Y-86479166D01*
X131338988Y-86574404D01*
X131434226Y-86622023D01*
X131624702Y-86669642D01*
X131767559Y-86669642D01*
X131958035Y-86622023D01*
X132053273Y-86574404D01*
X132148511Y-86479166D01*
X132196130Y-86336309D01*
X132196130Y-86098214D01*
X132196130Y-87622023D02*
X132196130Y-87050595D01*
X132196130Y-87336309D02*
X131196130Y-87336309D01*
X131338988Y-87241071D01*
X131434226Y-87145833D01*
X131481845Y-87050595D01*
X131196130Y-88479166D02*
X131196130Y-88288690D01*
X131243750Y-88193452D01*
X131291369Y-88145833D01*
X131434226Y-88050595D01*
X131624702Y-88002976D01*
X132005654Y-88002976D01*
X132100892Y-88050595D01*
X132148511Y-88098214D01*
X132196130Y-88193452D01*
X132196130Y-88383928D01*
X132148511Y-88479166D01*
X132100892Y-88526785D01*
X132005654Y-88574404D01*
X131767559Y-88574404D01*
X131672321Y-88526785D01*
X131624702Y-88479166D01*
X131577083Y-88383928D01*
X131577083Y-88193452D01*
X131624702Y-88098214D01*
X131672321Y-88050595D01*
X131767559Y-88002976D01*
D11*
%TO.C,C_DECOUP2*%
X317634285Y-108358928D02*
X317662857Y-108330357D01*
X317691428Y-108244642D01*
X317691428Y-108187500D01*
X317662857Y-108101785D01*
X317605714Y-108044642D01*
X317548571Y-108016071D01*
X317434285Y-107987500D01*
X317348571Y-107987500D01*
X317234285Y-108016071D01*
X317177142Y-108044642D01*
X317120000Y-108101785D01*
X317091428Y-108187500D01*
X317091428Y-108244642D01*
X317120000Y-108330357D01*
X317148571Y-108358928D01*
X317748571Y-108473214D02*
X317748571Y-108930357D01*
X317691428Y-109073214D02*
X317091428Y-109073214D01*
X317091428Y-109216071D01*
X317120000Y-109301785D01*
X317177142Y-109358928D01*
X317234285Y-109387500D01*
X317348571Y-109416071D01*
X317434285Y-109416071D01*
X317548571Y-109387500D01*
X317605714Y-109358928D01*
X317662857Y-109301785D01*
X317691428Y-109216071D01*
X317691428Y-109073214D01*
X317377142Y-109673214D02*
X317377142Y-109873214D01*
X317691428Y-109958928D02*
X317691428Y-109673214D01*
X317091428Y-109673214D01*
X317091428Y-109958928D01*
X317634285Y-110558928D02*
X317662857Y-110530357D01*
X317691428Y-110444642D01*
X317691428Y-110387500D01*
X317662857Y-110301785D01*
X317605714Y-110244642D01*
X317548571Y-110216071D01*
X317434285Y-110187500D01*
X317348571Y-110187500D01*
X317234285Y-110216071D01*
X317177142Y-110244642D01*
X317120000Y-110301785D01*
X317091428Y-110387500D01*
X317091428Y-110444642D01*
X317120000Y-110530357D01*
X317148571Y-110558928D01*
X317091428Y-110930357D02*
X317091428Y-111044642D01*
X317120000Y-111101785D01*
X317177142Y-111158928D01*
X317291428Y-111187500D01*
X317491428Y-111187500D01*
X317605714Y-111158928D01*
X317662857Y-111101785D01*
X317691428Y-111044642D01*
X317691428Y-110930357D01*
X317662857Y-110873214D01*
X317605714Y-110816071D01*
X317491428Y-110787500D01*
X317291428Y-110787500D01*
X317177142Y-110816071D01*
X317120000Y-110873214D01*
X317091428Y-110930357D01*
X317091428Y-111444642D02*
X317577142Y-111444642D01*
X317634285Y-111473214D01*
X317662857Y-111501785D01*
X317691428Y-111558928D01*
X317691428Y-111673214D01*
X317662857Y-111730357D01*
X317634285Y-111758928D01*
X317577142Y-111787500D01*
X317091428Y-111787500D01*
X317691428Y-112073214D02*
X317091428Y-112073214D01*
X317091428Y-112301785D01*
X317120000Y-112358928D01*
X317148571Y-112387500D01*
X317205714Y-112416071D01*
X317291428Y-112416071D01*
X317348571Y-112387500D01*
X317377142Y-112358928D01*
X317405714Y-112301785D01*
X317405714Y-112073214D01*
X317148571Y-112644642D02*
X317120000Y-112673214D01*
X317091428Y-112730357D01*
X317091428Y-112873214D01*
X317120000Y-112930357D01*
X317148571Y-112958928D01*
X317205714Y-112987500D01*
X317262857Y-112987500D01*
X317348571Y-112958928D01*
X317691428Y-112616071D01*
X317691428Y-112987500D01*
D12*
%TO.C,D45*%
X336952380Y-142775714D02*
X335952380Y-142775714D01*
X335952380Y-143013809D01*
X336000000Y-143156666D01*
X336095238Y-143251904D01*
X336190476Y-143299523D01*
X336380952Y-143347142D01*
X336523809Y-143347142D01*
X336714285Y-143299523D01*
X336809523Y-143251904D01*
X336904761Y-143156666D01*
X336952380Y-143013809D01*
X336952380Y-142775714D01*
X336285714Y-144204285D02*
X336952380Y-144204285D01*
X335904761Y-143966190D02*
X336619047Y-143728095D01*
X336619047Y-144347142D01*
X335952380Y-145204285D02*
X335952380Y-144728095D01*
X336428571Y-144680476D01*
X336380952Y-144728095D01*
X336333333Y-144823333D01*
X336333333Y-145061428D01*
X336380952Y-145156666D01*
X336428571Y-145204285D01*
X336523809Y-145251904D01*
X336761904Y-145251904D01*
X336857142Y-145204285D01*
X336904761Y-145156666D01*
X336952380Y-145061428D01*
X336952380Y-144823333D01*
X336904761Y-144728095D01*
X336857142Y-144680476D01*
%TO.C,D38*%
X288564880Y-144041964D02*
X287564880Y-144041964D01*
X287564880Y-144280059D01*
X287612500Y-144422916D01*
X287707738Y-144518154D01*
X287802976Y-144565773D01*
X287993452Y-144613392D01*
X288136309Y-144613392D01*
X288326785Y-144565773D01*
X288422023Y-144518154D01*
X288517261Y-144422916D01*
X288564880Y-144280059D01*
X288564880Y-144041964D01*
X287564880Y-144946726D02*
X287564880Y-145565773D01*
X287945833Y-145232440D01*
X287945833Y-145375297D01*
X287993452Y-145470535D01*
X288041071Y-145518154D01*
X288136309Y-145565773D01*
X288374404Y-145565773D01*
X288469642Y-145518154D01*
X288517261Y-145470535D01*
X288564880Y-145375297D01*
X288564880Y-145089583D01*
X288517261Y-144994345D01*
X288469642Y-144946726D01*
X287993452Y-146137202D02*
X287945833Y-146041964D01*
X287898214Y-145994345D01*
X287802976Y-145946726D01*
X287755357Y-145946726D01*
X287660119Y-145994345D01*
X287612500Y-146041964D01*
X287564880Y-146137202D01*
X287564880Y-146327678D01*
X287612500Y-146422916D01*
X287660119Y-146470535D01*
X287755357Y-146518154D01*
X287802976Y-146518154D01*
X287898214Y-146470535D01*
X287945833Y-146422916D01*
X287993452Y-146327678D01*
X287993452Y-146137202D01*
X288041071Y-146041964D01*
X288088690Y-145994345D01*
X288183928Y-145946726D01*
X288374404Y-145946726D01*
X288469642Y-145994345D01*
X288517261Y-146041964D01*
X288564880Y-146137202D01*
X288564880Y-146327678D01*
X288517261Y-146422916D01*
X288469642Y-146470535D01*
X288374404Y-146518154D01*
X288183928Y-146518154D01*
X288088690Y-146470535D01*
X288041071Y-146422916D01*
X287993452Y-146327678D01*
%TO.C,Y1*%
X332632132Y-103117376D02*
X332968850Y-102780658D01*
X332026041Y-103252063D02*
X332632132Y-103117376D01*
X332497445Y-103723467D01*
X333810643Y-103622452D02*
X333406582Y-103218391D01*
X333608613Y-103420422D02*
X332901506Y-104127528D01*
X332935178Y-103959170D01*
X332935178Y-103824483D01*
X332901506Y-103723467D01*
%TO.C,U1*%
X321424026Y-112658477D02*
X321996446Y-112086057D01*
X322097461Y-112052385D01*
X322164805Y-112052385D01*
X322265820Y-112086057D01*
X322400507Y-112220744D01*
X322434179Y-112321759D01*
X322434179Y-112389103D01*
X322400507Y-112490118D01*
X321828087Y-113062538D01*
X323242301Y-113062538D02*
X322838240Y-112658477D01*
X323040270Y-112860507D02*
X322333164Y-113567614D01*
X322366835Y-113399255D01*
X322366835Y-113264568D01*
X322333164Y-113163553D01*
%TO.C,D9*%
X84571130Y-67524404D02*
X83571130Y-67524404D01*
X83571130Y-67762500D01*
X83618750Y-67905357D01*
X83713988Y-68000595D01*
X83809226Y-68048214D01*
X83999702Y-68095833D01*
X84142559Y-68095833D01*
X84333035Y-68048214D01*
X84428273Y-68000595D01*
X84523511Y-67905357D01*
X84571130Y-67762500D01*
X84571130Y-67524404D01*
X84571130Y-68572023D02*
X84571130Y-68762500D01*
X84523511Y-68857738D01*
X84475892Y-68905357D01*
X84333035Y-69000595D01*
X84142559Y-69048214D01*
X83761607Y-69048214D01*
X83666369Y-69000595D01*
X83618750Y-68952976D01*
X83571130Y-68857738D01*
X83571130Y-68667261D01*
X83618750Y-68572023D01*
X83666369Y-68524404D01*
X83761607Y-68476785D01*
X83999702Y-68476785D01*
X84094940Y-68524404D01*
X84142559Y-68572023D01*
X84190178Y-68667261D01*
X84190178Y-68857738D01*
X84142559Y-68952976D01*
X84094940Y-69000595D01*
X83999702Y-69048214D01*
%TO.C,D37*%
X285389880Y-106735714D02*
X284389880Y-106735714D01*
X284389880Y-106973809D01*
X284437500Y-107116666D01*
X284532738Y-107211904D01*
X284627976Y-107259523D01*
X284818452Y-107307142D01*
X284961309Y-107307142D01*
X285151785Y-107259523D01*
X285247023Y-107211904D01*
X285342261Y-107116666D01*
X285389880Y-106973809D01*
X285389880Y-106735714D01*
X284389880Y-107640476D02*
X284389880Y-108259523D01*
X284770833Y-107926190D01*
X284770833Y-108069047D01*
X284818452Y-108164285D01*
X284866071Y-108211904D01*
X284961309Y-108259523D01*
X285199404Y-108259523D01*
X285294642Y-108211904D01*
X285342261Y-108164285D01*
X285389880Y-108069047D01*
X285389880Y-107783333D01*
X285342261Y-107688095D01*
X285294642Y-107640476D01*
X284389880Y-108592857D02*
X284389880Y-109259523D01*
X285389880Y-108830952D01*
%TO.C,D28*%
X210777380Y-44029464D02*
X209777380Y-44029464D01*
X209777380Y-44267559D01*
X209825000Y-44410416D01*
X209920238Y-44505654D01*
X210015476Y-44553273D01*
X210205952Y-44600892D01*
X210348809Y-44600892D01*
X210539285Y-44553273D01*
X210634523Y-44505654D01*
X210729761Y-44410416D01*
X210777380Y-44267559D01*
X210777380Y-44029464D01*
X209872619Y-44981845D02*
X209825000Y-45029464D01*
X209777380Y-45124702D01*
X209777380Y-45362797D01*
X209825000Y-45458035D01*
X209872619Y-45505654D01*
X209967857Y-45553273D01*
X210063095Y-45553273D01*
X210205952Y-45505654D01*
X210777380Y-44934226D01*
X210777380Y-45553273D01*
X210205952Y-46124702D02*
X210158333Y-46029464D01*
X210110714Y-45981845D01*
X210015476Y-45934226D01*
X209967857Y-45934226D01*
X209872619Y-45981845D01*
X209825000Y-46029464D01*
X209777380Y-46124702D01*
X209777380Y-46315178D01*
X209825000Y-46410416D01*
X209872619Y-46458035D01*
X209967857Y-46505654D01*
X210015476Y-46505654D01*
X210110714Y-46458035D01*
X210158333Y-46410416D01*
X210205952Y-46315178D01*
X210205952Y-46124702D01*
X210253571Y-46029464D01*
X210301190Y-45981845D01*
X210396428Y-45934226D01*
X210586904Y-45934226D01*
X210682142Y-45981845D01*
X210729761Y-46029464D01*
X210777380Y-46124702D01*
X210777380Y-46315178D01*
X210729761Y-46410416D01*
X210682142Y-46458035D01*
X210586904Y-46505654D01*
X210396428Y-46505654D01*
X210301190Y-46458035D01*
X210253571Y-46410416D01*
X210205952Y-46315178D01*
%TO.C,D19*%
X146483630Y-124198214D02*
X145483630Y-124198214D01*
X145483630Y-124436309D01*
X145531250Y-124579166D01*
X145626488Y-124674404D01*
X145721726Y-124722023D01*
X145912202Y-124769642D01*
X146055059Y-124769642D01*
X146245535Y-124722023D01*
X146340773Y-124674404D01*
X146436011Y-124579166D01*
X146483630Y-124436309D01*
X146483630Y-124198214D01*
X146483630Y-125722023D02*
X146483630Y-125150595D01*
X146483630Y-125436309D02*
X145483630Y-125436309D01*
X145626488Y-125341071D01*
X145721726Y-125245833D01*
X145769345Y-125150595D01*
X146483630Y-126198214D02*
X146483630Y-126388690D01*
X146436011Y-126483928D01*
X146388392Y-126531547D01*
X146245535Y-126626785D01*
X146055059Y-126674404D01*
X145674107Y-126674404D01*
X145578869Y-126626785D01*
X145531250Y-126579166D01*
X145483630Y-126483928D01*
X145483630Y-126293452D01*
X145531250Y-126198214D01*
X145578869Y-126150595D01*
X145674107Y-126102976D01*
X145912202Y-126102976D01*
X146007440Y-126150595D01*
X146055059Y-126198214D01*
X146102678Y-126293452D01*
X146102678Y-126483928D01*
X146055059Y-126579166D01*
X146007440Y-126626785D01*
X145912202Y-126674404D01*
%TO.C,D21*%
X160771130Y-67048214D02*
X159771130Y-67048214D01*
X159771130Y-67286309D01*
X159818750Y-67429166D01*
X159913988Y-67524404D01*
X160009226Y-67572023D01*
X160199702Y-67619642D01*
X160342559Y-67619642D01*
X160533035Y-67572023D01*
X160628273Y-67524404D01*
X160723511Y-67429166D01*
X160771130Y-67286309D01*
X160771130Y-67048214D01*
X159866369Y-68000595D02*
X159818750Y-68048214D01*
X159771130Y-68143452D01*
X159771130Y-68381547D01*
X159818750Y-68476785D01*
X159866369Y-68524404D01*
X159961607Y-68572023D01*
X160056845Y-68572023D01*
X160199702Y-68524404D01*
X160771130Y-67952976D01*
X160771130Y-68572023D01*
X160771130Y-69524404D02*
X160771130Y-68952976D01*
X160771130Y-69238690D02*
X159771130Y-69238690D01*
X159913988Y-69143452D01*
X160009226Y-69048214D01*
X160056845Y-68952976D01*
%TO.C,D20*%
X170296130Y-43235714D02*
X169296130Y-43235714D01*
X169296130Y-43473809D01*
X169343750Y-43616666D01*
X169438988Y-43711904D01*
X169534226Y-43759523D01*
X169724702Y-43807142D01*
X169867559Y-43807142D01*
X170058035Y-43759523D01*
X170153273Y-43711904D01*
X170248511Y-43616666D01*
X170296130Y-43473809D01*
X170296130Y-43235714D01*
X169391369Y-44188095D02*
X169343750Y-44235714D01*
X169296130Y-44330952D01*
X169296130Y-44569047D01*
X169343750Y-44664285D01*
X169391369Y-44711904D01*
X169486607Y-44759523D01*
X169581845Y-44759523D01*
X169724702Y-44711904D01*
X170296130Y-44140476D01*
X170296130Y-44759523D01*
X169296130Y-45378571D02*
X169296130Y-45473809D01*
X169343750Y-45569047D01*
X169391369Y-45616666D01*
X169486607Y-45664285D01*
X169677083Y-45711904D01*
X169915178Y-45711904D01*
X170105654Y-45664285D01*
X170200892Y-45616666D01*
X170248511Y-45569047D01*
X170296130Y-45473809D01*
X170296130Y-45378571D01*
X170248511Y-45283333D01*
X170200892Y-45235714D01*
X170105654Y-45188095D01*
X169915178Y-45140476D01*
X169677083Y-45140476D01*
X169486607Y-45188095D01*
X169391369Y-45235714D01*
X169343750Y-45283333D01*
X169296130Y-45378571D01*
%TO.C,D44*%
X336983630Y-86098214D02*
X335983630Y-86098214D01*
X335983630Y-86336309D01*
X336031250Y-86479166D01*
X336126488Y-86574404D01*
X336221726Y-86622023D01*
X336412202Y-86669642D01*
X336555059Y-86669642D01*
X336745535Y-86622023D01*
X336840773Y-86574404D01*
X336936011Y-86479166D01*
X336983630Y-86336309D01*
X336983630Y-86098214D01*
X336316964Y-87526785D02*
X336983630Y-87526785D01*
X335936011Y-87288690D02*
X336650297Y-87050595D01*
X336650297Y-87669642D01*
X336316964Y-88479166D02*
X336983630Y-88479166D01*
X335936011Y-88241071D02*
X336650297Y-88002976D01*
X336650297Y-88622023D01*
%TO.C,D23*%
X175058630Y-105148214D02*
X174058630Y-105148214D01*
X174058630Y-105386309D01*
X174106250Y-105529166D01*
X174201488Y-105624404D01*
X174296726Y-105672023D01*
X174487202Y-105719642D01*
X174630059Y-105719642D01*
X174820535Y-105672023D01*
X174915773Y-105624404D01*
X175011011Y-105529166D01*
X175058630Y-105386309D01*
X175058630Y-105148214D01*
X174153869Y-106100595D02*
X174106250Y-106148214D01*
X174058630Y-106243452D01*
X174058630Y-106481547D01*
X174106250Y-106576785D01*
X174153869Y-106624404D01*
X174249107Y-106672023D01*
X174344345Y-106672023D01*
X174487202Y-106624404D01*
X175058630Y-106052976D01*
X175058630Y-106672023D01*
X174058630Y-107005357D02*
X174058630Y-107624404D01*
X174439583Y-107291071D01*
X174439583Y-107433928D01*
X174487202Y-107529166D01*
X174534821Y-107576785D01*
X174630059Y-107624404D01*
X174868154Y-107624404D01*
X174963392Y-107576785D01*
X175011011Y-107529166D01*
X175058630Y-107433928D01*
X175058630Y-107148214D01*
X175011011Y-107052976D01*
X174963392Y-107005357D01*
%TO.C,D40*%
X291739880Y-44029464D02*
X290739880Y-44029464D01*
X290739880Y-44267559D01*
X290787500Y-44410416D01*
X290882738Y-44505654D01*
X290977976Y-44553273D01*
X291168452Y-44600892D01*
X291311309Y-44600892D01*
X291501785Y-44553273D01*
X291597023Y-44505654D01*
X291692261Y-44410416D01*
X291739880Y-44267559D01*
X291739880Y-44029464D01*
X291073214Y-45458035D02*
X291739880Y-45458035D01*
X290692261Y-45219940D02*
X291406547Y-44981845D01*
X291406547Y-45600892D01*
X290739880Y-46172321D02*
X290739880Y-46267559D01*
X290787500Y-46362797D01*
X290835119Y-46410416D01*
X290930357Y-46458035D01*
X291120833Y-46505654D01*
X291358928Y-46505654D01*
X291549404Y-46458035D01*
X291644642Y-46410416D01*
X291692261Y-46362797D01*
X291739880Y-46267559D01*
X291739880Y-46172321D01*
X291692261Y-46077083D01*
X291644642Y-46029464D01*
X291549404Y-45981845D01*
X291358928Y-45934226D01*
X291120833Y-45934226D01*
X290930357Y-45981845D01*
X290835119Y-46029464D01*
X290787500Y-46077083D01*
X290739880Y-46172321D01*
%TO.C,D14*%
X129814880Y-44029464D02*
X128814880Y-44029464D01*
X128814880Y-44267559D01*
X128862500Y-44410416D01*
X128957738Y-44505654D01*
X129052976Y-44553273D01*
X129243452Y-44600892D01*
X129386309Y-44600892D01*
X129576785Y-44553273D01*
X129672023Y-44505654D01*
X129767261Y-44410416D01*
X129814880Y-44267559D01*
X129814880Y-44029464D01*
X129814880Y-45553273D02*
X129814880Y-44981845D01*
X129814880Y-45267559D02*
X128814880Y-45267559D01*
X128957738Y-45172321D01*
X129052976Y-45077083D01*
X129100595Y-44981845D01*
X129148214Y-46410416D02*
X129814880Y-46410416D01*
X128767261Y-46172321D02*
X129481547Y-45934226D01*
X129481547Y-46553273D01*
%TO.C,D10*%
X94096130Y-86098214D02*
X93096130Y-86098214D01*
X93096130Y-86336309D01*
X93143750Y-86479166D01*
X93238988Y-86574404D01*
X93334226Y-86622023D01*
X93524702Y-86669642D01*
X93667559Y-86669642D01*
X93858035Y-86622023D01*
X93953273Y-86574404D01*
X94048511Y-86479166D01*
X94096130Y-86336309D01*
X94096130Y-86098214D01*
X94096130Y-87622023D02*
X94096130Y-87050595D01*
X94096130Y-87336309D02*
X93096130Y-87336309D01*
X93238988Y-87241071D01*
X93334226Y-87145833D01*
X93381845Y-87050595D01*
X93096130Y-88241071D02*
X93096130Y-88336309D01*
X93143750Y-88431547D01*
X93191369Y-88479166D01*
X93286607Y-88526785D01*
X93477083Y-88574404D01*
X93715178Y-88574404D01*
X93905654Y-88526785D01*
X94000892Y-88479166D01*
X94048511Y-88431547D01*
X94096130Y-88336309D01*
X94096130Y-88241071D01*
X94048511Y-88145833D01*
X94000892Y-88098214D01*
X93905654Y-88050595D01*
X93715178Y-88002976D01*
X93477083Y-88002976D01*
X93286607Y-88050595D01*
X93191369Y-88098214D01*
X93143750Y-88145833D01*
X93096130Y-88241071D01*
%TO.C,D25*%
X198871130Y-67048214D02*
X197871130Y-67048214D01*
X197871130Y-67286309D01*
X197918750Y-67429166D01*
X198013988Y-67524404D01*
X198109226Y-67572023D01*
X198299702Y-67619642D01*
X198442559Y-67619642D01*
X198633035Y-67572023D01*
X198728273Y-67524404D01*
X198823511Y-67429166D01*
X198871130Y-67286309D01*
X198871130Y-67048214D01*
X197966369Y-68000595D02*
X197918750Y-68048214D01*
X197871130Y-68143452D01*
X197871130Y-68381547D01*
X197918750Y-68476785D01*
X197966369Y-68524404D01*
X198061607Y-68572023D01*
X198156845Y-68572023D01*
X198299702Y-68524404D01*
X198871130Y-67952976D01*
X198871130Y-68572023D01*
X197871130Y-69476785D02*
X197871130Y-69000595D01*
X198347321Y-68952976D01*
X198299702Y-69000595D01*
X198252083Y-69095833D01*
X198252083Y-69333928D01*
X198299702Y-69429166D01*
X198347321Y-69476785D01*
X198442559Y-69524404D01*
X198680654Y-69524404D01*
X198775892Y-69476785D01*
X198823511Y-69429166D01*
X198871130Y-69333928D01*
X198871130Y-69095833D01*
X198823511Y-69000595D01*
X198775892Y-68952976D01*
D15*
%TO.C,R_DATA1*%
X318575000Y-103722936D02*
X318575000Y-104177064D01*
X317105000Y-103722936D02*
X317105000Y-104177064D01*
%TO.C,D29*%
X241327500Y-145256250D02*
X241327500Y-143581250D01*
X244447500Y-145256250D02*
X244447500Y-144606250D01*
X244447500Y-145256250D02*
X244447500Y-145906250D01*
X241327500Y-145256250D02*
X241327500Y-145906250D01*
%TO.C,R_INDICATOR3*%
X38357064Y-51495000D02*
X37902936Y-51495000D01*
X38357064Y-50025000D02*
X37902936Y-50025000D01*
%TO.C,R_INDICATOR2*%
X347889564Y-49271250D02*
X347435436Y-49271250D01*
X347889564Y-50741250D02*
X347435436Y-50741250D01*
%TO.C,D17*%
X140466250Y-106362500D02*
X140466250Y-105712500D01*
X140466250Y-106362500D02*
X140466250Y-107012500D01*
X137346250Y-106362500D02*
X137346250Y-107012500D01*
X137346250Y-106362500D02*
X137346250Y-104687500D01*
%TO.C,D36*%
X278578750Y-68262500D02*
X278578750Y-67612500D01*
X278578750Y-68262500D02*
X278578750Y-68912500D01*
X275458750Y-68262500D02*
X275458750Y-68912500D01*
X275458750Y-68262500D02*
X275458750Y-66587500D01*
%TO.C,D30*%
X226191250Y-125412500D02*
X226191250Y-126062500D01*
X223071250Y-125412500D02*
X223071250Y-126062500D01*
X223071250Y-125412500D02*
X223071250Y-123737500D01*
X226191250Y-125412500D02*
X226191250Y-124762500D01*
%TO.C,C_UCAP1*%
X322701693Y-106660810D02*
X322549190Y-106508307D01*
X323210810Y-106151693D02*
X323058307Y-105999190D01*
%TO.C,D1*%
X53208750Y-145256250D02*
X53208750Y-143581250D01*
X56328750Y-145256250D02*
X56328750Y-144606250D01*
X53208750Y-145256250D02*
X53208750Y-145906250D01*
X56328750Y-145256250D02*
X56328750Y-145906250D01*
%TO.C,D35*%
X251646250Y-44450000D02*
X251646250Y-42775000D01*
X251646250Y-44450000D02*
X251646250Y-45100000D01*
X254766250Y-44450000D02*
X254766250Y-43800000D01*
X254766250Y-44450000D02*
X254766250Y-45100000D01*
%TO.C,D48*%
X369860000Y-73160000D02*
X369860000Y-69260000D01*
X371860000Y-73160000D02*
X369860000Y-73160000D01*
X371860000Y-73160000D02*
X371860000Y-69260000D01*
%TO.C,D3*%
X46858750Y-68262500D02*
X46858750Y-68912500D01*
X49978750Y-68262500D02*
X49978750Y-68912500D01*
X46858750Y-68262500D02*
X46858750Y-66587500D01*
X49978750Y-68262500D02*
X49978750Y-67612500D01*
%TO.C,D46*%
X352910000Y-73510000D02*
X350910000Y-73510000D01*
X352910000Y-73510000D02*
X352910000Y-69610000D01*
X350910000Y-73510000D02*
X350910000Y-69610000D01*
%TO.C,R_HWB1*%
X327025835Y-117380000D02*
X326794165Y-117380000D01*
X327025835Y-118100000D02*
X326794165Y-118100000D01*
%TO.C,D2*%
X52360000Y-45243750D02*
X52360000Y-45893750D01*
X49240000Y-45243750D02*
X49240000Y-45893750D01*
X52360000Y-45243750D02*
X52360000Y-44593750D01*
X49240000Y-45243750D02*
X49240000Y-43568750D01*
%TO.C,J3*%
X314390000Y-62785000D02*
X314390000Y-65285000D01*
X320610000Y-65285000D02*
X319560000Y-65285000D01*
X315560000Y-60815000D02*
X319440000Y-60815000D01*
X314390000Y-65285000D02*
X315440000Y-65285000D01*
X315440000Y-65285000D02*
X315440000Y-66275000D01*
X320610000Y-62785000D02*
X320610000Y-65285000D01*
%TO.C,D49*%
X371640000Y-91060000D02*
X369640000Y-91060000D01*
X369640000Y-91060000D02*
X369640000Y-87160000D01*
X371640000Y-91060000D02*
X371640000Y-87160000D01*
%TO.C,D4*%
X56328750Y-87312500D02*
X56328750Y-87962500D01*
X56328750Y-87312500D02*
X56328750Y-86662500D01*
X53208750Y-87312500D02*
X53208750Y-87962500D01*
X53208750Y-87312500D02*
X53208750Y-85637500D01*
%TO.C,D43*%
X340491250Y-45243750D02*
X340491250Y-44593750D01*
X340491250Y-45243750D02*
X340491250Y-45893750D01*
X337371250Y-45243750D02*
X337371250Y-45893750D01*
X337371250Y-45243750D02*
X337371250Y-43568750D01*
%TO.C,D47*%
X371770000Y-48270000D02*
X371770000Y-44370000D01*
X371770000Y-48270000D02*
X369770000Y-48270000D01*
X369770000Y-48270000D02*
X369770000Y-44370000D01*
%TO.C,C_DECOUP4*%
X322820810Y-104361693D02*
X322668307Y-104209190D01*
X322311693Y-104870810D02*
X322159190Y-104718307D01*
%TO.C,D26*%
X211903750Y-87312500D02*
X211903750Y-87962500D01*
X208783750Y-87312500D02*
X208783750Y-87962500D01*
X211903750Y-87312500D02*
X211903750Y-86662500D01*
X208783750Y-87312500D02*
X208783750Y-85637500D01*
%TO.C,D6*%
X56328750Y-127793750D02*
X56328750Y-127143750D01*
X56328750Y-127793750D02*
X56328750Y-128443750D01*
X53208750Y-127793750D02*
X53208750Y-128443750D01*
X53208750Y-127793750D02*
X53208750Y-126118750D01*
%TO.C,D33*%
X251646250Y-106362500D02*
X251646250Y-107012500D01*
X254766250Y-106362500D02*
X254766250Y-107012500D01*
X251646250Y-106362500D02*
X251646250Y-104687500D01*
X254766250Y-106362500D02*
X254766250Y-105712500D01*
%TO.C,D42*%
X326203750Y-69850000D02*
X326203750Y-70500000D01*
X323083750Y-69850000D02*
X323083750Y-68175000D01*
X323083750Y-69850000D02*
X323083750Y-70500000D01*
X326203750Y-69850000D02*
X326203750Y-69200000D01*
%TO.C,R_RST1*%
X329096466Y-103112651D02*
X328932651Y-103276466D01*
X328587349Y-102603534D02*
X328423534Y-102767349D01*
%TO.C,D24*%
X188091250Y-125412500D02*
X188091250Y-126062500D01*
X184971250Y-125412500D02*
X184971250Y-123737500D01*
X184971250Y-125412500D02*
X184971250Y-126062500D01*
X188091250Y-125412500D02*
X188091250Y-124762500D01*
%TO.C,C_DECOUP1*%
X326458335Y-115820000D02*
X326226665Y-115820000D01*
X326458335Y-116540000D02*
X326226665Y-116540000D01*
%TO.C,D39*%
X290485000Y-87312500D02*
X290485000Y-86662500D01*
X287365000Y-87312500D02*
X287365000Y-85637500D01*
X290485000Y-87312500D02*
X290485000Y-87962500D01*
X287365000Y-87312500D02*
X287365000Y-87962500D01*
%TO.C,D12*%
X108771250Y-125412500D02*
X108771250Y-126062500D01*
X111891250Y-125412500D02*
X111891250Y-124762500D01*
X111891250Y-125412500D02*
X111891250Y-126062500D01*
X108771250Y-125412500D02*
X108771250Y-123737500D01*
%TO.C,D22*%
X173803750Y-87312500D02*
X173803750Y-87962500D01*
X173803750Y-87312500D02*
X173803750Y-86662500D01*
X170683750Y-87312500D02*
X170683750Y-85637500D01*
X170683750Y-87312500D02*
X170683750Y-87962500D01*
%TO.C,D11*%
X99246250Y-106362500D02*
X99246250Y-104687500D01*
X102366250Y-106362500D02*
X102366250Y-105712500D01*
X102366250Y-106362500D02*
X102366250Y-107012500D01*
X99246250Y-106362500D02*
X99246250Y-107012500D01*
%TO.C,D8*%
X89721250Y-44450000D02*
X89721250Y-42775000D01*
X92841250Y-44450000D02*
X92841250Y-43800000D01*
X92841250Y-44450000D02*
X92841250Y-45100000D01*
X89721250Y-44450000D02*
X89721250Y-45100000D01*
%TO.C,D34*%
X267466250Y-125412500D02*
X267466250Y-126062500D01*
X264346250Y-125412500D02*
X264346250Y-126062500D01*
X267466250Y-125412500D02*
X267466250Y-124762500D01*
X264346250Y-125412500D02*
X264346250Y-123737500D01*
%TO.C,D18*%
X316300000Y-39725000D02*
X318700000Y-39725000D01*
X318700000Y-42825000D02*
X315750000Y-42825000D01*
%TO.C,D32*%
X250003750Y-87312500D02*
X250003750Y-86662500D01*
X246883750Y-87312500D02*
X246883750Y-85637500D01*
X246883750Y-87312500D02*
X246883750Y-87962500D01*
X250003750Y-87312500D02*
X250003750Y-87962500D01*
%TO.C,D5*%
X56383750Y-106362500D02*
X56383750Y-104687500D01*
X59503750Y-106362500D02*
X59503750Y-107012500D01*
X56383750Y-106362500D02*
X56383750Y-107012500D01*
X59503750Y-106362500D02*
X59503750Y-105712500D01*
%TO.C,R_INDICATOR1*%
X45470814Y-113447500D02*
X45016686Y-113447500D01*
X45470814Y-111977500D02*
X45016686Y-111977500D01*
%TO.C,D50*%
X371680000Y-148180000D02*
X371680000Y-144280000D01*
X369680000Y-148180000D02*
X369680000Y-144280000D01*
X371680000Y-148180000D02*
X369680000Y-148180000D01*
%TO.C,D15*%
X123058750Y-68262500D02*
X123058750Y-68912500D01*
X126178750Y-68262500D02*
X126178750Y-67612500D01*
X123058750Y-68262500D02*
X123058750Y-66587500D01*
X126178750Y-68262500D02*
X126178750Y-68912500D01*
%TO.C,R_DATA2*%
X313835000Y-103742936D02*
X313835000Y-104197064D01*
X315305000Y-103742936D02*
X315305000Y-104197064D01*
%TO.C,C_DECOUP3*%
X332890000Y-110405835D02*
X332890000Y-110174165D01*
X333610000Y-110405835D02*
X333610000Y-110174165D01*
%TO.C,D41*%
X327791250Y-125412500D02*
X327791250Y-124762500D01*
X324671250Y-125412500D02*
X324671250Y-123737500D01*
X327791250Y-125412500D02*
X327791250Y-126062500D01*
X324671250Y-125412500D02*
X324671250Y-126062500D01*
%TO.C,D13*%
X125440000Y-145256250D02*
X125440000Y-145906250D01*
X128560000Y-145256250D02*
X128560000Y-145906250D01*
X128560000Y-145256250D02*
X128560000Y-144606250D01*
X125440000Y-145256250D02*
X125440000Y-143581250D01*
%TO.C,D31*%
X237358750Y-68262500D02*
X237358750Y-68912500D01*
X237358750Y-68262500D02*
X237358750Y-66587500D01*
X240478750Y-68262500D02*
X240478750Y-67612500D01*
X240478750Y-68262500D02*
X240478750Y-68912500D01*
%TO.C,D27*%
X216666250Y-106362500D02*
X216666250Y-107012500D01*
X213546250Y-106362500D02*
X213546250Y-107012500D01*
X216666250Y-106362500D02*
X216666250Y-105712500D01*
X213546250Y-106362500D02*
X213546250Y-104687500D01*
%TO.C,F1*%
X322010000Y-42991422D02*
X322010000Y-43508578D01*
X320590000Y-42991422D02*
X320590000Y-43508578D01*
%TO.C,D7*%
X88693750Y-126868750D02*
X88693750Y-122968750D01*
X90693750Y-126868750D02*
X88693750Y-126868750D01*
X90693750Y-126868750D02*
X90693750Y-122968750D01*
%TO.C,D16*%
X132583750Y-87312500D02*
X132583750Y-87962500D01*
X135703750Y-87312500D02*
X135703750Y-87962500D01*
X135703750Y-87312500D02*
X135703750Y-86662500D01*
X132583750Y-87312500D02*
X132583750Y-85637500D01*
%TO.C,C_DECOUP2*%
X318365000Y-110226248D02*
X318365000Y-110748752D01*
X319835000Y-110226248D02*
X319835000Y-110748752D01*
%TO.C,D45*%
X340460000Y-143990000D02*
X340460000Y-143340000D01*
X340460000Y-143990000D02*
X340460000Y-144640000D01*
X337340000Y-143990000D02*
X337340000Y-142315000D01*
X337340000Y-143990000D02*
X337340000Y-144640000D01*
%TO.C,D38*%
X292072500Y-145256250D02*
X292072500Y-145906250D01*
X288952500Y-145256250D02*
X288952500Y-145906250D01*
X292072500Y-145256250D02*
X292072500Y-144606250D01*
X288952500Y-145256250D02*
X288952500Y-143581250D01*
%TO.C,Y1*%
X332278579Y-106689950D02*
X331995736Y-106972792D01*
X332420000Y-106831371D02*
X332137157Y-107114214D01*
X331712893Y-103295837D02*
X331147208Y-102730152D01*
X333692792Y-105275736D02*
X332985686Y-104568629D01*
X333834214Y-105417157D02*
X332420000Y-106831371D01*
X331147208Y-102730152D02*
X329732994Y-104144365D01*
X329450152Y-104427208D02*
X330015837Y-104992893D01*
X331288629Y-106265686D02*
X331005787Y-106548528D01*
X331288629Y-106265686D02*
X331995736Y-106972792D01*
X332278579Y-106689950D02*
X333692792Y-105275736D01*
X329732994Y-104144365D02*
X329450152Y-104427208D01*
%TO.C,U1*%
X326900000Y-115405311D02*
X327412652Y-114892659D01*
X326387348Y-114892659D02*
X326900000Y-115405311D01*
X331492659Y-109787348D02*
X332005311Y-110300000D01*
X326900000Y-105194689D02*
X326387348Y-105707341D01*
X322307341Y-110812652D02*
X321794689Y-110300000D01*
X327412652Y-105707341D02*
X326900000Y-105194689D01*
X332005311Y-110300000D02*
X331492659Y-110812652D01*
%TO.C,D9*%
X84958750Y-68262500D02*
X84958750Y-66587500D01*
X88078750Y-68262500D02*
X88078750Y-67612500D01*
X84958750Y-68262500D02*
X84958750Y-68912500D01*
X88078750Y-68262500D02*
X88078750Y-68912500D01*
%TO.C,D37*%
X285777500Y-107950000D02*
X285777500Y-106275000D01*
X285777500Y-107950000D02*
X285777500Y-108600000D01*
X288897500Y-107950000D02*
X288897500Y-107300000D01*
X288897500Y-107950000D02*
X288897500Y-108600000D01*
%TO.C,D28*%
X214285000Y-45243750D02*
X214285000Y-44593750D01*
X211165000Y-45243750D02*
X211165000Y-43568750D01*
X214285000Y-45243750D02*
X214285000Y-45893750D01*
X211165000Y-45243750D02*
X211165000Y-45893750D01*
%TO.C,D19*%
X149991250Y-125412500D02*
X149991250Y-126062500D01*
X146871250Y-125412500D02*
X146871250Y-126062500D01*
X146871250Y-125412500D02*
X146871250Y-123737500D01*
X149991250Y-125412500D02*
X149991250Y-124762500D01*
%TO.C,D21*%
X161158750Y-68262500D02*
X161158750Y-66587500D01*
X164278750Y-68262500D02*
X164278750Y-67612500D01*
X164278750Y-68262500D02*
X164278750Y-68912500D01*
X161158750Y-68262500D02*
X161158750Y-68912500D01*
%TO.C,D20*%
X173803750Y-44450000D02*
X173803750Y-43800000D01*
X173803750Y-44450000D02*
X173803750Y-45100000D01*
X170683750Y-44450000D02*
X170683750Y-45100000D01*
X170683750Y-44450000D02*
X170683750Y-42775000D01*
%TO.C,D44*%
X337371250Y-87312500D02*
X337371250Y-85637500D01*
X340491250Y-87312500D02*
X340491250Y-86662500D01*
X340491250Y-87312500D02*
X340491250Y-87962500D01*
X337371250Y-87312500D02*
X337371250Y-87962500D01*
%TO.C,D23*%
X178566250Y-106362500D02*
X178566250Y-107012500D01*
X175446250Y-106362500D02*
X175446250Y-104687500D01*
X178566250Y-106362500D02*
X178566250Y-105712500D01*
X175446250Y-106362500D02*
X175446250Y-107012500D01*
%TO.C,D40*%
X292127500Y-45243750D02*
X292127500Y-45893750D01*
X295247500Y-45243750D02*
X295247500Y-44593750D01*
X292127500Y-45243750D02*
X292127500Y-43568750D01*
X295247500Y-45243750D02*
X295247500Y-45893750D01*
%TO.C,D14*%
X133322500Y-45243750D02*
X133322500Y-45893750D01*
X133322500Y-45243750D02*
X133322500Y-44593750D01*
X130202500Y-45243750D02*
X130202500Y-43568750D01*
X130202500Y-45243750D02*
X130202500Y-45893750D01*
%TO.C,D10*%
X97603750Y-87312500D02*
X97603750Y-87962500D01*
X97603750Y-87312500D02*
X97603750Y-86662500D01*
X94483750Y-87312500D02*
X94483750Y-85637500D01*
X94483750Y-87312500D02*
X94483750Y-87962500D01*
%TO.C,D25*%
X202378750Y-68262500D02*
X202378750Y-68912500D01*
X199258750Y-68262500D02*
X199258750Y-66587500D01*
X202378750Y-68262500D02*
X202378750Y-67612500D01*
X199258750Y-68262500D02*
X199258750Y-68912500D01*
%TD*%
%LPC*%
D16*
%TO.C,MX14*%
X72231250Y-104775000D03*
D17*
X77311250Y-104775000D03*
X67151250Y-104775000D03*
D18*
X69031250Y-101525000D03*
D19*
X74781250Y-99975000D03*
%TD*%
D16*
%TO.C,MX62*%
X224631250Y-42862500D03*
D17*
X229711250Y-42862500D03*
X219551250Y-42862500D03*
D18*
X221431250Y-39612500D03*
D19*
X227181250Y-38062500D03*
%TD*%
D17*
%TO.C,MX60*%
X236855000Y-142875000D03*
X226695000Y-142875000D03*
D16*
X231775000Y-142875000D03*
D20*
X228625000Y-139625000D03*
D21*
X234325000Y-138025000D03*
%TD*%
D16*
%TO.C,MX94*%
X329406250Y-142875000D03*
D17*
X334486250Y-142875000D03*
X324326250Y-142875000D03*
D18*
X326206250Y-139625000D03*
D19*
X331956250Y-138075000D03*
%TD*%
D16*
%TO.C,MX75*%
X267493750Y-66675000D03*
D17*
X272573750Y-66675000D03*
X262413750Y-66675000D03*
D18*
X264293750Y-63425000D03*
D19*
X270043750Y-61875000D03*
%TD*%
D16*
%TO.C,MX85*%
X305593750Y-123825000D03*
D17*
X300513750Y-123825000D03*
X310673750Y-123825000D03*
D18*
X302393750Y-120575000D03*
D19*
X308143750Y-119025000D03*
%TD*%
D22*
%TO.C,*%
X364400000Y-96400000D03*
%TD*%
%TO.C,*%
X96000000Y-94600000D03*
%TD*%
D16*
%TO.C,MX49*%
X186531250Y-104775000D03*
D17*
X181451250Y-104775000D03*
X191611250Y-104775000D03*
D18*
X183331250Y-101525000D03*
D19*
X189081250Y-99975000D03*
%TD*%
D17*
%TO.C,MX27*%
X105251250Y-104775000D03*
D16*
X110331250Y-104775000D03*
D17*
X115411250Y-104775000D03*
D18*
X107131250Y-101525000D03*
D19*
X112881250Y-99975000D03*
%TD*%
D16*
%TO.C,MX74*%
X262731250Y-42862500D03*
D17*
X267811250Y-42862500D03*
X257651250Y-42862500D03*
D18*
X259531250Y-39612500D03*
D19*
X265281250Y-38062500D03*
%TD*%
D17*
%TO.C,MX16*%
X72548750Y-142875000D03*
X62388750Y-142875000D03*
D16*
X67468750Y-142875000D03*
D18*
X64268750Y-139625000D03*
D19*
X70018750Y-138075000D03*
%TD*%
D17*
%TO.C,MX2*%
X36195000Y-123825000D03*
D16*
X41275000Y-123825000D03*
D17*
X46355000Y-123825000D03*
D20*
X38125000Y-120575000D03*
D21*
X43825000Y-118975000D03*
%TD*%
D16*
%TO.C,MX104*%
X288925000Y-123825000D03*
X276987000Y-132080000D03*
D23*
X276987000Y-116840000D03*
D16*
X300863000Y-132080000D03*
D17*
X294005000Y-123825000D03*
D23*
X300863000Y-116840000D03*
D17*
X283845000Y-123825000D03*
D20*
X285775000Y-120525000D03*
D21*
X291425000Y-119025000D03*
%TD*%
D22*
%TO.C,*%
X267500000Y-94600000D03*
%TD*%
D17*
%TO.C,MX20*%
X81438750Y-85725000D03*
X91598750Y-85725000D03*
D16*
X86518750Y-85725000D03*
D18*
X83318750Y-82475000D03*
D19*
X89068750Y-80925000D03*
%TD*%
D17*
%TO.C,MX33*%
X114776250Y-123825000D03*
X124936250Y-123825000D03*
D16*
X119856250Y-123825000D03*
D18*
X116656250Y-120575000D03*
D19*
X122406250Y-119025000D03*
%TD*%
D16*
%TO.C,MX48*%
X181768750Y-85725000D03*
D17*
X176688750Y-85725000D03*
X186848750Y-85725000D03*
D18*
X178568750Y-82475000D03*
D19*
X184318750Y-80925000D03*
%TD*%
D17*
%TO.C,MX31*%
X119538750Y-85725000D03*
X129698750Y-85725000D03*
D16*
X124618750Y-85725000D03*
D18*
X121418750Y-82475000D03*
D19*
X127168750Y-80925000D03*
%TD*%
D23*
%TO.C,MX45*%
X229393750Y-149860000D03*
D16*
X229393750Y-134620000D03*
X115093750Y-134620000D03*
X172243750Y-142875000D03*
D17*
X167163750Y-142875000D03*
D23*
X115093750Y-149860000D03*
D17*
X177323750Y-142875000D03*
D20*
X169093750Y-139625000D03*
D21*
X174743750Y-138075000D03*
%TD*%
D17*
%TO.C,MX73*%
X274320000Y-142875000D03*
X284480000Y-142875000D03*
D16*
X279400000Y-142875000D03*
D20*
X276250000Y-139625000D03*
D21*
X281950000Y-138025000D03*
%TD*%
D17*
%TO.C,MX84*%
X298767500Y-104775000D03*
D23*
X305625500Y-111760000D03*
X281749500Y-111760000D03*
D16*
X293687500Y-104775000D03*
D17*
X288607500Y-104775000D03*
D16*
X281749500Y-96520000D03*
X305625500Y-96520000D03*
D20*
X290537500Y-101525000D03*
D21*
X296237500Y-99975000D03*
%TD*%
D17*
%TO.C,MX91*%
X324326250Y-42862500D03*
X334486250Y-42862500D03*
D16*
X329406250Y-42862500D03*
D18*
X326206250Y-39612500D03*
D19*
X331956250Y-38062500D03*
%TD*%
D16*
%TO.C,MX11*%
X62706250Y-42862500D03*
D17*
X57626250Y-42862500D03*
X67786250Y-42862500D03*
D18*
X59506250Y-39612500D03*
D19*
X65256250Y-38062500D03*
%TD*%
D17*
%TO.C,MX22*%
X86836250Y-123825000D03*
D16*
X81756250Y-123825000D03*
D17*
X76676250Y-123825000D03*
D18*
X78556250Y-120575000D03*
D19*
X84306250Y-119025000D03*
%TD*%
D17*
%TO.C,MX51*%
X205898750Y-42862500D03*
X195738750Y-42862500D03*
D16*
X200818750Y-42862500D03*
D18*
X197618750Y-39612500D03*
D19*
X203368750Y-38062500D03*
%TD*%
D17*
%TO.C,MX3*%
X36195000Y-142875000D03*
X46355000Y-142875000D03*
D16*
X41275000Y-142875000D03*
D20*
X38125000Y-139625000D03*
D21*
X43825000Y-138025000D03*
%TD*%
D17*
%TO.C,MX54*%
X200501250Y-104775000D03*
D16*
X205581250Y-104775000D03*
D17*
X210661250Y-104775000D03*
D18*
X202381250Y-101525000D03*
D19*
X208131250Y-99975000D03*
%TD*%
D16*
%TO.C,MX43*%
X167481250Y-104775000D03*
D17*
X162401250Y-104775000D03*
X172561250Y-104775000D03*
D18*
X164281250Y-101525000D03*
D19*
X170031250Y-99975000D03*
%TD*%
D17*
%TO.C,MX30*%
X120173750Y-66675000D03*
X110013750Y-66675000D03*
D16*
X115093750Y-66675000D03*
D18*
X111893750Y-63425000D03*
D19*
X117643750Y-61875000D03*
%TD*%
D17*
%TO.C,MX65*%
X248761250Y-104775000D03*
X238601250Y-104775000D03*
D16*
X243681250Y-104775000D03*
D18*
X240481250Y-101525000D03*
D19*
X246231250Y-99975000D03*
%TD*%
D17*
%TO.C,MX35*%
X129063750Y-66675000D03*
D16*
X134143750Y-66675000D03*
D17*
X139223750Y-66675000D03*
D18*
X130943750Y-63425000D03*
D19*
X136693750Y-61875000D03*
%TD*%
D16*
%TO.C,MX79*%
X277018750Y-142875000D03*
D17*
X271938750Y-142875000D03*
X282098750Y-142875000D03*
D18*
X273818750Y-139625000D03*
D19*
X279568750Y-138075000D03*
%TD*%
D22*
%TO.C,*%
X191300000Y-94600000D03*
%TD*%
D16*
%TO.C,MX102*%
X367506250Y-85725000D03*
D17*
X372586250Y-85725000D03*
X362426250Y-85725000D03*
D18*
X364306250Y-82475000D03*
D19*
X370056250Y-80925000D03*
%TD*%
D17*
%TO.C,MX6*%
X48736250Y-85725000D03*
D16*
X43656250Y-85725000D03*
D17*
X38576250Y-85725000D03*
D24*
X40506250Y-82475000D03*
D21*
X46206250Y-80925000D03*
%TD*%
D17*
%TO.C,MX10*%
X70167500Y-142875000D03*
X60007500Y-142875000D03*
D16*
X65087500Y-142875000D03*
D20*
X61937500Y-139625000D03*
D21*
X67637500Y-138025000D03*
%TD*%
D17*
%TO.C,MX95*%
X353536250Y-42862500D03*
D16*
X348456250Y-42862500D03*
D17*
X343376250Y-42862500D03*
D24*
X345306250Y-39612500D03*
D21*
X350956250Y-38062500D03*
D25*
X347186250Y-47942500D03*
D26*
X349726250Y-47942500D03*
%TD*%
D16*
%TO.C,MX89*%
X308006750Y-74930000D03*
D23*
X284130750Y-59690000D03*
X308006750Y-59690000D03*
D17*
X301148750Y-66675000D03*
D16*
X296068750Y-66675000D03*
D17*
X290988750Y-66675000D03*
D16*
X284130750Y-74930000D03*
D20*
X292918750Y-63425000D03*
D21*
X298568750Y-61875000D03*
%TD*%
D16*
%TO.C,MX25*%
X96043750Y-66675000D03*
D17*
X101123750Y-66675000D03*
X90963750Y-66675000D03*
D18*
X92843750Y-63425000D03*
D19*
X98593750Y-61875000D03*
%TD*%
D17*
%TO.C,MX82*%
X276701250Y-42862500D03*
X286861250Y-42862500D03*
D16*
X281781250Y-42862500D03*
D18*
X278581250Y-39612500D03*
D19*
X284331250Y-38062500D03*
%TD*%
D16*
%TO.C,MX18*%
X81756250Y-42862500D03*
D17*
X86836250Y-42862500D03*
X76676250Y-42862500D03*
D18*
X78556250Y-39612500D03*
D19*
X84306250Y-38062500D03*
%TD*%
D17*
%TO.C,MX68*%
X248761250Y-42862500D03*
D16*
X243681250Y-42862500D03*
D17*
X238601250Y-42862500D03*
D18*
X240481250Y-39612500D03*
D19*
X246231250Y-38062500D03*
%TD*%
D16*
%TO.C,MX77*%
X281781250Y-104775000D03*
D17*
X276701250Y-104775000D03*
X286861250Y-104775000D03*
D18*
X278581250Y-101525000D03*
D19*
X284331250Y-99975000D03*
%TD*%
D17*
%TO.C,MX46*%
X176688750Y-42862500D03*
D16*
X181768750Y-42862500D03*
D17*
X186848750Y-42862500D03*
D18*
X178568750Y-39612500D03*
D19*
X184318750Y-38062500D03*
%TD*%
D16*
%TO.C,MX26*%
X105568750Y-85725000D03*
D17*
X100488750Y-85725000D03*
X110648750Y-85725000D03*
D18*
X102368750Y-82475000D03*
D19*
X108118750Y-80925000D03*
%TD*%
D16*
%TO.C,MX19*%
X76993750Y-66675000D03*
D17*
X71913750Y-66675000D03*
X82073750Y-66675000D03*
D18*
X73793750Y-63425000D03*
D19*
X79543750Y-61875000D03*
%TD*%
D17*
%TO.C,MX8*%
X55880000Y-123825000D03*
D16*
X50800000Y-123825000D03*
D23*
X38862000Y-116840000D03*
D16*
X38862000Y-132080000D03*
D23*
X62738000Y-116840000D03*
D17*
X45720000Y-123825000D03*
D16*
X62738000Y-132080000D03*
D20*
X47650000Y-120575000D03*
D21*
X53300000Y-119025000D03*
%TD*%
D17*
%TO.C,MX36*%
X148748750Y-85725000D03*
X138588750Y-85725000D03*
D16*
X143668750Y-85725000D03*
D18*
X140468750Y-82475000D03*
D19*
X146218750Y-80925000D03*
%TD*%
D17*
%TO.C,MX42*%
X157638750Y-85725000D03*
X167798750Y-85725000D03*
D16*
X162718750Y-85725000D03*
D18*
X159518750Y-82475000D03*
D19*
X165268750Y-80925000D03*
%TD*%
D17*
%TO.C,MX83*%
X281463750Y-66675000D03*
X291623750Y-66675000D03*
D16*
X286543750Y-66675000D03*
D18*
X283343750Y-63425000D03*
D19*
X289093750Y-61875000D03*
%TD*%
D17*
%TO.C,MX23*%
X96361250Y-142875000D03*
D16*
X91281250Y-142875000D03*
D17*
X86201250Y-142875000D03*
D24*
X88131250Y-139625000D03*
D21*
X93831250Y-138075000D03*
%TD*%
D17*
%TO.C,MX38*%
X133826250Y-123825000D03*
X143986250Y-123825000D03*
D16*
X138906250Y-123825000D03*
D18*
X135706250Y-120575000D03*
D19*
X141456250Y-119025000D03*
%TD*%
D17*
%TO.C,MX1*%
X36195000Y-104775000D03*
D16*
X41275000Y-104775000D03*
D17*
X46355000Y-104775000D03*
D20*
X38125000Y-101500000D03*
D21*
X43800000Y-100000000D03*
D25*
X40005000Y-109855000D03*
D26*
X42545000Y-109855000D03*
%TD*%
D27*
%TO.C,J4*%
X347650000Y-95720000D03*
D28*
X347650000Y-93180000D03*
X350190000Y-95720000D03*
X350190000Y-93180000D03*
X352730000Y-95720000D03*
X352730000Y-93180000D03*
%TD*%
D17*
%TO.C,MX29*%
X124936250Y-42862500D03*
X114776250Y-42862500D03*
D16*
X119856250Y-42862500D03*
D18*
X116656250Y-39612500D03*
D19*
X122406250Y-38062500D03*
%TD*%
D16*
%TO.C,MX34*%
X143668750Y-42862500D03*
D17*
X138588750Y-42862500D03*
X148748750Y-42862500D03*
D18*
X140468750Y-39612500D03*
D19*
X146218750Y-38062500D03*
%TD*%
D17*
%TO.C,MX100*%
X372586250Y-42862500D03*
D16*
X367506250Y-42862500D03*
D17*
X362426250Y-42862500D03*
D18*
X364306250Y-39612500D03*
D19*
X370056250Y-38062500D03*
%TD*%
D17*
%TO.C,MX64*%
X243998750Y-85725000D03*
D16*
X238918750Y-85725000D03*
D17*
X233838750Y-85725000D03*
D18*
X235718750Y-82475000D03*
D19*
X241468750Y-80925000D03*
%TD*%
D17*
%TO.C,MX90*%
X305911250Y-85725000D03*
X295751250Y-85725000D03*
D16*
X300831250Y-85725000D03*
D24*
X297681250Y-82475000D03*
D21*
X303381250Y-80925000D03*
%TD*%
D16*
%TO.C,MX28*%
X100806250Y-123825000D03*
D17*
X95726250Y-123825000D03*
X105886250Y-123825000D03*
D18*
X97606250Y-120575000D03*
D19*
X103356250Y-119025000D03*
%TD*%
D17*
%TO.C,MX57*%
X224948750Y-85725000D03*
D16*
X219868750Y-85725000D03*
D17*
X214788750Y-85725000D03*
D18*
X216668750Y-82475000D03*
D19*
X222418750Y-80925000D03*
%TD*%
D17*
%TO.C,MX61*%
X260667500Y-142875000D03*
D16*
X255587500Y-142875000D03*
D17*
X250507500Y-142875000D03*
D20*
X252437500Y-139625000D03*
D21*
X258137500Y-138025000D03*
%TD*%
D16*
%TO.C,MX32*%
X129381250Y-104775000D03*
D17*
X134461250Y-104775000D03*
X124301250Y-104775000D03*
D18*
X126181250Y-101525000D03*
D19*
X131931250Y-99975000D03*
%TD*%
D27*
%TO.C,J2*%
X373600000Y-102265000D03*
D28*
X373600000Y-104805000D03*
X373600000Y-107345000D03*
%TD*%
D16*
%TO.C,MX5*%
X38893750Y-66675000D03*
D17*
X43973750Y-66675000D03*
X33813750Y-66675000D03*
D18*
X35693750Y-63425000D03*
D19*
X41443750Y-61875000D03*
%TD*%
D17*
%TO.C,MX12*%
X52863750Y-66675000D03*
D16*
X57943750Y-66675000D03*
D17*
X63023750Y-66675000D03*
D18*
X54743750Y-63425000D03*
D19*
X60493750Y-61875000D03*
%TD*%
D23*
%TO.C,MX39*%
X210337400Y-149860000D03*
D16*
X160337500Y-142875000D03*
D17*
X155257500Y-142875000D03*
D23*
X110337600Y-149860000D03*
D17*
X165417500Y-142875000D03*
D16*
X210337400Y-134620000D03*
X110337600Y-134620000D03*
D20*
X157187500Y-139625000D03*
D21*
X162887500Y-138075000D03*
%TD*%
D17*
%TO.C,MX50*%
X182086250Y-123825000D03*
D16*
X177006250Y-123825000D03*
D17*
X171926250Y-123825000D03*
D18*
X173806250Y-120575000D03*
D19*
X179556250Y-119025000D03*
%TD*%
D17*
%TO.C,MX17*%
X83820000Y-142875000D03*
X93980000Y-142875000D03*
D16*
X88900000Y-142875000D03*
D20*
X85750000Y-139625000D03*
D21*
X91450000Y-138025000D03*
%TD*%
D17*
%TO.C,MX81*%
X298132500Y-142875000D03*
X308292500Y-142875000D03*
D16*
X303212500Y-142875000D03*
D20*
X300062500Y-139625000D03*
D21*
X305762500Y-138025000D03*
%TD*%
D17*
%TO.C,MX97*%
X343376250Y-85725000D03*
D16*
X348456250Y-85725000D03*
D17*
X353536250Y-85725000D03*
D18*
X345256250Y-82475000D03*
D19*
X351006250Y-80925000D03*
%TD*%
D17*
%TO.C,MX21*%
X86201250Y-104775000D03*
D16*
X91281250Y-104775000D03*
D17*
X96361250Y-104775000D03*
D18*
X88081250Y-101525000D03*
D19*
X93831250Y-99975000D03*
%TD*%
D16*
%TO.C,MX53*%
X200818750Y-85725000D03*
D17*
X205898750Y-85725000D03*
X195738750Y-85725000D03*
D18*
X197618750Y-82475000D03*
D19*
X203368750Y-80925000D03*
%TD*%
D17*
%TO.C,MX44*%
X163036250Y-123825000D03*
D16*
X157956250Y-123825000D03*
D17*
X152876250Y-123825000D03*
D18*
X154756250Y-120575000D03*
D19*
X160506250Y-119025000D03*
%TD*%
D17*
%TO.C,MX24*%
X105886250Y-42862500D03*
D16*
X100806250Y-42862500D03*
D17*
X95726250Y-42862500D03*
D18*
X97606250Y-39612500D03*
D19*
X103356250Y-38062500D03*
%TD*%
D16*
%TO.C,MX72*%
X253206250Y-123825000D03*
D17*
X258286250Y-123825000D03*
X248126250Y-123825000D03*
D18*
X250006250Y-120575000D03*
D19*
X255756250Y-119025000D03*
%TD*%
D17*
%TO.C,MX37*%
X143351250Y-104775000D03*
X153511250Y-104775000D03*
D16*
X148431250Y-104775000D03*
D18*
X145231250Y-101525000D03*
D19*
X150981250Y-99975000D03*
%TD*%
D16*
%TO.C,MX52*%
X191293750Y-66675000D03*
D17*
X186213750Y-66675000D03*
X196373750Y-66675000D03*
D18*
X188093750Y-63425000D03*
D19*
X193843750Y-61875000D03*
%TD*%
D16*
%TO.C,MX9*%
X43656250Y-142875000D03*
D17*
X48736250Y-142875000D03*
X38576250Y-142875000D03*
D24*
X40506250Y-139625000D03*
D21*
X46206250Y-138075000D03*
%TD*%
D17*
%TO.C,MX4*%
X33813750Y-42862500D03*
D16*
X38893750Y-42862500D03*
D17*
X43973750Y-42862500D03*
D24*
X35743750Y-39612500D03*
D21*
X41393750Y-38062500D03*
D25*
X37623750Y-47942500D03*
D26*
X40163750Y-47942500D03*
%TD*%
D17*
%TO.C,MX93*%
X324326250Y-85725000D03*
D16*
X329406250Y-85725000D03*
D17*
X334486250Y-85725000D03*
D18*
X326206250Y-82475000D03*
D19*
X331956250Y-80925000D03*
%TD*%
D17*
%TO.C,MX96*%
X343376250Y-66675000D03*
D16*
X348456250Y-66675000D03*
D17*
X353536250Y-66675000D03*
D18*
X345256250Y-63425000D03*
D19*
X351006250Y-61875000D03*
%TD*%
D23*
%TO.C,MX80*%
X310197500Y-83312000D03*
D29*
X303212500Y-100330000D03*
X303212500Y-90170000D03*
D16*
X294957500Y-107188000D03*
X303212500Y-95250000D03*
D23*
X310197500Y-107188000D03*
D16*
X294957500Y-83312000D03*
D30*
X308012500Y-97750000D03*
D31*
X306462500Y-92100000D03*
%TD*%
D17*
%TO.C,MX92*%
X324326250Y-66675000D03*
D16*
X329406250Y-66675000D03*
D17*
X334486250Y-66675000D03*
D18*
X326206250Y-63425000D03*
D19*
X331956250Y-61875000D03*
%TD*%
D16*
%TO.C,MX71*%
X262731250Y-104775000D03*
D17*
X267811250Y-104775000D03*
X257651250Y-104775000D03*
D18*
X259531250Y-101525000D03*
D19*
X265281250Y-99975000D03*
%TD*%
D17*
%TO.C,MX70*%
X263048750Y-85725000D03*
X252888750Y-85725000D03*
D16*
X257968750Y-85725000D03*
D18*
X254768750Y-82475000D03*
D19*
X260518750Y-80925000D03*
%TD*%
D16*
%TO.C,MX103*%
X367506250Y-142875000D03*
D17*
X372586250Y-142875000D03*
X362426250Y-142875000D03*
D18*
X364306250Y-139625000D03*
D19*
X370056250Y-138075000D03*
%TD*%
D17*
%TO.C,MX56*%
X215423750Y-66675000D03*
D16*
X210343750Y-66675000D03*
D17*
X205263750Y-66675000D03*
D18*
X207143750Y-63425000D03*
D19*
X212893750Y-61875000D03*
%TD*%
D17*
%TO.C,MX88*%
X300513750Y-42862500D03*
X310673750Y-42862500D03*
D16*
X305593750Y-42862500D03*
D18*
X302393750Y-39612500D03*
D19*
X308143750Y-38062500D03*
%TD*%
D17*
%TO.C,MX40*%
X167798750Y-42862500D03*
D16*
X162718750Y-42862500D03*
D17*
X157638750Y-42862500D03*
D18*
X159518750Y-39612500D03*
D19*
X165268750Y-38062500D03*
%TD*%
D17*
%TO.C,MX7*%
X51117500Y-104775000D03*
D16*
X46037500Y-104775000D03*
D17*
X40957500Y-104775000D03*
D24*
X42887500Y-101525000D03*
D21*
X48537500Y-99975000D03*
D25*
X44767500Y-109855000D03*
D26*
X47307500Y-109855000D03*
%TD*%
D16*
%TO.C,MX99*%
X348456250Y-142875000D03*
D17*
X343376250Y-142875000D03*
X353536250Y-142875000D03*
D18*
X345256250Y-139625000D03*
D19*
X351006250Y-138075000D03*
%TD*%
D17*
%TO.C,MX86*%
X295751250Y-142875000D03*
D16*
X300831250Y-142875000D03*
D17*
X305911250Y-142875000D03*
D24*
X297681250Y-139625000D03*
D21*
X303381250Y-138075000D03*
%TD*%
D17*
%TO.C,MX67*%
X248126250Y-142875000D03*
X258286250Y-142875000D03*
D16*
X253206250Y-142875000D03*
D24*
X250056250Y-139625000D03*
D21*
X255756250Y-138075000D03*
%TD*%
D17*
%TO.C,MX87*%
X310673750Y-66675000D03*
D16*
X305593750Y-66675000D03*
D17*
X300513750Y-66675000D03*
D18*
X302393750Y-63425000D03*
D19*
X308143750Y-61875000D03*
%TD*%
D17*
%TO.C,MX59*%
X210026250Y-123825000D03*
D16*
X215106250Y-123825000D03*
D17*
X220186250Y-123825000D03*
D18*
X211906250Y-120575000D03*
D19*
X217656250Y-119025000D03*
%TD*%
D16*
%TO.C,MX58*%
X224631250Y-104775000D03*
D17*
X219551250Y-104775000D03*
X229711250Y-104775000D03*
D18*
X221431250Y-101525000D03*
D19*
X227181250Y-99975000D03*
%TD*%
D16*
%TO.C,MX78*%
X279400000Y-123825000D03*
D17*
X284480000Y-123825000D03*
X274320000Y-123825000D03*
D24*
X276250000Y-120575000D03*
D21*
X281900000Y-119025000D03*
%TD*%
D16*
%TO.C,MX13*%
X67468750Y-85725000D03*
D17*
X62388750Y-85725000D03*
X72548750Y-85725000D03*
D18*
X64268750Y-82475000D03*
D19*
X70018750Y-80925000D03*
%TD*%
D17*
%TO.C,MX98*%
X343376250Y-123825000D03*
X353536250Y-123825000D03*
D16*
X348456250Y-123825000D03*
D18*
X345256250Y-120575000D03*
D19*
X351006250Y-119025000D03*
%TD*%
D16*
%TO.C,MX15*%
X62680000Y-123825000D03*
D17*
X57600000Y-123825000D03*
X67760000Y-123825000D03*
D18*
X59480000Y-120575000D03*
D19*
X65230000Y-119025000D03*
%TD*%
D17*
%TO.C,MX63*%
X234473750Y-66675000D03*
X224313750Y-66675000D03*
D16*
X229393750Y-66675000D03*
D18*
X226193750Y-63425000D03*
D19*
X231943750Y-61875000D03*
%TD*%
D17*
%TO.C,MX66*%
X229076250Y-123825000D03*
X239236250Y-123825000D03*
D16*
X234156250Y-123825000D03*
D18*
X230956250Y-120575000D03*
D19*
X236706250Y-119025000D03*
%TD*%
D16*
%TO.C,MX76*%
X277018750Y-85725000D03*
D17*
X282098750Y-85725000D03*
X271938750Y-85725000D03*
D18*
X273818750Y-82475000D03*
D19*
X279568750Y-80925000D03*
%TD*%
D17*
%TO.C,MX47*%
X167163750Y-66675000D03*
D16*
X172243750Y-66675000D03*
D17*
X177323750Y-66675000D03*
D18*
X169043750Y-63425000D03*
D19*
X174793750Y-61875000D03*
%TD*%
D16*
%TO.C,MX101*%
X367506250Y-66675000D03*
D17*
X362426250Y-66675000D03*
X372586250Y-66675000D03*
D18*
X364306250Y-63425000D03*
D19*
X370056250Y-61875000D03*
%TD*%
D17*
%TO.C,MX55*%
X201136250Y-123825000D03*
X190976250Y-123825000D03*
D16*
X196056250Y-123825000D03*
D18*
X192856250Y-120575000D03*
D19*
X198606250Y-119025000D03*
%TD*%
D17*
%TO.C,MX41*%
X158273750Y-66675000D03*
X148113750Y-66675000D03*
D16*
X153193750Y-66675000D03*
D18*
X149993750Y-63425000D03*
D19*
X155743750Y-61875000D03*
%TD*%
D17*
%TO.C,MX69*%
X243363750Y-66675000D03*
D16*
X248443750Y-66675000D03*
D17*
X253523750Y-66675000D03*
D18*
X245243750Y-63425000D03*
D19*
X250993750Y-61875000D03*
%TD*%
D32*
%TO.C,R_DATA1*%
X317840000Y-102950000D03*
X317840000Y-104950000D03*
%TD*%
D33*
%TO.C,D29*%
X241937500Y-144318750D03*
X243837500Y-144318750D03*
X242887500Y-146193750D03*
%TD*%
D34*
%TO.C,R_INDICATOR3*%
X39130000Y-50760000D03*
X37130000Y-50760000D03*
%TD*%
%TO.C,R_INDICATOR2*%
X348662500Y-50006250D03*
X346662500Y-50006250D03*
%TD*%
D33*
%TO.C,D17*%
X137956250Y-105425000D03*
X139856250Y-105425000D03*
X138906250Y-107300000D03*
%TD*%
%TO.C,D36*%
X276068750Y-67325000D03*
X277968750Y-67325000D03*
X277018750Y-69200000D03*
%TD*%
%TO.C,D30*%
X223681250Y-124475000D03*
X225581250Y-124475000D03*
X224631250Y-126350000D03*
%TD*%
D35*
%TO.C,C_UCAP1*%
X323219411Y-106669411D03*
X322540589Y-105990589D03*
%TD*%
D33*
%TO.C,D1*%
X53818750Y-144318750D03*
X55718750Y-144318750D03*
X54768750Y-146193750D03*
%TD*%
%TO.C,D35*%
X252256250Y-43512500D03*
X254156250Y-43512500D03*
X253206250Y-45387500D03*
%TD*%
D36*
%TO.C,D48*%
X370860000Y-72560000D03*
X370860000Y-69260000D03*
%TD*%
D33*
%TO.C,D3*%
X47468750Y-67325000D03*
X49368750Y-67325000D03*
X48418750Y-69200000D03*
%TD*%
D36*
%TO.C,D46*%
X351910000Y-72910000D03*
X351910000Y-69610000D03*
%TD*%
D37*
%TO.C,R_HWB1*%
X327477500Y-117740000D03*
X326342500Y-117740000D03*
%TD*%
D33*
%TO.C,D2*%
X49850000Y-44306250D03*
X51750000Y-44306250D03*
X50800000Y-46181250D03*
%TD*%
D38*
%TO.C,J3*%
X316000000Y-65500000D03*
X317000000Y-65500000D03*
X318000000Y-65500000D03*
X319000000Y-65500000D03*
D39*
X320300000Y-61625000D03*
X314700000Y-61625000D03*
%TD*%
D40*
%TO.C,USB1*%
X314650000Y-30587500D03*
X320430000Y-30587500D03*
D41*
X314315000Y-32032500D03*
X315090000Y-32032500D03*
D42*
X315790000Y-32032500D03*
X316290000Y-32032500D03*
X316790000Y-32032500D03*
X317290000Y-32032500D03*
X317790000Y-32032500D03*
X318290000Y-32032500D03*
X318790000Y-32032500D03*
X319290000Y-32032500D03*
D41*
X319990000Y-32032500D03*
X320765000Y-32032500D03*
D43*
X313220000Y-31117500D03*
D44*
X313220000Y-26937500D03*
X321860000Y-26937500D03*
D43*
X321860000Y-31117500D03*
%TD*%
D36*
%TO.C,D49*%
X370640000Y-90460000D03*
X370640000Y-87160000D03*
%TD*%
D33*
%TO.C,D4*%
X53818750Y-86375000D03*
X55718750Y-86375000D03*
X54768750Y-88250000D03*
%TD*%
%TO.C,D43*%
X337981250Y-44306250D03*
X339881250Y-44306250D03*
X338931250Y-46181250D03*
%TD*%
D36*
%TO.C,D47*%
X370770000Y-47670000D03*
X370770000Y-44370000D03*
%TD*%
D35*
%TO.C,C_DECOUP4*%
X322829411Y-104879411D03*
X322150589Y-104200589D03*
%TD*%
D33*
%TO.C,D26*%
X209393750Y-86375000D03*
X211293750Y-86375000D03*
X210343750Y-88250000D03*
%TD*%
%TO.C,D6*%
X53818750Y-126856250D03*
X55718750Y-126856250D03*
X54768750Y-128731250D03*
%TD*%
%TO.C,D33*%
X252256250Y-105425000D03*
X254156250Y-105425000D03*
X253206250Y-107300000D03*
%TD*%
%TO.C,D42*%
X323693750Y-68912500D03*
X325593750Y-68912500D03*
X324643750Y-70787500D03*
%TD*%
D45*
%TO.C,R_RST1*%
X329161283Y-102538717D03*
X328358717Y-103341283D03*
%TD*%
D33*
%TO.C,D24*%
X185581250Y-124475000D03*
X187481250Y-124475000D03*
X186531250Y-126350000D03*
%TD*%
D37*
%TO.C,C_DECOUP1*%
X326910000Y-116180000D03*
X325775000Y-116180000D03*
%TD*%
D33*
%TO.C,D39*%
X287975000Y-86375000D03*
X289875000Y-86375000D03*
X288925000Y-88250000D03*
%TD*%
%TO.C,D12*%
X109381250Y-124475000D03*
X111281250Y-124475000D03*
X110331250Y-126350000D03*
%TD*%
%TO.C,D22*%
X171293750Y-86375000D03*
X173193750Y-86375000D03*
X172243750Y-88250000D03*
%TD*%
%TO.C,D11*%
X99856250Y-105425000D03*
X101756250Y-105425000D03*
X100806250Y-107300000D03*
%TD*%
%TO.C,D8*%
X90331250Y-43512500D03*
X92231250Y-43512500D03*
X91281250Y-45387500D03*
%TD*%
%TO.C,D34*%
X264956250Y-124475000D03*
X266856250Y-124475000D03*
X265906250Y-126350000D03*
%TD*%
D46*
%TO.C,D18*%
X316400000Y-42045000D03*
D47*
X316400000Y-40325000D03*
X318600000Y-40325000D03*
X318600000Y-42225000D03*
%TD*%
D33*
%TO.C,D32*%
X247493750Y-86375000D03*
X249393750Y-86375000D03*
X248443750Y-88250000D03*
%TD*%
%TO.C,D5*%
X56993750Y-105425000D03*
X58893750Y-105425000D03*
X57943750Y-107300000D03*
%TD*%
D34*
%TO.C,R_INDICATOR1*%
X46243750Y-112712500D03*
X44243750Y-112712500D03*
%TD*%
D36*
%TO.C,D50*%
X370680000Y-147580000D03*
X370680000Y-144280000D03*
%TD*%
D33*
%TO.C,D15*%
X123668750Y-67325000D03*
X125568750Y-67325000D03*
X124618750Y-69200000D03*
%TD*%
D32*
%TO.C,R_DATA2*%
X314570000Y-102970000D03*
X314570000Y-104970000D03*
%TD*%
D48*
%TO.C,C_DECOUP3*%
X333250000Y-110857500D03*
X333250000Y-109722500D03*
%TD*%
D33*
%TO.C,D41*%
X325281250Y-124475000D03*
X327181250Y-124475000D03*
X326231250Y-126350000D03*
%TD*%
%TO.C,D13*%
X126050000Y-144318750D03*
X127950000Y-144318750D03*
X127000000Y-146193750D03*
%TD*%
%TO.C,D31*%
X237968750Y-67325000D03*
X239868750Y-67325000D03*
X238918750Y-69200000D03*
%TD*%
%TO.C,D27*%
X214156250Y-105425000D03*
X216056250Y-105425000D03*
X215106250Y-107300000D03*
%TD*%
D49*
%TO.C,F1*%
X321300000Y-42312500D03*
X321300000Y-44187500D03*
%TD*%
D36*
%TO.C,D7*%
X89693750Y-126268750D03*
X89693750Y-122968750D03*
%TD*%
D33*
%TO.C,D16*%
X133193750Y-86375000D03*
X135093750Y-86375000D03*
X134143750Y-88250000D03*
%TD*%
D50*
%TO.C,C_DECOUP2*%
X319100000Y-109450000D03*
X319100000Y-111525000D03*
%TD*%
D33*
%TO.C,D45*%
X337950000Y-143052500D03*
X339850000Y-143052500D03*
X338900000Y-144927500D03*
%TD*%
%TO.C,D38*%
X289562500Y-144318750D03*
X291462500Y-144318750D03*
X290512500Y-146193750D03*
%TD*%
D51*
%TO.C,Y1*%
X332420000Y-105700000D03*
X331571472Y-104851472D03*
X330722944Y-104002944D03*
%TD*%
D52*
%TO.C,U1*%
X322772264Y-109707798D03*
X323125818Y-109354245D03*
X323479371Y-109000691D03*
X323832924Y-108647138D03*
X324186478Y-108293585D03*
X324540031Y-107940031D03*
X324893585Y-107586478D03*
X325247138Y-107232924D03*
X325600691Y-106879371D03*
X325954245Y-106525818D03*
X326307798Y-106172264D03*
D53*
X327492202Y-106172264D03*
X327845755Y-106525818D03*
X328199309Y-106879371D03*
X328552862Y-107232924D03*
X328906415Y-107586478D03*
X329259969Y-107940031D03*
X329613522Y-108293585D03*
X329967076Y-108647138D03*
X330320629Y-109000691D03*
X330674182Y-109354245D03*
X331027736Y-109707798D03*
D52*
X331027736Y-110892202D03*
X330674182Y-111245755D03*
X330320629Y-111599309D03*
X329967076Y-111952862D03*
X329613522Y-112306415D03*
X329259969Y-112659969D03*
X328906415Y-113013522D03*
X328552862Y-113367076D03*
X328199309Y-113720629D03*
X327845755Y-114074182D03*
X327492202Y-114427736D03*
D53*
X326307798Y-114427736D03*
X325954245Y-114074182D03*
X325600691Y-113720629D03*
X325247138Y-113367076D03*
X324893585Y-113013522D03*
X324540031Y-112659969D03*
X324186478Y-112306415D03*
X323832924Y-111952862D03*
X323479371Y-111599309D03*
X323125818Y-111245755D03*
X322772264Y-110892202D03*
D54*
X326900000Y-110300000D03*
%TD*%
D33*
%TO.C,D9*%
X85568750Y-67325000D03*
X87468750Y-67325000D03*
X86518750Y-69200000D03*
%TD*%
%TO.C,D37*%
X286387500Y-107012500D03*
X288287500Y-107012500D03*
X287337500Y-108887500D03*
%TD*%
%TO.C,D28*%
X211775000Y-44306250D03*
X213675000Y-44306250D03*
X212725000Y-46181250D03*
%TD*%
%TO.C,D19*%
X147481250Y-124475000D03*
X149381250Y-124475000D03*
X148431250Y-126350000D03*
%TD*%
%TO.C,D21*%
X161768750Y-67325000D03*
X163668750Y-67325000D03*
X162718750Y-69200000D03*
%TD*%
%TO.C,D20*%
X171293750Y-43512500D03*
X173193750Y-43512500D03*
X172243750Y-45387500D03*
%TD*%
%TO.C,D44*%
X337981250Y-86375000D03*
X339881250Y-86375000D03*
X338931250Y-88250000D03*
%TD*%
%TO.C,D23*%
X176056250Y-105425000D03*
X177956250Y-105425000D03*
X177006250Y-107300000D03*
%TD*%
%TO.C,D40*%
X292737500Y-44306250D03*
X294637500Y-44306250D03*
X293687500Y-46181250D03*
%TD*%
%TO.C,D14*%
X130812500Y-44306250D03*
X132712500Y-44306250D03*
X131762500Y-46181250D03*
%TD*%
%TO.C,D10*%
X95093750Y-86375000D03*
X96993750Y-86375000D03*
X96043750Y-88250000D03*
%TD*%
%TO.C,D25*%
X199868750Y-67325000D03*
X201768750Y-67325000D03*
X200818750Y-69200000D03*
%TD*%
M02*
